<svg width="36" height="36" viewBox="0 0 36 36" fill="none" xmlns="http://www.w3.org/2000/svg">
<path d="M27 18C26.175 18 25.5 18.675 25.5 19.5V27.33C25.5 28.155 24.825 28.83 24 28.83H9C8.175 28.83 7.5 28.155 7.5 27.33V12C7.5 11.175 8.175 10.5 9 10.5H16.5C17.325 10.5 18 9.825 18 9C18 8.175 17.325 7.5 16.5 7.5H7.5C5.85 7.5 4.5 8.85 4.5 10.5V28.5C4.5 30.15 5.85 31.5 7.5 31.5H25.5C27.15 31.5 28.5 30.15 28.5 28.5V19.5C28.5 18.675 27.825 18 27 18ZM31.53 7.5H28.5V4.47C28.5 3.66 27.84 3 27.03 3H26.985C26.16 3 25.5 3.66 25.5 4.47V7.5H22.485C21.675 7.5 21.015 8.16 21 8.97V9.015C21 9.84 21.66 10.5 22.485 10.5H25.5V13.515C25.5 14.325 26.16 15 26.985 14.985H27.03C27.84 14.985 28.5 14.325 28.5 13.515V10.5H31.53C32.34 10.5 33 9.84 33 9.03V8.97C33 8.16 32.34 7.5 31.53 7.5Z" fill="#555555"/>
<path d="M21 13.5H12C11.175 13.5 10.5 14.175 10.5 15C10.5 15.825 11.175 16.5 12 16.5H21C21.825 16.5 22.5 15.825 22.5 15C22.5 14.175 21.825 13.5 21 13.5ZM21 18H12C11.175 18 10.5 18.675 10.5 19.5C10.5 20.325 11.175 21 12 21H21C21.825 21 22.5 20.325 22.5 19.5C22.5 18.675 21.825 18 21 18ZM21 22.5H12C11.175 22.5 10.5 23.175 10.5 24C10.5 24.825 11.175 25.5 12 25.5H21C21.825 25.5 22.5 24.825 22.5 24C22.5 23.175 21.825 22.5 21 22.5Z" fill="#555555"/>
</svg>
