<svg width="22" height="33" viewBox="0 0 22 33" fill="none" xmlns="http://www.w3.org/2000/svg">
<path d="M10.75 11.5C11.1642 11.5 11.5 11.1642 11.5 10.75C11.5 10.3358 11.1642 10 10.75 10C10.3358 10 10 10.3358 10 10.75C10 11.1642 10.3358 11.5 10.75 11.5Z" stroke="#222222" stroke-width="1.5" stroke-linecap="round" stroke-linejoin="round"/>
<path d="M10.75 17C11.1642 17 11.5 16.6642 11.5 16.25C11.5 15.8358 11.1642 15.5 10.75 15.5C10.3358 15.5 10 15.8358 10 16.25C10 16.6642 10.3358 17 10.75 17Z" stroke="#222222" stroke-width="1.5" stroke-linecap="round" stroke-linejoin="round"/>
<path d="M10.75 22.5C11.1642 22.5 11.5 22.1642 11.5 21.75C11.5 21.3358 11.1642 21 10.75 21C10.3358 21 10 21.3358 10 21.75C10 22.1642 10.3358 22.5 10.75 22.5Z" stroke="#222222" stroke-width="1.5" stroke-linecap="round" stroke-linejoin="round"/>
</svg>
