<svg width="24" height="24" viewBox="0 0 24 24" fill="none" xmlns="http://www.w3.org/2000/svg">
<path d="M8.01667 6.98209C7.75066 6.98209 7.49554 7.08777 7.30744 7.27587C7.11934 7.46397 7.01367 7.71909 7.01367 7.98511C7.01367 8.25112 7.11934 8.50625 7.30744 8.69435C7.49554 8.88245 7.75066 8.98812 8.01667 8.98812H15.9667C16.2327 8.98812 16.4878 8.88245 16.6759 8.69435C16.864 8.50625 16.9697 8.25112 16.9697 7.98511C16.9697 7.71909 16.864 7.46397 16.6759 7.27587C16.4878 7.08777 16.2327 6.98209 15.9667 6.98209H8.01667ZM7.01667 12.0002C7.01667 11.4482 7.46367 10.9972 8.01667 10.9972H15.9667C16.2327 10.9972 16.4878 11.1028 16.6759 11.2909C16.864 11.479 16.9697 11.7342 16.9697 12.0002C16.9697 12.2662 16.864 12.5213 16.6759 12.7094C16.4878 12.8975 16.2327 13.0032 15.9667 13.0032H8.01667C7.46367 13.0032 7.01667 12.5532 7.01667 12.0002ZM8.02567 15.0122C7.75953 15.0122 7.50428 15.1179 7.31609 15.3061C7.1279 15.4943 7.02217 15.7496 7.02217 16.0157C7.02217 16.2819 7.1279 16.5371 7.31609 16.7253C7.50428 16.9135 7.75953 17.0192 8.02567 17.0192H15.9757C16.2418 17.0192 16.4971 16.9135 16.6853 16.7253C16.8734 16.5371 16.9792 16.2819 16.9792 16.0157C16.9792 15.7496 16.8734 15.4943 16.6853 15.3061C16.4971 15.1179 16.2418 15.0122 15.9757 15.0122H8.02567Z" fill="#558978"/>
<path fill-rule="evenodd" clip-rule="evenodd" d="M3.00195 6.00008C3.00195 5.20442 3.31802 4.44135 3.88063 3.87873C4.44324 3.31611 5.2063 3.00004 6.00195 3.00004H18.002C18.7976 3.00004 19.5607 3.31611 20.1233 3.87873C20.6859 4.44135 21.002 5.20442 21.002 6.00008V18.0003C21.002 18.7959 20.6859 19.559 20.1233 20.1216C19.5607 20.6842 18.7976 21.0003 18.002 21.0003H6.00195C5.2063 21.0003 4.44324 20.6842 3.88063 20.1216C3.31802 19.559 3.00195 18.7959 3.00195 18.0003V6.00008ZM6.00195 5.00007H18.002C18.2672 5.00007 18.5215 5.10543 18.7091 5.29297C18.8966 5.4805 19.002 5.73486 19.002 6.00008V18.0003C19.002 18.2655 18.8966 18.5198 18.7091 18.7074C18.5215 18.8949 18.2672 19.0003 18.002 19.0003H6.00195C5.73674 19.0003 5.48238 18.8949 5.29485 18.7074C5.10731 18.5198 5.00195 18.2655 5.00195 18.0003V6.00008C5.00195 5.73486 5.10731 5.4805 5.29485 5.29297C5.48238 5.10543 5.73674 5.00007 6.00195 5.00007Z" fill="#558978"/>
</svg>
