<svg width="195" height="190" viewBox="0 0 195 190" fill="none" xmlns="http://www.w3.org/2000/svg">
<g clip-path="url(#clip0_352_45)">
<path d="M123.57 42.7304H71.121C69.9258 42.7318 68.78 43.2073 67.9348 44.0524C67.0897 44.8976 66.6143 46.0434 66.6128 47.2386V163.807L66.0117 163.99L53.1451 167.931C52.5353 168.117 51.8767 168.053 51.3138 167.754C50.7509 167.455 50.3297 166.944 50.1427 166.335L11.8705 41.3208C11.6843 40.711 11.7478 40.0522 12.047 39.4892C12.3463 38.9262 12.8568 38.505 13.4665 38.3183L33.2938 32.2472L90.7741 14.653L110.601 8.58185C110.903 8.48899 111.22 8.45654 111.534 8.48636C111.849 8.51618 112.154 8.60769 112.433 8.75564C112.712 8.9036 112.959 9.1051 113.16 9.34861C113.361 9.59212 113.512 9.87286 113.604 10.1748L123.387 42.1293L123.57 42.7304Z" fill="#F2F2F2"/>
<path d="M135.015 42.1296L123.225 3.61706C123.028 2.97537 122.708 2.37862 122.281 1.86092C121.854 1.34321 121.329 0.914701 120.737 0.599862C120.144 0.285022 119.495 0.0900268 118.827 0.026025C118.16 -0.0379768 117.486 0.0302693 116.844 0.226857L88.9679 8.75948L31.4908 26.3567L3.61476 34.8923C2.31978 35.29 1.23548 36.1852 0.599863 37.3814C-0.0357589 38.5777 -0.170774 39.9773 0.224459 41.273L40.5223 172.893C40.8433 173.939 41.4912 174.854 42.3707 175.505C43.2503 176.156 44.3152 176.508 45.4093 176.509C45.9157 176.509 46.4192 176.433 46.9029 176.283L66.0119 170.434L66.613 170.248V169.62L66.0119 169.803L46.7257 175.709C45.5826 176.058 44.348 175.938 43.2927 175.378C42.2374 174.817 41.4475 173.861 41.0964 172.719L0.801639 41.0957C0.627648 40.5297 0.567007 39.935 0.623188 39.3456C0.679368 38.7561 0.851262 38.1836 1.12904 37.6607C1.40681 37.1378 1.78501 36.6748 2.24197 36.2983C2.69892 35.9217 3.22566 35.639 3.79203 35.4664L31.6681 26.9308L89.1454 9.33654L117.021 0.800913C117.451 0.669813 117.898 0.602968 118.347 0.602549C119.311 0.604713 120.249 0.915469 121.023 1.4893C121.798 2.06313 122.368 2.86988 122.651 3.79139L134.387 42.1296L134.574 42.7307H135.199L135.015 42.1296Z" fill="#3F3D56"/>
<path d="M36.8728 38.4166C36.2936 38.4162 35.7296 38.2301 35.2639 37.8857C34.7981 37.5414 34.4549 37.0568 34.2847 36.5031L30.4135 23.8584C30.3095 23.5187 30.2734 23.1619 30.3073 22.8083C30.3412 22.4547 30.4444 22.1112 30.611 21.7975C30.7777 21.4838 31.0045 21.206 31.2785 20.9799C31.5526 20.7539 31.8685 20.5841 32.2081 20.4801L85.0867 4.29135C85.7726 4.08203 86.5136 4.15342 87.147 4.48986C87.7804 4.82629 88.2544 5.40028 88.4651 6.08585L92.3363 18.7307C92.5454 19.4166 92.474 20.1576 92.1376 20.7909C91.8012 21.4243 91.2273 21.8983 90.5418 22.1091L37.6631 38.2979C37.407 38.3764 37.1407 38.4165 36.8728 38.4166Z" fill="#477F6D"/>
<path d="M57.1516 13.5111C60.4714 13.5111 63.1626 10.8199 63.1626 7.50013C63.1626 4.18034 60.4714 1.48912 57.1516 1.48912C53.8318 1.48912 51.1406 4.18034 51.1406 7.50013C51.1406 10.8199 53.8318 13.5111 57.1516 13.5111Z" fill="#477F6D"/>
<path d="M57.1521 11.3065C59.2542 11.3065 60.9584 9.60232 60.9584 7.50013C60.9584 5.39793 59.2542 3.69377 57.1521 3.69377C55.0499 3.69377 53.3457 5.39793 53.3457 7.50013C53.3457 9.60232 55.0499 11.3065 57.1521 11.3065Z" fill="white"/>
<path d="M181.123 174.972H79.5371C78.8598 174.972 78.2104 174.702 77.7315 174.223C77.2526 173.744 76.9832 173.095 76.9824 172.418V50.695C76.9832 50.0177 77.2526 49.3683 77.7315 48.8894C78.2104 48.4104 78.8598 48.141 79.5371 48.1403H181.123C181.8 48.1411 182.45 48.4105 182.929 48.8894C183.408 49.3683 183.677 50.0177 183.678 50.695V172.418C183.677 173.095 183.408 173.744 182.929 174.223C182.45 174.702 181.8 174.972 181.123 174.972Z" fill="#E6E6E6"/>
<path d="M134.389 42.1293H71.123C69.7685 42.1312 68.4701 42.6701 67.5123 43.6279C66.5545 44.5857 66.0156 45.8841 66.0137 47.2386V169.803L66.6148 169.62V47.2386C66.6162 46.0434 67.0917 44.8976 67.9368 44.0524C68.782 43.2073 69.9278 42.7318 71.123 42.7304H134.575L134.389 42.1293ZM189.54 42.1293H71.123C69.7685 42.1312 68.4701 42.6701 67.5123 43.6279C66.5545 44.5857 66.0156 45.8841 66.0137 47.2386V184.891C66.0156 186.245 66.5545 187.544 67.5123 188.501C68.4701 189.459 69.7685 189.998 71.123 190H189.54C190.894 189.998 192.193 189.459 193.151 188.501C194.108 187.544 194.647 186.245 194.649 184.891V47.2386C194.647 45.8841 194.108 44.5857 193.151 43.6279C192.193 42.6701 190.894 42.1312 189.54 42.1293ZM194.048 184.891C194.047 186.086 193.571 187.232 192.726 188.077C191.881 188.922 190.735 189.397 189.54 189.399H71.123C69.9278 189.397 68.782 188.922 67.9368 188.077C67.0917 187.232 66.6162 186.086 66.6148 184.891V47.2386C66.6162 46.0434 67.0917 44.8976 67.9368 44.0524C68.782 43.2073 69.9278 42.7318 71.123 42.7304H189.54C190.735 42.7318 191.881 43.2073 192.726 44.0524C193.571 44.8976 194.047 46.0434 194.048 47.2386V184.891Z" fill="#3F3D56"/>
<path d="M157.981 55.3535H102.68C101.962 55.3527 101.275 55.0674 100.768 54.5603C100.261 54.0532 99.9754 53.3657 99.9746 52.6485V39.4243C99.9754 38.7072 100.261 38.0196 100.768 37.5125C101.275 37.0054 101.962 36.7202 102.68 36.7194H157.981C158.698 36.7202 159.385 37.0054 159.893 37.5125C160.4 38.0196 160.685 38.7072 160.686 39.4243V52.6485C160.685 53.3657 160.4 54.0532 159.893 54.5603C159.386 55.0674 158.698 55.3527 157.981 55.3535Z" fill="#477F6D"/>
<path d="M130.329 37.621C133.649 37.621 136.34 34.9298 136.34 31.61C136.34 28.2902 133.649 25.599 130.329 25.599C127.01 25.599 124.318 28.2902 124.318 31.61C124.318 34.9298 127.01 37.621 130.329 37.621Z" fill="#477F6D"/>
<path d="M130.329 35.2713C132.351 35.2713 133.99 33.6321 133.99 31.61C133.99 29.588 132.351 27.9488 130.329 27.9488C128.307 27.9488 126.668 29.588 126.668 31.61C126.668 33.6321 128.307 35.2713 130.329 35.2713Z" fill="white"/>
</g>
<defs>
<clipPath id="clip0_352_45">
<rect width="194.647" height="190" fill="white"/>
</clipPath>
</defs>
</svg>
