<svg width="410" height="436" viewBox="0 0 410 436" fill="none" xmlns="http://www.w3.org/2000/svg">
<g filter="url(#filter0_d_118_3261)">
<rect x="47" y="34" width="308.529" height="335" rx="7.0997" fill="white" shape-rendering="crispEdges"/>
<path d="M119.688 195.781C120.126 196.085 120.363 196.378 120.4 196.658C120.448 196.925 120.345 197.254 120.089 197.643L116.237 203.431V206.99C116.237 207.222 116.213 207.447 116.164 207.666C116.116 207.873 115.994 208.043 115.799 208.177C115.617 208.311 115.294 208.378 114.832 208.378C114.381 208.378 114.059 208.311 113.864 208.177C113.669 208.043 113.548 207.867 113.499 207.648C113.462 207.429 113.444 207.197 113.444 206.954V203.431L109.574 197.643C109.306 197.254 109.203 196.919 109.263 196.639C109.324 196.359 109.568 196.073 109.994 195.781C110.31 195.574 110.578 195.453 110.797 195.416C111.016 195.38 111.217 195.422 111.399 195.544C111.582 195.666 111.758 195.866 111.929 196.146L114.795 200.71L117.734 196.146C117.929 195.854 118.112 195.653 118.282 195.544C118.465 195.422 118.665 195.38 118.884 195.416C119.103 195.453 119.371 195.574 119.688 195.781ZM123.587 208.487C123.015 208.487 122.443 208.378 121.871 208.159C121.311 207.928 120.8 207.605 120.337 207.191C119.875 206.777 119.51 206.285 119.242 205.713C118.974 205.128 118.84 204.483 118.84 203.777C118.84 203.12 118.962 202.512 119.205 201.952C119.449 201.38 119.79 200.875 120.228 200.437C120.666 199.998 121.165 199.658 121.725 199.414C122.297 199.159 122.905 199.031 123.55 199.031C124.427 199.031 125.218 199.244 125.924 199.67C126.642 200.084 127.214 200.65 127.64 201.368C128.066 202.086 128.279 202.883 128.279 203.759C128.279 204.502 128.139 205.165 127.859 205.749C127.591 206.321 127.226 206.814 126.763 207.228C126.313 207.642 125.808 207.958 125.248 208.177C124.7 208.384 124.147 208.487 123.587 208.487ZM123.55 205.731C123.842 205.731 124.141 205.658 124.445 205.512C124.749 205.366 125.005 205.147 125.212 204.855C125.418 204.562 125.522 204.191 125.522 203.741C125.522 203.351 125.437 203.011 125.266 202.719C125.096 202.426 124.859 202.201 124.554 202.043C124.262 201.873 123.921 201.787 123.532 201.787C123.167 201.787 122.838 201.873 122.546 202.043C122.266 202.213 122.035 202.451 121.852 202.755C121.682 203.047 121.597 203.382 121.597 203.759C121.597 204.197 121.694 204.568 121.889 204.873C122.096 205.165 122.351 205.384 122.656 205.53C122.96 205.664 123.258 205.731 123.55 205.731ZM133.328 208.323C132.768 208.323 132.239 208.214 131.74 207.995C131.253 207.775 130.827 207.471 130.462 207.082C130.097 206.68 129.811 206.212 129.604 205.676C129.409 205.128 129.312 204.532 129.312 203.887V200.583C129.312 200.339 129.336 200.114 129.385 199.907C129.433 199.7 129.549 199.53 129.732 199.396C129.926 199.262 130.249 199.195 130.699 199.195C131.15 199.195 131.466 199.262 131.649 199.396C131.843 199.53 131.959 199.706 131.995 199.925C132.044 200.132 132.068 200.357 132.068 200.601V203.887C132.068 204.24 132.129 204.55 132.251 204.818C132.385 205.074 132.574 205.268 132.817 205.402C133.073 205.536 133.371 205.603 133.712 205.603C134.064 205.603 134.363 205.536 134.606 205.402C134.862 205.256 135.056 205.055 135.19 204.8C135.336 204.544 135.409 204.24 135.409 203.887V200.564C135.409 200.321 135.434 200.096 135.482 199.889C135.531 199.682 135.647 199.518 135.829 199.396C136.024 199.262 136.346 199.195 136.797 199.195C137.247 199.195 137.564 199.262 137.746 199.396C137.941 199.53 138.056 199.706 138.093 199.925C138.142 200.132 138.166 200.351 138.166 200.583V207.009C138.166 207.24 138.142 207.459 138.093 207.666C138.056 207.861 137.941 208.019 137.746 208.141C137.551 208.262 137.235 208.323 136.797 208.323C136.468 208.323 136.213 208.287 136.03 208.214C135.847 208.141 135.714 208.049 135.628 207.94C135.543 207.83 135.488 207.715 135.464 207.593C135.452 207.471 135.446 207.362 135.446 207.264L135.683 207.063C135.647 207.112 135.568 207.203 135.446 207.337C135.324 207.471 135.16 207.617 134.953 207.775C134.758 207.922 134.527 208.049 134.259 208.159C133.991 208.268 133.681 208.323 133.328 208.323ZM140.988 208.341C140.538 208.341 140.215 208.281 140.02 208.159C139.838 208.025 139.722 207.849 139.673 207.629C139.637 207.41 139.619 207.185 139.619 206.954V200.583C139.619 200.339 139.643 200.114 139.692 199.907C139.74 199.7 139.856 199.536 140.039 199.414C140.233 199.28 140.556 199.213 141.006 199.213C141.432 199.213 141.736 199.274 141.919 199.396C142.114 199.505 142.235 199.639 142.284 199.798C142.333 199.944 142.357 200.071 142.357 200.181L142.138 200.29C142.162 200.242 142.223 200.157 142.321 200.035C142.43 199.901 142.576 199.767 142.759 199.633C142.941 199.487 143.16 199.365 143.416 199.268C143.684 199.171 143.988 199.122 144.329 199.122C144.463 199.122 144.609 199.134 144.767 199.159C144.937 199.171 145.108 199.207 145.278 199.268C145.461 199.317 145.625 199.39 145.771 199.487C145.917 199.572 146.033 199.682 146.118 199.816C146.215 199.95 146.264 200.114 146.264 200.309C146.264 200.808 146.148 201.234 145.917 201.587C145.686 201.927 145.394 202.098 145.041 202.098C144.834 202.098 144.688 202.08 144.603 202.043C144.517 202.007 144.444 201.97 144.384 201.934C144.335 201.897 144.274 201.867 144.201 201.842C144.128 201.806 143.994 201.787 143.799 201.787C143.617 201.787 143.44 201.812 143.27 201.861C143.112 201.909 142.96 201.988 142.813 202.098C142.68 202.195 142.57 202.323 142.485 202.481C142.412 202.627 142.375 202.792 142.375 202.974V206.99C142.375 207.222 142.351 207.447 142.302 207.666C142.266 207.873 142.15 208.037 141.955 208.159C141.761 208.281 141.438 208.341 140.988 208.341ZM164.375 205.767C164.801 206.047 165.038 206.327 165.087 206.607C165.148 206.887 165.02 207.246 164.704 207.684C164.485 208.001 164.284 208.214 164.101 208.323C163.919 208.433 163.724 208.457 163.517 208.396C163.31 208.335 163.067 208.214 162.787 208.031L161.436 207.155C160.913 207.581 160.334 207.915 159.702 208.159C159.069 208.402 158.399 208.524 157.693 208.524C156.817 208.524 155.989 208.36 155.211 208.031C154.444 207.69 153.768 207.228 153.184 206.644C152.612 206.047 152.156 205.36 151.815 204.581C151.486 203.79 151.322 202.956 151.322 202.08C151.322 201.155 151.48 200.297 151.797 199.505C152.125 198.702 152.569 197.996 153.129 197.388C153.701 196.779 154.365 196.305 155.119 195.964C155.874 195.623 156.683 195.453 157.547 195.453C158.424 195.453 159.245 195.623 160.012 195.964C160.791 196.292 161.466 196.755 162.038 197.351C162.623 197.948 163.079 198.641 163.408 199.432C163.736 200.224 163.9 201.082 163.9 202.007C163.9 202.53 163.834 203.041 163.7 203.54C163.578 204.039 163.401 204.514 163.17 204.964L164.375 205.767ZM157.602 205.749C158.089 205.749 158.545 205.652 158.971 205.457C159.397 205.262 159.768 205.001 160.085 204.672C160.414 204.331 160.663 203.93 160.833 203.467C161.016 203.005 161.107 202.512 161.107 201.988C161.107 201.477 161.016 200.996 160.833 200.546C160.651 200.084 160.395 199.682 160.067 199.341C159.75 198.988 159.379 198.714 158.953 198.52C158.539 198.325 158.095 198.228 157.62 198.228C157.134 198.228 156.677 198.325 156.251 198.52C155.825 198.714 155.448 198.988 155.119 199.341C154.803 199.682 154.553 200.084 154.371 200.546C154.188 200.996 154.097 201.483 154.097 202.007C154.097 202.518 154.188 203.005 154.371 203.467C154.565 203.917 154.821 204.313 155.138 204.654C155.466 204.994 155.837 205.262 156.251 205.457C156.677 205.652 157.127 205.749 157.602 205.749ZM167.716 208.341C167.278 208.341 166.961 208.274 166.767 208.141C166.572 208.007 166.45 207.83 166.401 207.611C166.365 207.392 166.347 207.167 166.347 206.936V196.95C166.347 196.718 166.365 196.499 166.401 196.292C166.45 196.085 166.572 195.915 166.767 195.781C166.961 195.647 167.284 195.58 167.734 195.58H171.531C172.03 195.58 172.542 195.672 173.065 195.854C173.588 196.037 174.069 196.317 174.507 196.694C174.945 197.071 175.298 197.54 175.566 198.1C175.834 198.66 175.968 199.323 175.968 200.09C175.968 200.601 175.889 201.094 175.73 201.568C175.584 202.043 175.359 202.481 175.055 202.883C174.751 203.284 174.373 203.631 173.923 203.923C173.473 204.203 172.955 204.404 172.371 204.526H169.122V206.954C169.122 207.185 169.097 207.41 169.049 207.629C169 207.836 168.878 208.007 168.683 208.141C168.489 208.274 168.166 208.341 167.716 208.341ZM175.42 207.976C174.97 208.305 174.611 208.433 174.343 208.36C174.075 208.287 173.795 208.049 173.503 207.648L170.29 203.047L173.412 202.646L175.767 206.023C175.974 206.315 176.101 206.564 176.15 206.771C176.211 206.978 176.181 207.173 176.059 207.356C175.949 207.538 175.736 207.745 175.42 207.976ZM169.122 201.787H171.659C171.83 201.787 172.006 201.757 172.189 201.696C172.371 201.623 172.535 201.52 172.682 201.386C172.828 201.252 172.949 201.075 173.047 200.856C173.144 200.637 173.193 200.376 173.193 200.071C173.193 199.718 173.12 199.414 172.974 199.159C172.84 198.903 172.645 198.708 172.389 198.574C172.134 198.428 171.836 198.355 171.495 198.355H169.122V201.787ZM183.097 208.341C182.659 208.341 182.343 208.274 182.148 208.141C181.953 208.007 181.838 207.836 181.801 207.629C181.765 207.423 181.746 207.197 181.746 206.954V200.564C181.746 200.321 181.765 200.102 181.801 199.907C181.85 199.7 181.972 199.536 182.166 199.414C182.361 199.28 182.684 199.213 183.134 199.213C183.584 199.213 183.913 199.305 184.12 199.487C184.327 199.658 184.43 199.944 184.43 200.345L184.193 200.546C184.217 200.485 184.29 200.382 184.412 200.236C184.533 200.09 184.692 199.938 184.886 199.779C185.081 199.621 185.306 199.487 185.562 199.378C185.83 199.256 186.116 199.195 186.42 199.195C186.822 199.195 187.181 199.256 187.497 199.378C187.826 199.487 188.118 199.658 188.373 199.889C188.641 200.108 188.872 200.388 189.067 200.729C189.237 200.485 189.444 200.248 189.688 200.017C189.931 199.785 190.217 199.591 190.546 199.432C190.887 199.274 191.264 199.195 191.678 199.195C192.384 199.195 192.98 199.378 193.467 199.743C193.966 200.096 194.343 200.607 194.599 201.276C194.854 201.946 194.982 202.755 194.982 203.704V206.972C194.982 207.203 194.958 207.429 194.909 207.648C194.873 207.855 194.757 208.025 194.562 208.159C194.367 208.281 194.045 208.341 193.595 208.341C193.144 208.341 192.822 208.274 192.627 208.141C192.444 208.007 192.329 207.836 192.28 207.629C192.244 207.41 192.225 207.185 192.225 206.954V203.686C192.225 203.309 192.183 202.992 192.098 202.737C192.012 202.481 191.879 202.286 191.696 202.153C191.526 202.007 191.307 201.934 191.039 201.934C190.759 201.934 190.522 202 190.327 202.134C190.132 202.256 189.986 202.451 189.889 202.719C189.791 202.974 189.743 203.303 189.743 203.704V206.972C189.743 207.216 189.712 207.447 189.651 207.666C189.59 207.873 189.457 208.043 189.25 208.177C189.055 208.299 188.738 208.354 188.3 208.341C187.862 208.329 187.552 208.256 187.369 208.122C187.187 207.988 187.077 207.818 187.041 207.611C187.004 207.392 186.986 207.173 186.986 206.954V203.686C186.986 203.309 186.943 202.992 186.858 202.737C186.773 202.469 186.645 202.268 186.475 202.134C186.304 202 186.079 201.934 185.799 201.934C185.495 201.934 185.245 202.013 185.051 202.171C184.856 202.329 184.71 202.542 184.613 202.81C184.527 203.065 184.485 203.358 184.485 203.686V206.972C184.485 207.216 184.46 207.441 184.412 207.648C184.375 207.855 184.26 208.025 184.065 208.159C183.87 208.281 183.548 208.341 183.097 208.341ZM200.947 208.506C200.095 208.506 199.359 208.366 198.738 208.086C198.129 207.806 197.63 207.441 197.241 206.99C196.852 206.528 196.559 206.017 196.365 205.457C196.182 204.897 196.091 204.337 196.091 203.777C196.091 202.865 196.298 202.055 196.712 201.349C197.125 200.643 197.697 200.09 198.428 199.688C199.158 199.274 199.998 199.067 200.947 199.067C201.653 199.067 202.261 199.183 202.773 199.414C203.296 199.633 203.722 199.925 204.051 200.29C204.391 200.643 204.641 201.027 204.799 201.441C204.969 201.854 205.055 202.25 205.055 202.627C205.055 203.297 204.89 203.796 204.562 204.124C204.245 204.441 203.838 204.599 203.339 204.599H198.994C199.018 204.915 199.127 205.183 199.322 205.402C199.529 205.621 199.785 205.792 200.089 205.913C200.393 206.035 200.716 206.096 201.057 206.096C201.349 206.096 201.604 206.084 201.823 206.059C202.042 206.023 202.231 205.98 202.389 205.932C202.547 205.871 202.693 205.816 202.827 205.767C202.961 205.706 203.077 205.658 203.174 205.621C203.284 205.585 203.387 205.56 203.485 205.548C203.667 205.536 203.831 205.591 203.978 205.713C204.136 205.822 204.276 205.992 204.397 206.224C204.483 206.358 204.537 206.485 204.562 206.607C204.598 206.729 204.616 206.851 204.616 206.972C204.616 207.264 204.464 207.526 204.16 207.757C203.868 207.988 203.448 208.171 202.9 208.305C202.365 208.439 201.714 208.506 200.947 208.506ZM198.994 203.102H201.878C202.073 203.102 202.213 203.071 202.298 203.011C202.395 202.938 202.444 202.804 202.444 202.609C202.444 202.39 202.377 202.201 202.243 202.043C202.109 201.873 201.927 201.745 201.695 201.66C201.476 201.562 201.221 201.514 200.929 201.514C200.551 201.514 200.217 201.587 199.925 201.733C199.633 201.879 199.401 202.073 199.231 202.317C199.073 202.56 198.994 202.822 198.994 203.102ZM207.594 208.323C207.144 208.323 206.821 208.262 206.627 208.141C206.444 208.007 206.328 207.836 206.28 207.629C206.243 207.41 206.225 207.185 206.225 206.954V200.528C206.225 200.297 206.249 200.084 206.298 199.889C206.347 199.682 206.462 199.518 206.645 199.396C206.84 199.274 207.162 199.213 207.612 199.213C208.002 199.213 208.288 199.268 208.471 199.378C208.653 199.475 208.769 199.597 208.817 199.743C208.878 199.889 208.909 200.029 208.909 200.163C208.909 200.284 208.921 200.37 208.945 200.418L208.836 200.765C208.86 200.583 208.951 200.4 209.109 200.217C209.28 200.023 209.487 199.852 209.73 199.706C209.986 199.548 210.254 199.426 210.533 199.341C210.826 199.256 211.112 199.213 211.391 199.213C211.976 199.213 212.493 199.323 212.943 199.542C213.406 199.749 213.795 200.053 214.112 200.455C214.428 200.856 214.665 201.331 214.824 201.879C214.994 202.414 215.079 203.005 215.079 203.65V206.972C215.079 207.203 215.055 207.429 215.006 207.648C214.97 207.855 214.854 208.019 214.659 208.141C214.477 208.262 214.16 208.323 213.71 208.323C213.248 208.323 212.919 208.262 212.724 208.141C212.542 208.007 212.426 207.836 212.377 207.629C212.329 207.41 212.304 207.185 212.304 206.954V203.65C212.304 203.284 212.243 202.974 212.122 202.719C212 202.463 211.817 202.268 211.574 202.134C211.331 201.988 211.032 201.915 210.68 201.915C210.327 201.915 210.022 201.988 209.767 202.134C209.511 202.28 209.31 202.481 209.164 202.737C209.03 202.992 208.963 203.297 208.963 203.65V206.972C208.963 207.203 208.939 207.429 208.89 207.648C208.854 207.855 208.738 208.019 208.544 208.141C208.361 208.262 208.045 208.323 207.594 208.323ZM220.437 208.323C219.877 208.323 219.348 208.214 218.849 207.995C218.362 207.775 217.936 207.471 217.571 207.082C217.206 206.68 216.92 206.212 216.713 205.676C216.518 205.128 216.421 204.532 216.421 203.887V200.583C216.421 200.339 216.445 200.114 216.494 199.907C216.542 199.7 216.658 199.53 216.841 199.396C217.035 199.262 217.358 199.195 217.808 199.195C218.258 199.195 218.575 199.262 218.757 199.396C218.952 199.53 219.068 199.706 219.104 199.925C219.153 200.132 219.177 200.357 219.177 200.601V203.887C219.177 204.24 219.238 204.55 219.36 204.818C219.494 205.074 219.682 205.268 219.926 205.402C220.181 205.536 220.48 205.603 220.82 205.603C221.173 205.603 221.471 205.536 221.715 205.402C221.97 205.256 222.165 205.055 222.299 204.8C222.445 204.544 222.518 204.24 222.518 203.887V200.564C222.518 200.321 222.543 200.096 222.591 199.889C222.64 199.682 222.756 199.518 222.938 199.396C223.133 199.262 223.455 199.195 223.906 199.195C224.356 199.195 224.672 199.262 224.855 199.396C225.05 199.53 225.165 199.706 225.202 199.925C225.251 200.132 225.275 200.351 225.275 200.583V207.009C225.275 207.24 225.251 207.459 225.202 207.666C225.165 207.861 225.05 208.019 224.855 208.141C224.66 208.262 224.344 208.323 223.906 208.323C223.577 208.323 223.321 208.287 223.139 208.214C222.956 208.141 222.822 208.049 222.737 207.94C222.652 207.83 222.597 207.715 222.573 207.593C222.561 207.471 222.555 207.362 222.555 207.264L222.792 207.063C222.756 207.112 222.676 207.203 222.555 207.337C222.433 207.471 222.269 207.617 222.062 207.775C221.867 207.922 221.636 208.049 221.368 208.159C221.1 208.268 220.79 208.323 220.437 208.323ZM232.592 208.341C232.141 208.341 231.819 208.281 231.624 208.159C231.441 208.025 231.326 207.855 231.277 207.648C231.241 207.429 231.222 207.203 231.222 206.972V200.601C231.222 200.357 231.241 200.132 231.277 199.925C231.326 199.718 231.448 199.554 231.642 199.432C231.837 199.299 232.16 199.232 232.61 199.232C233.048 199.232 233.358 199.299 233.541 199.432C233.736 199.566 233.851 199.737 233.888 199.944C233.936 200.151 233.961 200.382 233.961 200.637V206.99C233.961 207.222 233.936 207.447 233.888 207.666C233.851 207.873 233.736 208.037 233.541 208.159C233.358 208.281 233.042 208.341 232.592 208.341ZM232.592 197.899C232.129 197.899 231.8 197.832 231.606 197.698C231.411 197.564 231.289 197.388 231.241 197.169C231.204 196.95 231.186 196.718 231.186 196.475C231.186 196.219 231.21 195.988 231.259 195.781C231.308 195.562 231.429 195.392 231.624 195.27C231.819 195.136 232.147 195.069 232.61 195.069C233.06 195.069 233.383 195.136 233.577 195.27C233.772 195.404 233.888 195.58 233.924 195.799C233.973 196.019 233.997 196.25 233.997 196.493C233.997 196.737 233.973 196.968 233.924 197.187C233.888 197.406 233.772 197.582 233.577 197.716C233.383 197.838 233.054 197.899 232.592 197.899ZM238.839 208.487C238.51 208.487 238.151 208.451 237.761 208.378C237.384 208.305 237.013 208.201 236.648 208.068C236.283 207.922 235.978 207.757 235.735 207.575C235.492 207.38 235.352 207.161 235.315 206.917C235.291 206.796 235.291 206.668 235.315 206.534C235.352 206.388 235.413 206.242 235.498 206.096C235.583 205.938 235.686 205.773 235.808 205.603C235.905 205.469 236.015 205.384 236.137 205.347C236.258 205.311 236.398 205.317 236.557 205.366C236.751 205.402 236.946 205.469 237.141 205.566C237.348 205.652 237.548 205.749 237.743 205.859C237.95 205.956 238.163 206.047 238.382 206.132C238.601 206.205 238.826 206.242 239.058 206.242C239.398 206.242 239.66 206.193 239.843 206.096C240.037 205.986 240.135 205.84 240.135 205.658C240.135 205.524 240.092 205.414 240.007 205.329C239.934 205.244 239.824 205.171 239.678 205.11C239.544 205.037 239.386 204.976 239.204 204.928C239.021 204.879 238.82 204.83 238.601 204.781C238.394 204.721 238.181 204.66 237.962 204.599C237.658 204.514 237.366 204.404 237.086 204.27C236.806 204.136 236.55 203.966 236.319 203.759C236.088 203.54 235.905 203.278 235.772 202.974C235.638 202.658 235.571 202.274 235.571 201.824C235.571 201.228 235.711 200.729 235.991 200.327C236.271 199.925 236.678 199.621 237.214 199.414C237.749 199.195 238.4 199.086 239.167 199.086C239.386 199.086 239.605 199.098 239.824 199.122C240.043 199.146 240.256 199.189 240.463 199.25C240.682 199.311 240.895 199.384 241.102 199.469C241.309 199.554 241.516 199.658 241.723 199.779C242.088 199.95 242.277 200.181 242.289 200.473C242.301 200.765 242.198 201.063 241.979 201.368C241.845 201.574 241.705 201.727 241.559 201.824C241.413 201.909 241.261 201.934 241.102 201.897C240.908 201.848 240.695 201.769 240.463 201.66C240.244 201.55 240.007 201.447 239.751 201.349C239.508 201.252 239.265 201.203 239.021 201.203C238.814 201.203 238.638 201.234 238.492 201.295C238.346 201.343 238.236 201.416 238.163 201.514C238.09 201.599 238.054 201.702 238.054 201.824C238.054 201.982 238.096 202.11 238.181 202.207C238.279 202.293 238.407 202.366 238.565 202.426C238.723 202.487 238.906 202.542 239.112 202.591C239.319 202.639 239.544 202.688 239.788 202.737C240.117 202.798 240.451 202.883 240.792 202.992C241.145 203.09 241.461 203.236 241.741 203.431C242.033 203.625 242.265 203.887 242.435 204.216C242.618 204.544 242.709 204.976 242.709 205.512C242.709 206.473 242.374 207.21 241.705 207.721C241.035 208.232 240.08 208.487 238.839 208.487ZM249.687 208.341C249.236 208.341 248.914 208.281 248.719 208.159C248.537 208.025 248.421 207.849 248.372 207.629C248.336 207.41 248.318 207.185 248.318 206.954V200.583C248.318 200.339 248.342 200.114 248.391 199.907C248.439 199.7 248.555 199.536 248.737 199.414C248.932 199.28 249.255 199.213 249.705 199.213C250.131 199.213 250.435 199.274 250.618 199.396C250.813 199.505 250.934 199.639 250.983 199.798C251.032 199.944 251.056 200.071 251.056 200.181L250.837 200.29C250.861 200.242 250.922 200.157 251.019 200.035C251.129 199.901 251.275 199.767 251.458 199.633C251.64 199.487 251.859 199.365 252.115 199.268C252.383 199.171 252.687 199.122 253.028 199.122C253.161 199.122 253.308 199.134 253.466 199.159C253.636 199.171 253.807 199.207 253.977 199.268C254.159 199.317 254.324 199.39 254.47 199.487C254.616 199.572 254.731 199.682 254.817 199.816C254.914 199.95 254.963 200.114 254.963 200.309C254.963 200.808 254.847 201.234 254.616 201.587C254.385 201.927 254.093 202.098 253.74 202.098C253.533 202.098 253.387 202.08 253.301 202.043C253.216 202.007 253.143 201.97 253.082 201.934C253.034 201.897 252.973 201.867 252.9 201.842C252.827 201.806 252.693 201.787 252.498 201.787C252.316 201.787 252.139 201.812 251.969 201.861C251.811 201.909 251.658 201.988 251.512 202.098C251.378 202.195 251.269 202.323 251.184 202.481C251.111 202.627 251.074 202.792 251.074 202.974V206.99C251.074 207.222 251.05 207.447 251.001 207.666C250.965 207.873 250.849 208.037 250.654 208.159C250.46 208.281 250.137 208.341 249.687 208.341ZM260.012 208.506C259.16 208.506 258.424 208.366 257.803 208.086C257.194 207.806 256.695 207.441 256.306 206.99C255.917 206.528 255.624 206.017 255.43 205.457C255.247 204.897 255.156 204.337 255.156 203.777C255.156 202.865 255.363 202.055 255.777 201.349C256.19 200.643 256.762 200.09 257.493 199.688C258.223 199.274 259.063 199.067 260.012 199.067C260.718 199.067 261.326 199.183 261.838 199.414C262.361 199.633 262.787 199.925 263.116 200.29C263.456 200.643 263.706 201.027 263.864 201.441C264.034 201.854 264.12 202.25 264.12 202.627C264.12 203.297 263.955 203.796 263.627 204.124C263.31 204.441 262.903 204.599 262.404 204.599H258.059C258.083 204.915 258.192 205.183 258.387 205.402C258.594 205.621 258.85 205.792 259.154 205.913C259.458 206.035 259.781 206.096 260.122 206.096C260.414 206.096 260.669 206.084 260.888 206.059C261.107 206.023 261.296 205.98 261.454 205.932C261.612 205.871 261.758 205.816 261.892 205.767C262.026 205.706 262.142 205.658 262.239 205.621C262.349 205.585 262.452 205.56 262.55 205.548C262.732 205.536 262.896 205.591 263.043 205.713C263.201 205.822 263.341 205.992 263.462 206.224C263.548 206.358 263.602 206.485 263.627 206.607C263.663 206.729 263.681 206.851 263.681 206.972C263.681 207.264 263.529 207.526 263.225 207.757C262.933 207.988 262.513 208.171 261.965 208.305C261.43 208.439 260.779 208.506 260.012 208.506ZM258.059 203.102H260.943C261.138 203.102 261.278 203.071 261.363 203.011C261.46 202.938 261.509 202.804 261.509 202.609C261.509 202.39 261.442 202.201 261.308 202.043C261.174 201.873 260.992 201.745 260.76 201.66C260.541 201.562 260.286 201.514 259.994 201.514C259.616 201.514 259.282 201.587 258.99 201.733C258.698 201.879 258.466 202.073 258.296 202.317C258.138 202.56 258.059 202.822 258.059 203.102ZM272.739 208.323C272.288 208.323 271.953 208.244 271.734 208.086C271.528 207.928 271.424 207.733 271.424 207.502L271.607 207.191C271.534 207.313 271.394 207.465 271.187 207.648C270.98 207.818 270.712 207.976 270.383 208.122C270.055 208.256 269.647 208.323 269.16 208.323C268.6 208.323 268.065 208.201 267.554 207.958C267.055 207.715 266.611 207.38 266.221 206.954C265.832 206.516 265.521 206.023 265.29 205.475C265.071 204.928 264.961 204.349 264.961 203.741C264.961 203.145 265.071 202.579 265.29 202.043C265.521 201.495 265.832 201.015 266.221 200.601C266.623 200.175 267.073 199.84 267.572 199.597C268.071 199.353 268.6 199.232 269.16 199.232C269.611 199.232 269.994 199.299 270.31 199.432C270.627 199.554 270.889 199.7 271.095 199.871C271.315 200.041 271.479 200.205 271.588 200.363L271.442 200.108C271.43 199.816 271.528 199.597 271.734 199.451C271.953 199.292 272.294 199.213 272.757 199.213C273.195 199.213 273.505 199.28 273.688 199.414C273.883 199.548 273.998 199.725 274.035 199.944C274.083 200.163 274.108 200.394 274.108 200.637V206.936C274.108 207.167 274.083 207.392 274.035 207.611C273.998 207.83 273.883 208.007 273.688 208.141C273.505 208.262 273.189 208.323 272.739 208.323ZM269.562 205.603C269.878 205.603 270.164 205.524 270.42 205.366C270.688 205.195 270.895 204.97 271.041 204.69C271.199 204.41 271.278 204.1 271.278 203.759C271.278 203.406 271.199 203.096 271.041 202.828C270.882 202.548 270.669 202.329 270.402 202.171C270.134 202 269.842 201.915 269.525 201.915C269.172 201.915 268.856 202 268.576 202.171C268.308 202.341 268.089 202.566 267.919 202.846C267.761 203.126 267.682 203.443 267.682 203.796C267.682 204.124 267.761 204.429 267.919 204.708C268.089 204.976 268.314 205.195 268.594 205.366C268.886 205.524 269.209 205.603 269.562 205.603ZM279.484 208.323C278.936 208.323 278.407 208.208 277.895 207.976C277.396 207.733 276.952 207.398 276.563 206.972C276.173 206.546 275.863 206.059 275.632 205.512C275.413 204.952 275.303 204.362 275.303 203.741C275.303 203.145 275.413 202.579 275.632 202.043C275.863 201.495 276.173 201.015 276.563 200.601C276.964 200.175 277.415 199.84 277.914 199.597C278.413 199.353 278.936 199.232 279.484 199.232C280.068 199.232 280.579 199.353 281.017 199.597C281.468 199.828 281.845 200.151 282.149 200.564C282.453 200.978 282.679 201.459 282.825 202.007C282.983 202.554 283.068 203.126 283.08 203.723C283.092 204.343 283.019 204.928 282.861 205.475C282.715 206.023 282.49 206.51 282.186 206.936C281.881 207.362 281.504 207.702 281.054 207.958C280.616 208.201 280.092 208.323 279.484 208.323ZM279.849 205.621C280.177 205.621 280.47 205.542 280.725 205.384C280.993 205.214 281.206 204.988 281.364 204.708C281.534 204.429 281.62 204.118 281.62 203.777C281.62 203.424 281.541 203.114 281.382 202.846C281.224 202.566 281.011 202.347 280.743 202.189C280.476 202.031 280.171 201.952 279.831 201.952C279.502 201.952 279.198 202.031 278.918 202.189C278.65 202.347 278.437 202.566 278.279 202.846C278.133 203.114 278.06 203.424 278.06 203.777C278.06 204.118 278.139 204.429 278.297 204.708C278.455 204.988 278.674 205.214 278.954 205.384C279.234 205.542 279.532 205.621 279.849 205.621ZM283.044 208.341C282.63 208.341 282.319 208.274 282.113 208.141C281.906 208.007 281.772 207.8 281.711 207.52V196.457C281.711 196.225 281.723 196.006 281.747 195.799C281.784 195.58 281.894 195.404 282.076 195.27C282.259 195.136 282.575 195.069 283.025 195.069C283.476 195.069 283.792 195.136 283.975 195.27C284.169 195.392 284.285 195.556 284.322 195.763C284.37 195.97 284.395 196.195 284.395 196.438V206.954C284.395 207.185 284.37 207.41 284.322 207.629C284.285 207.836 284.169 208.007 283.975 208.141C283.792 208.274 283.482 208.341 283.044 208.341ZM288.135 212.029C287.636 211.81 287.344 211.567 287.259 211.299C287.186 211.031 287.253 210.672 287.46 210.222L292.042 199.98C292.249 199.505 292.474 199.226 292.718 199.14C292.973 199.043 293.35 199.092 293.849 199.286C294.336 199.518 294.616 199.761 294.689 200.017C294.774 200.272 294.72 200.613 294.525 201.039L289.924 211.354C289.717 211.828 289.492 212.114 289.249 212.212C289.005 212.309 288.634 212.248 288.135 212.029ZM289.724 207.775L285.433 201.24C285.166 200.838 285.056 200.503 285.105 200.236C285.166 199.968 285.409 199.694 285.835 199.414C286.31 199.122 286.675 199.013 286.93 199.086C287.198 199.146 287.466 199.384 287.734 199.798L290.892 204.635L289.724 207.775Z" fill="#2B2B2B"/>
<path d="M150.57 242.321C149.45 242.321 148.49 242.086 147.69 241.617C146.89 241.148 146.271 240.481 145.834 239.617C145.407 238.742 145.194 237.713 145.194 236.529C145.194 235.644 145.317 234.849 145.562 234.145C145.807 233.43 146.159 232.822 146.618 232.321C147.077 231.809 147.637 231.42 148.298 231.153C148.97 230.886 149.727 230.753 150.57 230.753C151.21 230.753 151.823 230.844 152.41 231.025C153.007 231.206 153.519 231.462 153.946 231.793C154.117 231.91 154.229 232.044 154.282 232.193C154.335 232.342 154.341 232.486 154.298 232.625C154.266 232.753 154.197 232.865 154.09 232.961C153.994 233.046 153.871 233.094 153.722 233.105C153.573 233.105 153.413 233.046 153.242 232.929C152.869 232.641 152.458 232.433 152.01 232.305C151.573 232.166 151.103 232.097 150.602 232.097C149.781 232.097 149.082 232.273 148.506 232.625C147.941 232.966 147.509 233.468 147.21 234.129C146.922 234.78 146.778 235.58 146.778 236.529C146.778 237.468 146.922 238.273 147.21 238.945C147.509 239.606 147.941 240.113 148.506 240.465C149.082 240.806 149.781 240.977 150.602 240.977C151.103 240.977 151.578 240.908 152.026 240.769C152.485 240.63 152.906 240.417 153.29 240.129C153.461 240.012 153.615 239.958 153.754 239.969C153.903 239.98 154.026 240.028 154.122 240.113C154.218 240.188 154.282 240.294 154.314 240.433C154.357 240.561 154.357 240.694 154.314 240.833C154.271 240.972 154.175 241.094 154.026 241.201C153.589 241.574 153.066 241.857 152.458 242.049C151.861 242.23 151.231 242.321 150.57 242.321ZM158.663 242.321C157.863 242.321 157.255 242.086 156.839 241.617C156.423 241.137 156.215 240.449 156.215 239.553V231.521C156.215 231.276 156.279 231.094 156.407 230.977C156.535 230.849 156.711 230.785 156.935 230.785C157.17 230.785 157.351 230.849 157.479 230.977C157.607 231.094 157.671 231.276 157.671 231.521V239.441C157.671 239.996 157.783 240.412 158.007 240.689C158.242 240.956 158.572 241.089 158.999 241.089C159.095 241.089 159.18 241.089 159.255 241.089C159.33 241.078 159.404 241.068 159.479 241.057C159.596 241.046 159.682 241.078 159.735 241.153C159.788 241.228 159.815 241.377 159.815 241.601C159.815 241.804 159.767 241.964 159.671 242.081C159.586 242.188 159.442 242.257 159.239 242.289C159.143 242.3 159.047 242.305 158.951 242.305C158.855 242.316 158.759 242.321 158.663 242.321ZM161.747 242.257C161.523 242.257 161.347 242.188 161.219 242.049C161.091 241.91 161.027 241.718 161.027 241.473V235.089C161.027 234.833 161.091 234.641 161.219 234.513C161.347 234.374 161.523 234.305 161.747 234.305C161.982 234.305 162.163 234.374 162.291 234.513C162.419 234.641 162.483 234.833 162.483 235.089V241.473C162.483 241.718 162.419 241.91 162.291 242.049C162.174 242.188 161.993 242.257 161.747 242.257ZM161.747 232.577C161.459 232.577 161.23 232.502 161.059 232.353C160.899 232.193 160.819 231.985 160.819 231.729C160.819 231.452 160.899 231.244 161.059 231.105C161.23 230.956 161.459 230.881 161.747 230.881C162.057 230.881 162.286 230.956 162.435 231.105C162.595 231.244 162.675 231.452 162.675 231.729C162.675 231.985 162.595 232.193 162.435 232.353C162.286 232.502 162.057 232.577 161.747 232.577ZM168.2 242.321C167.411 242.321 166.728 242.156 166.152 241.825C165.576 241.484 165.134 241.009 164.824 240.401C164.515 239.782 164.36 239.057 164.36 238.225C164.36 237.606 164.446 237.052 164.616 236.561C164.798 236.07 165.054 235.654 165.384 235.313C165.715 234.961 166.115 234.694 166.584 234.513C167.064 234.332 167.603 234.241 168.2 234.241C168.574 234.241 168.968 234.3 169.384 234.417C169.8 234.534 170.184 234.726 170.536 234.993C170.654 235.078 170.728 235.18 170.76 235.297C170.792 235.404 170.792 235.516 170.76 235.633C170.739 235.75 170.686 235.852 170.6 235.937C170.526 236.012 170.424 236.054 170.296 236.065C170.179 236.076 170.051 236.038 169.912 235.953C169.656 235.761 169.384 235.622 169.096 235.537C168.819 235.452 168.552 235.409 168.296 235.409C167.902 235.409 167.55 235.473 167.24 235.601C166.942 235.729 166.686 235.916 166.472 236.161C166.27 236.396 166.115 236.689 166.008 237.041C165.902 237.382 165.848 237.782 165.848 238.241C165.848 239.148 166.062 239.862 166.488 240.385C166.915 240.897 167.518 241.153 168.296 241.153C168.552 241.153 168.819 241.116 169.096 241.041C169.374 240.956 169.646 240.817 169.912 240.625C170.051 240.54 170.179 240.508 170.296 240.529C170.414 240.54 170.51 240.588 170.584 240.673C170.67 240.748 170.723 240.844 170.744 240.961C170.766 241.068 170.755 241.18 170.712 241.297C170.68 241.414 170.606 241.51 170.488 241.585C170.147 241.841 169.774 242.028 169.368 242.145C168.963 242.262 168.574 242.321 168.2 242.321ZM172.982 242.289C172.758 242.289 172.582 242.225 172.454 242.097C172.326 241.969 172.262 241.782 172.262 241.537V231.521C172.262 231.276 172.326 231.094 172.454 230.977C172.582 230.849 172.758 230.785 172.982 230.785C173.216 230.785 173.398 230.849 173.526 230.977C173.654 231.094 173.718 231.276 173.718 231.521V237.825H173.75L176.886 234.769C177.046 234.609 177.19 234.486 177.318 234.401C177.446 234.316 177.611 234.273 177.814 234.273C178.016 234.273 178.171 234.326 178.278 234.433C178.384 234.529 178.438 234.657 178.438 234.817C178.438 234.966 178.363 235.116 178.214 235.265L174.886 238.497V237.777L178.518 241.281C178.667 241.43 178.736 241.585 178.726 241.745C178.726 241.905 178.667 242.038 178.55 242.145C178.443 242.241 178.299 242.289 178.118 242.289C177.904 242.289 177.728 242.246 177.59 242.161C177.462 242.076 177.312 241.942 177.142 241.761L173.75 238.561H173.718V241.537C173.718 242.038 173.472 242.289 172.982 242.289ZM187.791 242.321C187.161 242.321 186.633 242.209 186.207 241.985C185.791 241.761 185.476 241.436 185.263 241.009C185.06 240.582 184.959 240.06 184.959 239.441V235.505H183.935C183.743 235.505 183.593 235.457 183.487 235.361C183.38 235.254 183.327 235.116 183.327 234.945C183.327 234.764 183.38 234.625 183.487 234.529C183.593 234.433 183.743 234.385 183.935 234.385H184.959V232.641C184.959 232.396 185.023 232.214 185.151 232.097C185.279 231.969 185.46 231.905 185.695 231.905C185.929 231.905 186.105 231.969 186.223 232.097C186.351 232.214 186.415 232.396 186.415 232.641V234.385H188.351C188.553 234.385 188.708 234.433 188.815 234.529C188.921 234.625 188.975 234.764 188.975 234.945C188.975 235.116 188.921 235.254 188.815 235.361C188.708 235.457 188.553 235.505 188.351 235.505H186.415V239.313C186.415 239.9 186.537 240.342 186.783 240.641C187.028 240.94 187.433 241.089 187.999 241.089C188.201 241.089 188.372 241.073 188.511 241.041C188.649 240.998 188.772 240.977 188.879 240.977C188.975 240.966 189.055 240.998 189.119 241.073C189.193 241.148 189.231 241.286 189.231 241.489C189.231 241.638 189.204 241.777 189.151 241.905C189.108 242.022 189.017 242.102 188.879 242.145C188.751 242.188 188.58 242.225 188.367 242.257C188.153 242.3 187.961 242.321 187.791 242.321ZM193.527 242.321C192.759 242.321 192.092 242.156 191.527 241.825C190.962 241.494 190.524 241.025 190.215 240.417C189.906 239.809 189.751 239.094 189.751 238.273C189.751 237.654 189.836 237.1 190.007 236.609C190.188 236.108 190.444 235.681 190.775 235.329C191.106 234.977 191.5 234.71 191.959 234.529C192.428 234.337 192.951 234.241 193.527 234.241C194.295 234.241 194.962 234.406 195.527 234.737C196.092 235.068 196.53 235.537 196.839 236.145C197.148 236.742 197.303 237.452 197.303 238.273C197.303 238.892 197.212 239.452 197.031 239.953C196.86 240.454 196.61 240.881 196.279 241.233C195.948 241.585 195.548 241.857 195.079 242.049C194.62 242.23 194.103 242.321 193.527 242.321ZM193.527 241.169C193.996 241.169 194.402 241.057 194.743 240.833C195.095 240.609 195.362 240.284 195.543 239.857C195.735 239.43 195.831 238.902 195.831 238.273C195.831 237.334 195.623 236.62 195.207 236.129C194.791 235.638 194.231 235.393 193.527 235.393C193.068 235.393 192.663 235.505 192.311 235.729C191.97 235.942 191.703 236.262 191.511 236.689C191.319 237.116 191.223 237.644 191.223 238.273C191.223 239.212 191.431 239.932 191.847 240.433C192.274 240.924 192.834 241.169 193.527 241.169ZM204.06 245.169C203.836 245.169 203.66 245.105 203.532 244.977C203.404 244.849 203.34 244.668 203.34 244.433V235.009C203.34 234.764 203.404 234.582 203.532 234.465C203.66 234.337 203.836 234.273 204.06 234.273C204.295 234.273 204.471 234.337 204.588 234.465C204.716 234.582 204.78 234.764 204.78 235.009V236.465L204.604 236.177C204.775 235.59 205.111 235.121 205.612 234.769C206.113 234.417 206.716 234.241 207.42 234.241C208.113 234.241 208.716 234.406 209.228 234.737C209.74 235.057 210.14 235.521 210.428 236.129C210.716 236.726 210.86 237.441 210.86 238.273C210.86 239.094 210.716 239.814 210.428 240.433C210.151 241.041 209.751 241.51 209.228 241.841C208.716 242.161 208.113 242.321 207.42 242.321C206.727 242.321 206.129 242.145 205.628 241.793C205.127 241.441 204.791 240.977 204.62 240.401H204.796V244.433C204.796 244.668 204.732 244.849 204.604 244.977C204.476 245.105 204.295 245.169 204.06 245.169ZM207.084 241.169C207.543 241.169 207.943 241.057 208.284 240.833C208.636 240.609 208.908 240.284 209.1 239.857C209.292 239.43 209.388 238.902 209.388 238.273C209.388 237.334 209.18 236.62 208.764 236.129C208.348 235.638 207.788 235.393 207.084 235.393C206.615 235.393 206.204 235.505 205.852 235.729C205.511 235.942 205.244 236.262 205.052 236.689C204.871 237.116 204.78 237.644 204.78 238.273C204.78 239.212 204.988 239.932 205.404 240.433C205.82 240.924 206.38 241.169 207.084 241.169ZM213.483 242.289C213.237 242.289 213.051 242.225 212.923 242.097C212.795 241.969 212.731 241.782 212.731 241.537V235.009C212.731 234.764 212.795 234.582 212.923 234.465C213.051 234.337 213.227 234.273 213.451 234.273C213.675 234.273 213.845 234.337 213.963 234.465C214.091 234.582 214.155 234.764 214.155 235.009V236.241H213.995C214.165 235.601 214.485 235.116 214.955 234.785C215.424 234.454 216.016 234.268 216.731 234.225C216.901 234.214 217.04 234.257 217.147 234.353C217.253 234.438 217.312 234.588 217.323 234.801C217.333 235.004 217.285 235.169 217.179 235.297C217.072 235.414 216.907 235.484 216.683 235.505L216.395 235.521C215.691 235.596 215.147 235.825 214.763 236.209C214.389 236.593 214.203 237.121 214.203 237.793V241.537C214.203 241.782 214.139 241.969 214.011 242.097C213.893 242.225 213.717 242.289 213.483 242.289ZM222.065 242.321C221.222 242.321 220.497 242.161 219.889 241.841C219.292 241.51 218.828 241.046 218.497 240.449C218.166 239.841 218.001 239.126 218.001 238.305C218.001 237.494 218.161 236.785 218.481 236.177C218.812 235.569 219.26 235.094 219.825 234.753C220.401 234.412 221.057 234.241 221.793 234.241C222.316 234.241 222.785 234.332 223.201 234.513C223.628 234.684 223.99 234.934 224.289 235.265C224.588 235.596 224.812 236.001 224.961 236.481C225.121 236.95 225.201 237.484 225.201 238.081C225.201 238.252 225.148 238.385 225.041 238.481C224.945 238.566 224.801 238.609 224.609 238.609H219.137V237.681H224.241L223.969 237.905C223.969 237.35 223.884 236.881 223.713 236.497C223.553 236.102 223.313 235.804 222.993 235.601C222.684 235.398 222.294 235.297 221.825 235.297C221.313 235.297 220.876 235.42 220.513 235.665C220.15 235.9 219.873 236.236 219.681 236.673C219.489 237.1 219.393 237.596 219.393 238.161V238.257C219.393 239.217 219.622 239.942 220.081 240.433C220.54 240.924 221.201 241.169 222.065 241.169C222.406 241.169 222.753 241.126 223.105 241.041C223.468 240.956 223.814 240.801 224.145 240.577C224.305 240.481 224.449 240.438 224.577 240.449C224.716 240.449 224.828 240.492 224.913 240.577C224.998 240.652 225.052 240.748 225.073 240.865C225.094 240.972 225.078 241.089 225.025 241.217C224.972 241.345 224.87 241.457 224.721 241.553C224.369 241.798 223.948 241.99 223.457 242.129C222.977 242.257 222.513 242.321 222.065 242.321ZM229.862 242.289C229.66 242.289 229.484 242.236 229.334 242.129C229.185 242.022 229.057 241.852 228.95 241.617L226.23 235.281C226.156 235.1 226.129 234.934 226.15 234.785C226.172 234.636 226.241 234.513 226.358 234.417C226.486 234.321 226.657 234.273 226.87 234.273C227.052 234.273 227.196 234.316 227.302 234.401C227.409 234.486 227.51 234.636 227.606 234.849L230.118 241.041H229.67L232.246 234.849C232.332 234.636 232.428 234.486 232.534 234.401C232.652 234.316 232.812 234.273 233.014 234.273C233.196 234.273 233.334 234.321 233.43 234.417C233.537 234.513 233.601 234.636 233.622 234.785C233.644 234.934 233.612 235.094 233.526 235.265L230.79 241.617C230.694 241.852 230.566 242.022 230.406 242.129C230.257 242.236 230.076 242.289 229.862 242.289ZM235.904 242.257C235.68 242.257 235.504 242.188 235.376 242.049C235.248 241.91 235.184 241.718 235.184 241.473V235.089C235.184 234.833 235.248 234.641 235.376 234.513C235.504 234.374 235.68 234.305 235.904 234.305C236.138 234.305 236.32 234.374 236.448 234.513C236.576 234.641 236.64 234.833 236.64 235.089V241.473C236.64 241.718 236.576 241.91 236.448 242.049C236.33 242.188 236.149 242.257 235.904 242.257ZM235.904 232.577C235.616 232.577 235.386 232.502 235.216 232.353C235.056 232.193 234.976 231.985 234.976 231.729C234.976 231.452 235.056 231.244 235.216 231.105C235.386 230.956 235.616 230.881 235.904 230.881C236.213 230.881 236.442 230.956 236.592 231.105C236.752 231.244 236.832 231.452 236.832 231.729C236.832 231.985 236.752 232.193 236.592 232.353C236.442 232.502 236.213 232.577 235.904 232.577ZM242.581 242.321C241.738 242.321 241.013 242.161 240.405 241.841C239.807 241.51 239.343 241.046 239.013 240.449C238.682 239.841 238.517 239.126 238.517 238.305C238.517 237.494 238.677 236.785 238.997 236.177C239.327 235.569 239.775 235.094 240.341 234.753C240.917 234.412 241.573 234.241 242.309 234.241C242.831 234.241 243.301 234.332 243.717 234.513C244.143 234.684 244.506 234.934 244.805 235.265C245.103 235.596 245.327 236.001 245.477 236.481C245.637 236.95 245.717 237.484 245.717 238.081C245.717 238.252 245.663 238.385 245.557 238.481C245.461 238.566 245.317 238.609 245.125 238.609H239.653V237.681H244.757L244.485 237.905C244.485 237.35 244.399 236.881 244.229 236.497C244.069 236.102 243.829 235.804 243.509 235.601C243.199 235.398 242.81 235.297 242.341 235.297C241.829 235.297 241.391 235.42 241.029 235.665C240.666 235.9 240.389 236.236 240.197 236.673C240.005 237.1 239.909 237.596 239.909 238.161V238.257C239.909 239.217 240.138 239.942 240.597 240.433C241.055 240.924 241.717 241.169 242.581 241.169C242.922 241.169 243.269 241.126 243.621 241.041C243.983 240.956 244.33 240.801 244.661 240.577C244.821 240.481 244.965 240.438 245.093 240.449C245.231 240.449 245.343 240.492 245.429 240.577C245.514 240.652 245.567 240.748 245.589 240.865C245.61 240.972 245.594 241.089 245.541 241.217C245.487 241.345 245.386 241.457 245.237 241.553C244.885 241.798 244.463 241.99 243.973 242.129C243.493 242.257 243.029 242.321 242.581 242.321ZM250.186 242.289C249.983 242.289 249.807 242.241 249.658 242.145C249.509 242.038 249.391 241.868 249.306 241.633L246.922 235.281C246.847 235.078 246.826 234.902 246.858 234.753C246.89 234.604 246.965 234.486 247.082 234.401C247.199 234.316 247.354 234.273 247.546 234.273C247.727 234.273 247.871 234.316 247.978 234.401C248.085 234.486 248.175 234.641 248.25 234.865L250.426 241.009H250.042L252.282 234.833C252.357 234.641 252.453 234.502 252.57 234.417C252.698 234.321 252.853 234.273 253.034 234.273C253.226 234.273 253.386 234.321 253.514 234.417C253.642 234.502 253.733 234.641 253.786 234.833L255.994 241.009H255.626L257.834 234.833C257.909 234.62 258.005 234.476 258.122 234.401C258.239 234.316 258.383 234.273 258.554 234.273C258.746 234.273 258.89 234.321 258.986 234.417C259.082 234.513 259.135 234.641 259.146 234.801C259.167 234.95 259.146 235.11 259.082 235.281L256.698 241.633C256.623 241.857 256.506 242.022 256.346 242.129C256.197 242.236 256.021 242.289 255.818 242.289C255.615 242.289 255.434 242.236 255.274 242.129C255.125 242.022 255.007 241.857 254.922 241.633L252.634 235.361H253.37L251.082 241.633C250.997 241.857 250.879 242.022 250.73 242.129C250.581 242.236 250.399 242.289 250.186 242.289Z" fill="#558978"/>
<rect x="108" y="268.177" width="187" height="43" rx="5" fill="#2B6C57"/>
<path d="M152.026 295.317C151.867 295.317 151.741 295.289 151.648 295.233C151.564 295.177 151.503 295.102 151.466 295.009C151.429 294.906 151.41 294.794 151.41 294.673V286.161C151.41 286.04 151.424 285.932 151.452 285.839C151.489 285.746 151.555 285.671 151.648 285.615C151.741 285.559 151.872 285.531 152.04 285.531L154.798 285.545C155.489 285.545 156.114 285.662 156.674 285.895C157.243 286.119 157.729 286.441 158.13 286.861C158.531 287.281 158.839 287.79 159.054 288.387C159.269 288.984 159.376 289.647 159.376 290.375C159.376 291.131 159.269 291.812 159.054 292.419C158.839 293.026 158.527 293.544 158.116 293.973C157.715 294.402 157.229 294.734 156.66 294.967C156.091 295.2 155.456 295.317 154.756 295.317H152.026ZM152.67 294.043H154.798C155.479 294.043 156.067 293.898 156.562 293.609C157.057 293.31 157.439 292.895 157.71 292.363C157.981 291.822 158.116 291.182 158.116 290.445C158.116 289.698 157.981 289.054 157.71 288.513C157.439 287.972 157.052 287.556 156.548 287.267C156.053 286.968 155.465 286.819 154.784 286.819H152.67V294.043ZM164.141 295.401C163.684 295.401 163.245 295.312 162.825 295.135C162.415 294.958 162.046 294.715 161.719 294.407C161.393 294.09 161.136 293.721 160.949 293.301C160.763 292.881 160.669 292.424 160.669 291.929C160.669 291.444 160.758 290.996 160.935 290.585C161.113 290.165 161.36 289.796 161.677 289.479C161.995 289.162 162.359 288.914 162.769 288.737C163.189 288.55 163.637 288.457 164.113 288.457C164.757 288.457 165.336 288.611 165.849 288.919C166.372 289.218 166.787 289.628 167.095 290.151C167.403 290.674 167.557 291.262 167.557 291.915C167.557 292.428 167.464 292.9 167.277 293.329C167.091 293.749 166.839 294.113 166.521 294.421C166.204 294.729 165.84 294.972 165.429 295.149C165.019 295.317 164.589 295.401 164.141 295.401ZM164.113 294.183C164.505 294.183 164.869 294.085 165.205 293.889C165.541 293.693 165.812 293.422 166.017 293.077C166.223 292.732 166.325 292.34 166.325 291.901C166.325 291.462 166.227 291.075 166.031 290.739C165.845 290.403 165.583 290.142 165.247 289.955C164.911 289.768 164.529 289.675 164.099 289.675C163.689 289.675 163.315 289.773 162.979 289.969C162.653 290.165 162.387 290.431 162.181 290.767C161.985 291.103 161.887 291.486 161.887 291.915C161.887 292.363 161.99 292.76 162.195 293.105C162.401 293.441 162.671 293.707 163.007 293.903C163.353 294.09 163.721 294.183 164.113 294.183ZM170.988 295.275C170.848 295.275 170.736 295.252 170.652 295.205C170.577 295.168 170.517 295.116 170.47 295.051C170.433 294.976 170.405 294.897 170.386 294.813L168.216 289.297C168.169 289.157 168.146 289.04 168.146 288.947C168.155 288.854 168.193 288.774 168.258 288.709C168.333 288.644 168.44 288.588 168.58 288.541C168.804 288.457 168.977 288.438 169.098 288.485C169.219 288.522 169.317 288.644 169.392 288.849L170.988 293.105L172.472 288.947C172.5 288.872 172.533 288.802 172.57 288.737C172.617 288.662 172.682 288.602 172.766 288.555C172.85 288.508 172.957 288.485 173.088 288.485C173.237 288.485 173.349 288.508 173.424 288.555C173.508 288.602 173.573 288.658 173.62 288.723C173.676 288.788 173.713 288.858 173.732 288.933L175.202 293.133L176.798 288.919C176.882 288.695 176.985 288.55 177.106 288.485C177.237 288.42 177.414 288.429 177.638 288.513C177.834 288.578 177.965 288.672 178.03 288.793C178.095 288.914 178.081 289.087 177.988 289.311L175.818 294.827C175.79 294.902 175.753 294.976 175.706 295.051C175.669 295.116 175.608 295.168 175.524 295.205C175.449 295.252 175.347 295.275 175.216 295.275C175.085 295.275 174.983 295.256 174.908 295.219C174.833 295.182 174.773 295.126 174.726 295.051C174.679 294.967 174.637 294.878 174.6 294.785L173.102 290.473L171.59 294.785C171.553 294.897 171.511 294.99 171.464 295.065C171.427 295.14 171.371 295.191 171.296 295.219C171.221 295.256 171.119 295.275 170.988 295.275ZM179.93 295.303C179.752 295.303 179.617 295.275 179.524 295.219C179.44 295.172 179.384 295.102 179.356 295.009C179.337 294.916 179.328 294.804 179.328 294.673V289.115C179.328 288.994 179.342 288.891 179.37 288.807C179.398 288.723 179.454 288.658 179.538 288.611C179.631 288.564 179.766 288.541 179.944 288.541C180.084 288.541 180.191 288.56 180.266 288.597C180.35 288.625 180.406 288.667 180.434 288.723C180.471 288.779 180.494 288.84 180.504 288.905C180.513 288.97 180.518 289.031 180.518 289.087L180.49 289.731C180.583 289.572 180.7 289.423 180.84 289.283C180.98 289.134 181.143 289.003 181.33 288.891C181.516 288.77 181.717 288.676 181.932 288.611C182.156 288.546 182.394 288.513 182.646 288.513C183.056 288.513 183.434 288.588 183.78 288.737C184.125 288.877 184.419 289.087 184.662 289.367C184.914 289.638 185.105 289.964 185.236 290.347C185.376 290.73 185.446 291.164 185.446 291.649V294.687C185.446 294.818 185.432 294.93 185.404 295.023C185.385 295.116 185.329 295.186 185.236 295.233C185.152 295.28 185.021 295.303 184.844 295.303C184.657 295.303 184.517 295.275 184.424 295.219C184.34 295.172 184.284 295.102 184.256 295.009C184.228 294.916 184.214 294.804 184.214 294.673V291.635C184.214 291.243 184.148 290.902 184.018 290.613C183.887 290.324 183.691 290.1 183.43 289.941C183.168 289.773 182.837 289.689 182.436 289.689C182.053 289.689 181.717 289.773 181.428 289.941C181.148 290.1 180.928 290.324 180.77 290.613C180.62 290.902 180.546 291.243 180.546 291.635V294.687C180.546 294.818 180.532 294.93 180.504 295.023C180.476 295.116 180.415 295.186 180.322 295.233C180.238 295.28 180.107 295.303 179.93 295.303ZM189.235 295.317C188.936 295.317 188.665 295.289 188.423 295.233C188.189 295.186 187.984 295.107 187.807 294.995C187.629 294.883 187.48 294.738 187.359 294.561C187.247 294.384 187.163 294.169 187.107 293.917C187.06 293.665 187.037 293.371 187.037 293.035V286.035C187.037 285.895 187.046 285.778 187.065 285.685C187.093 285.592 187.153 285.522 187.247 285.475C187.34 285.419 187.471 285.391 187.639 285.391C187.825 285.391 187.961 285.414 188.045 285.461C188.138 285.508 188.199 285.578 188.227 285.671C188.255 285.764 188.269 285.876 188.269 286.007V293.021C188.269 293.208 188.287 293.371 188.325 293.511C188.362 293.642 188.418 293.754 188.493 293.847C188.577 293.94 188.679 294.006 188.801 294.043C188.922 294.08 189.067 294.099 189.235 294.099C189.347 294.099 189.44 294.113 189.515 294.141C189.599 294.169 189.664 294.225 189.711 294.309C189.757 294.393 189.781 294.524 189.781 294.701C189.781 294.888 189.757 295.028 189.711 295.121C189.664 295.205 189.599 295.256 189.515 295.275C189.44 295.303 189.347 295.317 189.235 295.317ZM194.11 295.401C193.653 295.401 193.214 295.312 192.794 295.135C192.383 294.958 192.015 294.715 191.688 294.407C191.361 294.09 191.105 293.721 190.918 293.301C190.731 292.881 190.638 292.424 190.638 291.929C190.638 291.444 190.727 290.996 190.904 290.585C191.081 290.165 191.329 289.796 191.646 289.479C191.963 289.162 192.327 288.914 192.738 288.737C193.158 288.55 193.606 288.457 194.082 288.457C194.726 288.457 195.305 288.611 195.818 288.919C196.341 289.218 196.756 289.628 197.064 290.151C197.372 290.674 197.526 291.262 197.526 291.915C197.526 292.428 197.433 292.9 197.246 293.329C197.059 293.749 196.807 294.113 196.49 294.421C196.173 294.729 195.809 294.972 195.398 295.149C194.987 295.317 194.558 295.401 194.11 295.401ZM194.082 294.183C194.474 294.183 194.838 294.085 195.174 293.889C195.51 293.693 195.781 293.422 195.986 293.077C196.191 292.732 196.294 292.34 196.294 291.901C196.294 291.462 196.196 291.075 196 290.739C195.813 290.403 195.552 290.142 195.216 289.955C194.88 289.768 194.497 289.675 194.068 289.675C193.657 289.675 193.284 289.773 192.948 289.969C192.621 290.165 192.355 290.431 192.15 290.767C191.954 291.103 191.856 291.486 191.856 291.915C191.856 292.363 191.959 292.76 192.164 293.105C192.369 293.441 192.64 293.707 192.976 293.903C193.321 294.09 193.69 294.183 194.082 294.183ZM204.646 295.303C204.441 295.303 204.291 295.261 204.198 295.177C204.114 295.093 204.063 294.962 204.044 294.785L204.1 294.085C204.007 294.234 203.862 294.407 203.666 294.603C203.47 294.79 203.213 294.958 202.896 295.107C202.579 295.247 202.191 295.317 201.734 295.317C201.286 295.317 200.866 295.228 200.474 295.051C200.091 294.874 199.751 294.626 199.452 294.309C199.163 293.992 198.934 293.628 198.766 293.217C198.607 292.806 198.528 292.368 198.528 291.901C198.528 291.444 198.607 291.014 198.766 290.613C198.934 290.202 199.167 289.843 199.466 289.535C199.765 289.227 200.105 288.984 200.488 288.807C200.88 288.63 201.295 288.541 201.734 288.541C202.145 288.541 202.495 288.597 202.784 288.709C203.073 288.812 203.321 288.952 203.526 289.129C203.741 289.297 203.927 289.488 204.086 289.703L204.058 289.115C204.049 288.91 204.091 288.765 204.184 288.681C204.287 288.588 204.445 288.541 204.66 288.541C204.837 288.541 204.963 288.569 205.038 288.625C205.122 288.681 205.178 288.76 205.206 288.863C205.234 288.966 205.248 289.092 205.248 289.241V294.645C205.248 294.776 205.234 294.892 205.206 294.995C205.178 295.098 205.122 295.172 205.038 295.219C204.954 295.275 204.823 295.303 204.646 295.303ZM201.944 294.141C202.317 294.141 202.658 294.043 202.966 293.847C203.283 293.651 203.531 293.39 203.708 293.063C203.895 292.727 203.988 292.344 203.988 291.915C203.988 291.476 203.89 291.094 203.694 290.767C203.507 290.431 203.255 290.17 202.938 289.983C202.63 289.787 202.289 289.689 201.916 289.689C201.477 289.689 201.095 289.792 200.768 289.997C200.451 290.193 200.199 290.459 200.012 290.795C199.825 291.131 199.732 291.514 199.732 291.943C199.732 292.363 199.825 292.741 200.012 293.077C200.199 293.404 200.455 293.665 200.782 293.861C201.118 294.048 201.505 294.141 201.944 294.141ZM209.843 295.317C209.423 295.317 209.022 295.233 208.639 295.065C208.256 294.897 207.92 294.659 207.631 294.351C207.351 294.043 207.127 293.684 206.959 293.273C206.8 292.853 206.721 292.396 206.721 291.901C206.721 291.416 206.8 290.968 206.959 290.557C207.127 290.146 207.351 289.792 207.631 289.493C207.92 289.185 208.256 288.947 208.639 288.779C209.022 288.611 209.423 288.527 209.843 288.527C210.3 288.527 210.711 288.611 211.075 288.779C211.448 288.947 211.766 289.185 212.027 289.493C212.298 289.792 212.503 290.151 212.643 290.571C212.783 290.982 212.853 291.43 212.853 291.915C212.862 292.41 212.792 292.862 212.643 293.273C212.503 293.684 212.302 294.043 212.041 294.351C211.78 294.659 211.462 294.897 211.089 295.065C210.725 295.233 210.31 295.317 209.843 295.317ZM210.025 294.127C210.417 294.127 210.767 294.034 211.075 293.847C211.392 293.66 211.64 293.404 211.817 293.077C212.004 292.741 212.097 292.358 212.097 291.929C212.097 291.49 212.004 291.108 211.817 290.781C211.64 290.445 211.392 290.184 211.075 289.997C210.767 289.81 210.417 289.717 210.025 289.717C209.633 289.717 209.278 289.81 208.961 289.997C208.644 290.184 208.392 290.445 208.205 290.781C208.028 291.108 207.939 291.49 207.939 291.929C207.939 292.358 208.028 292.741 208.205 293.077C208.392 293.404 208.644 293.66 208.961 293.847C209.288 294.034 209.642 294.127 210.025 294.127ZM212.769 295.317C212.564 295.317 212.414 295.28 212.321 295.205C212.228 295.13 212.172 295.004 212.153 294.827V286.063C212.153 285.923 212.162 285.806 212.181 285.713C212.209 285.62 212.265 285.55 212.349 285.503C212.442 285.447 212.578 285.419 212.755 285.419C212.932 285.419 213.063 285.447 213.147 285.503C213.24 285.55 213.301 285.62 213.329 285.713C213.357 285.806 213.371 285.918 213.371 286.049V294.673C213.371 294.804 213.357 294.92 213.329 295.023C213.301 295.116 213.245 295.186 213.161 295.233C213.077 295.289 212.946 295.317 212.769 295.317ZM219.389 295.317C219.221 295.317 219.09 295.289 218.997 295.233C218.913 295.177 218.852 295.102 218.815 295.009C218.778 294.906 218.759 294.794 218.759 294.673V286.161C218.759 286.04 218.778 285.937 218.815 285.853C218.852 285.76 218.918 285.685 219.011 285.629C219.104 285.573 219.24 285.545 219.417 285.545C219.557 285.545 219.669 285.554 219.753 285.573C219.837 285.592 219.902 285.62 219.949 285.657C220.005 285.685 220.061 285.732 220.117 285.797L223.771 291.089H223.337L227.033 285.755C227.089 285.69 227.145 285.643 227.201 285.615C227.257 285.587 227.327 285.568 227.411 285.559C227.504 285.55 227.612 285.545 227.733 285.545C227.91 285.545 228.041 285.573 228.125 285.629C228.218 285.685 228.284 285.764 228.321 285.867C228.358 285.96 228.377 286.068 228.377 286.189V294.701C228.377 294.813 228.358 294.916 228.321 295.009C228.284 295.102 228.218 295.177 228.125 295.233C228.032 295.289 227.896 295.317 227.719 295.317C227.551 295.317 227.42 295.289 227.327 295.233C227.243 295.177 227.182 295.102 227.145 295.009C227.117 294.906 227.103 294.794 227.103 294.673V287.645L224.107 292.055C224.079 292.102 224.042 292.148 223.995 292.195C223.948 292.232 223.888 292.265 223.813 292.293C223.748 292.321 223.664 292.335 223.561 292.335C223.449 292.335 223.36 292.321 223.295 292.293C223.239 292.265 223.188 292.232 223.141 292.195C223.094 292.148 223.048 292.097 223.001 292.041L220.019 287.659V294.701C220.019 294.813 220 294.916 219.963 295.009C219.935 295.102 219.874 295.177 219.781 295.233C219.697 295.289 219.566 295.317 219.389 295.317ZM233.42 295.387C232.86 295.387 232.36 295.294 231.922 295.107C231.483 294.92 231.11 294.668 230.802 294.351C230.503 294.024 230.274 293.651 230.116 293.231C229.957 292.811 229.878 292.358 229.878 291.873C229.878 291.229 230.027 290.655 230.326 290.151C230.624 289.647 231.035 289.25 231.558 288.961C232.09 288.662 232.696 288.513 233.378 288.513C233.844 288.513 234.26 288.588 234.624 288.737C234.997 288.877 235.314 289.068 235.576 289.311C235.837 289.554 236.038 289.824 236.178 290.123C236.318 290.422 236.388 290.72 236.388 291.019C236.388 291.495 236.276 291.831 236.052 292.027C235.828 292.214 235.552 292.307 235.226 292.307H231.18C231.17 292.718 231.278 293.072 231.502 293.371C231.735 293.66 232.024 293.884 232.37 294.043C232.724 294.202 233.079 294.281 233.434 294.281C233.695 294.281 233.919 294.267 234.106 294.239C234.292 294.211 234.456 294.174 234.596 294.127C234.736 294.08 234.857 294.034 234.96 293.987C235.062 293.94 235.151 293.894 235.226 293.847C235.31 293.8 235.389 293.768 235.464 293.749C235.548 293.73 235.627 293.74 235.702 293.777C235.786 293.805 235.851 293.866 235.898 293.959C235.954 294.034 235.991 294.104 236.01 294.169C236.028 294.234 236.038 294.304 236.038 294.379C236.038 294.51 235.926 294.654 235.702 294.813C235.478 294.972 235.165 295.107 234.764 295.219C234.372 295.331 233.924 295.387 233.42 295.387ZM231.18 291.481H234.694C234.871 291.481 235.002 291.458 235.086 291.411C235.179 291.364 235.226 291.238 235.226 291.033C235.226 290.772 235.146 290.538 234.988 290.333C234.829 290.118 234.61 289.946 234.33 289.815C234.059 289.684 233.746 289.619 233.392 289.619C232.981 289.619 232.603 289.703 232.258 289.871C231.922 290.03 231.656 290.249 231.46 290.529C231.264 290.809 231.17 291.126 231.18 291.481ZM238.404 295.303C238.227 295.303 238.092 295.275 237.998 295.219C237.914 295.172 237.858 295.102 237.83 295.009C237.812 294.916 237.802 294.804 237.802 294.673V289.115C237.802 288.994 237.816 288.891 237.844 288.807C237.872 288.723 237.928 288.658 238.012 288.611C238.106 288.564 238.241 288.541 238.418 288.541C238.558 288.541 238.666 288.56 238.74 288.597C238.824 288.625 238.88 288.667 238.908 288.723C238.946 288.779 238.969 288.84 238.978 288.905C238.988 288.97 238.992 289.031 238.992 289.087L238.964 289.731C239.058 289.572 239.174 289.423 239.314 289.283C239.454 289.134 239.618 289.003 239.804 288.891C239.991 288.77 240.192 288.676 240.406 288.611C240.63 288.546 240.868 288.513 241.12 288.513C241.531 288.513 241.909 288.588 242.254 288.737C242.6 288.877 242.894 289.087 243.136 289.367C243.388 289.638 243.58 289.964 243.71 290.347C243.85 290.73 243.92 291.164 243.92 291.649V294.687C243.92 294.818 243.906 294.93 243.878 295.023C243.86 295.116 243.804 295.186 243.71 295.233C243.626 295.28 243.496 295.303 243.318 295.303C243.132 295.303 242.992 295.275 242.898 295.219C242.814 295.172 242.758 295.102 242.73 295.009C242.702 294.916 242.688 294.804 242.688 294.673V291.635C242.688 291.243 242.623 290.902 242.492 290.613C242.362 290.324 242.166 290.1 241.904 289.941C241.643 289.773 241.312 289.689 240.91 289.689C240.528 289.689 240.192 289.773 239.902 289.941C239.622 290.1 239.403 290.324 239.244 290.613C239.095 290.902 239.02 291.243 239.02 291.635V294.687C239.02 294.818 239.006 294.93 238.978 295.023C238.95 295.116 238.89 295.186 238.796 295.233C238.712 295.28 238.582 295.303 238.404 295.303ZM248.269 295.331C247.859 295.331 247.476 295.256 247.121 295.107C246.776 294.958 246.473 294.748 246.211 294.477C245.95 294.206 245.745 293.88 245.595 293.497C245.455 293.114 245.385 292.68 245.385 292.195V289.157C245.385 289.026 245.399 288.914 245.427 288.821C245.455 288.728 245.511 288.658 245.595 288.611C245.689 288.555 245.824 288.527 246.001 288.527C246.179 288.527 246.309 288.555 246.393 288.611C246.487 288.667 246.547 288.742 246.575 288.835C246.603 288.928 246.617 289.04 246.617 289.171V292.209C246.617 292.592 246.683 292.932 246.813 293.231C246.944 293.52 247.14 293.744 247.401 293.903C247.672 294.062 247.999 294.141 248.381 294.141C248.773 294.141 249.109 294.062 249.389 293.903C249.679 293.744 249.898 293.52 250.047 293.231C250.206 292.932 250.285 292.592 250.285 292.209V289.157C250.285 289.026 250.299 288.914 250.327 288.821C250.355 288.728 250.411 288.658 250.495 288.611C250.589 288.555 250.724 288.527 250.901 288.527C251.079 288.527 251.209 288.555 251.293 288.611C251.387 288.667 251.443 288.742 251.461 288.835C251.489 288.928 251.503 289.04 251.503 289.171V294.729C251.503 294.841 251.489 294.944 251.461 295.037C251.443 295.121 251.387 295.186 251.293 295.233C251.209 295.28 251.079 295.303 250.901 295.303C250.771 295.303 250.663 295.289 250.579 295.261C250.505 295.233 250.449 295.196 250.411 295.149C250.374 295.102 250.346 295.051 250.327 294.995C250.318 294.93 250.313 294.864 250.313 294.799L250.369 294.197C250.276 294.309 250.164 294.43 250.033 294.561C249.903 294.692 249.749 294.818 249.571 294.939C249.403 295.051 249.212 295.144 248.997 295.219C248.783 295.294 248.54 295.331 248.269 295.331Z" fill="white"/>
<g clip-path="url(#clip0_118_3261)">
<path d="M162.033 80.6545C160.667 80.6545 159.356 81.1974 158.39 82.1636C157.424 83.1299 156.881 84.4404 156.881 85.8068V106.416H182.642V80.6545H162.033ZM176.202 99.9756H163.321V87.0949H176.202V99.9756Z" fill="black"/>
<path d="M156.881 165.667C156.881 167.034 157.424 168.344 158.39 169.31C159.356 170.277 160.667 170.82 162.033 170.82H182.642V145.058H156.881V165.667ZM163.321 151.498H176.202V164.379H163.321V151.498Z" fill="black"/>
<path d="M221.284 170.82H241.893C243.26 170.82 244.57 170.277 245.537 169.31C246.503 168.344 247.046 167.034 247.046 165.667V145.058H221.284V170.82ZM227.725 151.498H240.605V164.379H227.725V151.498Z" fill="black"/>
<path d="M241.893 80.6545H221.284V106.416H247.046V85.8068C247.046 84.4404 246.503 83.1299 245.537 82.1636C244.57 81.1974 243.26 80.6545 241.893 80.6545ZM240.605 99.9756H227.725V87.0949H240.605V99.9756Z" fill="black"/>
<path d="M208.404 99.9756V93.5353H195.523V106.416H201.963V99.9756H208.404Z" fill="black"/>
<path d="M182.642 106.416H189.083V112.856H182.642V106.416Z" fill="black"/>
<path d="M189.083 112.856H201.963V119.297H189.083V112.856Z" fill="black"/>
<path d="M208.404 87.0949V93.5353H214.844V80.6545H189.083V93.5353H195.523V87.0949H208.404Z" fill="black"/>
<path d="M156.881 112.856H163.321V125.737H156.881V112.856Z" fill="black"/>
<path d="M182.642 119.297V125.737H176.202V112.856H169.761V125.737H163.321V132.177H156.881V138.618H169.761V132.177H176.202V138.618H182.642V132.177H189.083V119.297H182.642Z" fill="black"/>
<path d="M208.404 119.297H214.844V125.737H221.284V119.297H227.725V112.856H214.844V99.9757H208.404V106.416H201.963V112.856H208.404V119.297Z" fill="black"/>
<path d="M201.963 164.379H189.083V170.82H214.844V164.379H208.404V157.939H201.963V164.379Z" fill="black"/>
<path d="M214.844 132.177V125.737H208.404V119.297H201.963V125.737H195.523V132.177H201.963V138.618H208.404V132.177H214.844Z" fill="black"/>
<path d="M240.605 132.177H247.046V138.618H240.605V132.177Z" fill="black"/>
<path d="M214.844 132.177H234.165V138.618H214.844V132.177Z" fill="black"/>
<path d="M240.605 112.856H234.165V119.297H227.725V125.737H234.165V132.177H240.605V125.737H247.046V119.297H240.605V112.856Z" fill="black"/>
<path d="M208.404 138.618H214.844V157.939H208.404V138.618Z" fill="black"/>
<path d="M189.083 157.939H195.523V151.498H201.963V145.058H195.523V132.177H189.083V157.939Z" fill="black"/>
</g>
</g>
<defs>
<filter id="filter0_d_118_3261" x="0.99183" y="0.539513" width="408.91" height="435.381" filterUnits="userSpaceOnUse" color-interpolation-filters="sRGB">
<feFlood flood-opacity="0" result="BackgroundImageFix"/>
<feColorMatrix in="SourceAlpha" type="matrix" values="0 0 0 0 0 0 0 0 0 0 0 0 0 0 0 0 0 0 127 0" result="hardAlpha"/>
<feOffset dx="4.18256" dy="16.7302"/>
<feGaussianBlur stdDeviation="25.0954"/>
<feComposite in2="hardAlpha" operator="out"/>
<feColorMatrix type="matrix" values="0 0 0 0 0.7 0 0 0 0 0.7 0 0 0 0 0.7 0 0 0 0.15 0"/>
<feBlend mode="normal" in2="BackgroundImageFix" result="effect1_dropShadow_118_3261"/>
<feBlend mode="normal" in="SourceGraphic" in2="effect1_dropShadow_118_3261" result="shape"/>
</filter>
<clipPath id="clip0_118_3261">
<rect width="115.926" height="115.926" fill="white" transform="translate(144 67.7738)"/>
</clipPath>
</defs>
</svg>
