<svg width="411" height="483" viewBox="0 0 411 483" fill="none" xmlns="http://www.w3.org/2000/svg">
<g filter="url(#filter0_d_118_6482)">
<rect x="47" y="34" width="309" height="382" rx="7.0997" fill="white" shape-rendering="crispEdges"/>
<path d="M115.366 318.342C114.73 318.342 114.172 318.264 113.692 318.108C113.224 317.952 112.822 317.766 112.486 317.55C112.162 317.322 111.904 317.1 111.712 316.884C111.52 316.668 111.388 316.506 111.316 316.398C111.112 316.134 110.986 315.906 110.938 315.714C110.89 315.51 110.914 315.306 111.01 315.102C111.118 314.898 111.298 314.676 111.55 314.436C111.802 314.22 112.036 314.106 112.252 314.094C112.48 314.07 112.702 314.124 112.918 314.256C113.134 314.388 113.344 314.574 113.548 314.814C113.836 315.162 114.118 315.408 114.394 315.552C114.682 315.684 114.982 315.75 115.294 315.75C115.69 315.75 116.026 315.702 116.302 315.606C116.578 315.51 116.788 315.36 116.932 315.156C117.076 314.94 117.148 314.67 117.148 314.346C117.148 314.082 117.046 313.872 116.842 313.716C116.65 313.548 116.386 313.404 116.05 313.284C115.726 313.164 115.36 313.05 114.952 312.942C114.556 312.822 114.16 312.684 113.764 312.528C113.488 312.432 113.224 312.312 112.972 312.168C112.72 312.024 112.48 311.862 112.252 311.682C112.024 311.502 111.826 311.286 111.658 311.034C111.502 310.782 111.376 310.494 111.28 310.17C111.196 309.846 111.154 309.474 111.154 309.054C111.154 308.346 111.328 307.716 111.676 307.164C112.024 306.612 112.504 306.18 113.116 305.868C113.74 305.544 114.454 305.382 115.258 305.382C115.798 305.382 116.266 305.43 116.662 305.526C117.07 305.622 117.412 305.736 117.688 305.868C117.964 306 118.18 306.132 118.336 306.264C118.504 306.384 118.618 306.48 118.678 306.552C119.014 306.864 119.2 307.134 119.236 307.362C119.272 307.578 119.146 307.884 118.858 308.28C118.558 308.7 118.258 308.934 117.958 308.982C117.67 309.03 117.34 308.928 116.968 308.676C116.824 308.544 116.68 308.424 116.536 308.316C116.392 308.208 116.218 308.124 116.014 308.064C115.822 307.992 115.564 307.956 115.24 307.956C115.048 307.956 114.868 307.986 114.7 308.046C114.532 308.094 114.388 308.166 114.268 308.262C114.148 308.358 114.052 308.478 113.98 308.622C113.908 308.754 113.872 308.904 113.872 309.072C113.872 309.348 113.962 309.57 114.142 309.738C114.334 309.906 114.58 310.044 114.88 310.152C115.192 310.248 115.534 310.344 115.906 310.44C116.29 310.524 116.68 310.626 117.076 310.746C117.436 310.866 117.784 311.016 118.12 311.196C118.456 311.364 118.756 311.58 119.02 311.844C119.284 312.108 119.494 312.438 119.65 312.834C119.818 313.23 119.902 313.716 119.902 314.292C119.902 315.012 119.764 315.63 119.488 316.146C119.212 316.662 118.846 317.082 118.39 317.406C117.934 317.73 117.442 317.964 116.914 318.108C116.386 318.264 115.87 318.342 115.366 318.342ZM125.498 318.234C124.97 318.234 124.43 318.138 123.878 317.946C123.338 317.742 122.834 317.448 122.366 317.064C121.91 316.668 121.544 316.188 121.268 315.624C120.992 315.048 120.854 314.388 120.854 313.644C120.854 312.9 120.992 312.246 121.268 311.682C121.544 311.118 121.91 310.644 122.366 310.26C122.822 309.876 123.32 309.588 123.86 309.396C124.412 309.192 124.946 309.09 125.462 309.09C125.906 309.09 126.302 309.144 126.65 309.252C127.01 309.348 127.31 309.468 127.55 309.612C127.802 309.756 127.982 309.882 128.09 309.99C128.294 310.146 128.474 310.302 128.63 310.458C128.786 310.614 128.858 310.818 128.846 311.07C128.834 311.202 128.792 311.34 128.72 311.484C128.648 311.616 128.558 311.754 128.45 311.898C128.09 312.402 127.73 312.63 127.37 312.582C127.19 312.546 127.022 312.486 126.866 312.402C126.722 312.318 126.578 312.234 126.434 312.15C126.302 312.054 126.158 311.976 126.002 311.916C125.846 311.856 125.666 311.826 125.462 311.826C125.114 311.826 124.802 311.904 124.526 312.06C124.25 312.216 124.028 312.432 123.86 312.708C123.704 312.984 123.626 313.302 123.626 313.662C123.626 314.01 123.704 314.322 123.86 314.598C124.028 314.874 124.244 315.096 124.508 315.264C124.784 315.42 125.09 315.498 125.426 315.498C125.63 315.498 125.804 315.474 125.948 315.426C126.104 315.378 126.236 315.324 126.344 315.264C126.452 315.192 126.536 315.138 126.596 315.102C126.74 315.006 126.878 314.922 127.01 314.85C127.142 314.766 127.28 314.724 127.424 314.724C127.592 314.724 127.766 314.79 127.946 314.922C128.126 315.042 128.324 315.24 128.54 315.516C128.732 315.768 128.84 316.002 128.864 316.218C128.9 316.434 128.852 316.638 128.72 316.83C128.588 317.022 128.384 317.208 128.108 317.388C128.012 317.472 127.838 317.58 127.586 317.712C127.346 317.844 127.046 317.964 126.686 318.072C126.338 318.18 125.942 318.234 125.498 318.234ZM137.484 318.144C137.04 318.144 136.71 318.066 136.494 317.91C136.29 317.754 136.188 317.562 136.188 317.334L136.368 317.028C136.296 317.148 136.158 317.298 135.954 317.478C135.75 317.646 135.486 317.802 135.162 317.946C134.838 318.078 134.436 318.144 133.956 318.144C133.404 318.144 132.876 318.024 132.372 317.784C131.88 317.544 131.442 317.214 131.058 316.794C130.674 316.362 130.368 315.876 130.14 315.336C129.924 314.796 129.816 314.226 129.816 313.626C129.816 313.038 129.924 312.48 130.14 311.952C130.368 311.412 130.674 310.938 131.058 310.53C131.454 310.11 131.898 309.78 132.39 309.54C132.882 309.3 133.404 309.18 133.956 309.18C134.4 309.18 134.778 309.246 135.09 309.378C135.402 309.498 135.66 309.642 135.864 309.81C136.08 309.978 136.242 310.14 136.35 310.296L136.206 310.044C136.194 309.756 136.29 309.54 136.494 309.396C136.71 309.24 137.046 309.162 137.502 309.162C137.934 309.162 138.24 309.228 138.42 309.36C138.612 309.492 138.726 309.666 138.762 309.882C138.81 310.098 138.834 310.326 138.834 310.566V316.776C138.834 317.004 138.81 317.226 138.762 317.442C138.726 317.658 138.612 317.832 138.42 317.964C138.24 318.084 137.928 318.144 137.484 318.144ZM134.352 315.462C134.664 315.462 134.946 315.384 135.198 315.228C135.462 315.06 135.666 314.838 135.81 314.562C135.966 314.286 136.044 313.98 136.044 313.644C136.044 313.296 135.966 312.99 135.81 312.726C135.654 312.45 135.444 312.234 135.18 312.078C134.916 311.91 134.628 311.826 134.316 311.826C133.968 311.826 133.656 311.91 133.38 312.078C133.116 312.246 132.9 312.468 132.732 312.744C132.576 313.02 132.498 313.332 132.498 313.68C132.498 314.004 132.576 314.304 132.732 314.58C132.9 314.844 133.122 315.06 133.398 315.228C133.686 315.384 134.004 315.462 134.352 315.462ZM141.633 318.144C141.189 318.144 140.871 318.084 140.679 317.964C140.499 317.832 140.385 317.664 140.337 317.46C140.301 317.244 140.283 317.022 140.283 316.794V310.458C140.283 310.23 140.307 310.02 140.355 309.828C140.403 309.624 140.517 309.462 140.697 309.342C140.889 309.222 141.207 309.162 141.651 309.162C142.035 309.162 142.317 309.216 142.497 309.324C142.677 309.42 142.791 309.54 142.839 309.684C142.899 309.828 142.929 309.966 142.929 310.098C142.929 310.218 142.941 310.302 142.965 310.35L142.857 310.692C142.881 310.512 142.971 310.332 143.127 310.152C143.295 309.96 143.499 309.792 143.739 309.648C143.991 309.492 144.255 309.372 144.531 309.288C144.819 309.204 145.101 309.162 145.377 309.162C145.953 309.162 146.463 309.27 146.907 309.486C147.363 309.69 147.747 309.99 148.059 310.386C148.371 310.782 148.605 311.25 148.761 311.79C148.929 312.318 149.013 312.9 149.013 313.536V316.812C149.013 317.04 148.989 317.262 148.941 317.478C148.905 317.682 148.791 317.844 148.599 317.964C148.419 318.084 148.107 318.144 147.663 318.144C147.207 318.144 146.883 318.084 146.691 317.964C146.511 317.832 146.397 317.664 146.349 317.46C146.301 317.244 146.277 317.022 146.277 316.794V313.536C146.277 313.176 146.217 312.87 146.097 312.618C145.977 312.366 145.797 312.174 145.557 312.042C145.317 311.898 145.023 311.826 144.675 311.826C144.327 311.826 144.027 311.898 143.775 312.042C143.523 312.186 143.325 312.384 143.181 312.636C143.049 312.888 142.983 313.188 142.983 313.536V316.812C142.983 317.04 142.959 317.262 142.911 317.478C142.875 317.682 142.761 317.844 142.569 317.964C142.389 318.084 142.077 318.144 141.633 318.144ZM159.288 318.162C158.676 318.162 158.148 318.096 157.704 317.964C157.272 317.832 156.912 317.628 156.624 317.352C156.336 317.076 156.12 316.728 155.976 316.308C155.844 315.876 155.778 315.366 155.778 314.778V307.47C155.778 307.23 155.796 307.014 155.832 306.822C155.88 306.63 156 306.474 156.192 306.354C156.384 306.222 156.696 306.156 157.128 306.156C157.56 306.156 157.872 306.222 158.064 306.354C158.256 306.486 158.37 306.654 158.406 306.858C158.454 307.062 158.478 307.284 158.478 307.524V314.67C158.478 314.862 158.49 315.024 158.514 315.156C158.55 315.276 158.598 315.366 158.658 315.426C158.718 315.486 158.802 315.528 158.91 315.552C159.018 315.576 159.15 315.588 159.306 315.588C159.57 315.588 159.804 315.612 160.008 315.66C160.212 315.708 160.368 315.816 160.476 315.984C160.596 316.152 160.656 316.434 160.656 316.83C160.656 317.262 160.59 317.574 160.458 317.766C160.326 317.958 160.152 318.072 159.936 318.108C159.732 318.144 159.516 318.162 159.288 318.162ZM155.22 309.306H157.2L159.684 309.234C159.912 309.234 160.128 309.258 160.332 309.306C160.536 309.342 160.704 309.456 160.836 309.648C160.968 309.84 161.034 310.158 161.034 310.602C161.034 311.01 160.968 311.31 160.836 311.502C160.716 311.694 160.554 311.82 160.35 311.88C160.146 311.928 159.924 311.952 159.684 311.952L157.326 311.898H155.148C154.8 311.886 154.554 311.784 154.41 311.592C154.278 311.388 154.212 311.052 154.212 310.584C154.212 310.152 154.296 309.834 154.464 309.63C154.632 309.414 154.884 309.306 155.22 309.306ZM166.382 318.306C165.818 318.306 165.254 318.198 164.69 317.982C164.138 317.754 163.634 317.436 163.178 317.028C162.722 316.62 162.362 316.134 162.098 315.57C161.834 314.994 161.702 314.358 161.702 313.662C161.702 313.014 161.822 312.414 162.062 311.862C162.302 311.298 162.638 310.8 163.07 310.368C163.502 309.936 163.994 309.6 164.546 309.36C165.11 309.108 165.71 308.982 166.346 308.982C167.21 308.982 167.99 309.192 168.686 309.612C169.394 310.02 169.958 310.578 170.378 311.286C170.798 311.994 171.008 312.78 171.008 313.644C171.008 314.376 170.87 315.03 170.594 315.606C170.33 316.17 169.97 316.656 169.514 317.064C169.07 317.472 168.572 317.784 168.02 318C167.48 318.204 166.934 318.306 166.382 318.306ZM166.346 315.588C166.634 315.588 166.928 315.516 167.228 315.372C167.528 315.228 167.78 315.012 167.984 314.724C168.188 314.436 168.29 314.07 168.29 313.626C168.29 313.242 168.206 312.906 168.038 312.618C167.87 312.33 167.636 312.108 167.336 311.952C167.048 311.784 166.712 311.7 166.328 311.7C165.968 311.7 165.644 311.784 165.356 311.952C165.08 312.12 164.852 312.354 164.672 312.654C164.504 312.942 164.42 313.272 164.42 313.644C164.42 314.076 164.516 314.442 164.708 314.742C164.912 315.03 165.164 315.246 165.464 315.39C165.764 315.522 166.058 315.588 166.346 315.588ZM180.779 318.234C180.491 318.234 180.245 318.18 180.041 318.072C179.837 317.964 179.675 317.796 179.555 317.568L176.315 311.106C176.099 310.674 176.033 310.32 176.117 310.044C176.213 309.756 176.489 309.498 176.945 309.27C177.401 309.054 177.761 308.982 178.025 309.054C178.301 309.114 178.547 309.39 178.763 309.882L180.779 314.58L182.795 309.954C183.023 309.438 183.269 309.138 183.533 309.054C183.797 308.97 184.169 309.048 184.649 309.288C185.141 309.516 185.411 309.786 185.459 310.098C185.519 310.398 185.447 310.746 185.243 311.142L182.021 317.568C181.913 317.796 181.757 317.964 181.553 318.072C181.349 318.18 181.091 318.234 180.779 318.234ZM188.059 318.162C187.615 318.162 187.297 318.102 187.105 317.982C186.925 317.85 186.811 317.682 186.763 317.478C186.727 317.262 186.709 317.04 186.709 316.812V310.53C186.709 310.29 186.727 310.068 186.763 309.864C186.811 309.66 186.931 309.498 187.123 309.378C187.315 309.246 187.633 309.18 188.077 309.18C188.509 309.18 188.815 309.246 188.995 309.378C189.187 309.51 189.301 309.678 189.337 309.882C189.385 310.086 189.409 310.314 189.409 310.566V316.83C189.409 317.058 189.385 317.28 189.337 317.496C189.301 317.7 189.187 317.862 188.995 317.982C188.815 318.102 188.503 318.162 188.059 318.162ZM188.059 307.866C187.603 307.866 187.279 307.8 187.087 307.668C186.895 307.536 186.775 307.362 186.727 307.146C186.691 306.93 186.673 306.702 186.673 306.462C186.673 306.21 186.697 305.982 186.745 305.778C186.793 305.562 186.913 305.394 187.105 305.274C187.297 305.142 187.621 305.076 188.077 305.076C188.521 305.076 188.839 305.142 189.031 305.274C189.223 305.406 189.337 305.58 189.373 305.796C189.421 306.012 189.445 306.24 189.445 306.48C189.445 306.72 189.421 306.948 189.373 307.164C189.337 307.38 189.223 307.554 189.031 307.686C188.839 307.806 188.515 307.866 188.059 307.866ZM195.442 318.324C194.602 318.324 193.876 318.186 193.264 317.91C192.664 317.634 192.172 317.274 191.788 316.83C191.404 316.374 191.116 315.87 190.924 315.318C190.744 314.766 190.654 314.214 190.654 313.662C190.654 312.762 190.858 311.964 191.266 311.268C191.674 310.572 192.238 310.026 192.958 309.63C193.678 309.222 194.506 309.018 195.442 309.018C196.138 309.018 196.738 309.132 197.242 309.36C197.758 309.576 198.178 309.864 198.502 310.224C198.838 310.572 199.084 310.95 199.24 311.358C199.408 311.766 199.492 312.156 199.492 312.528C199.492 313.188 199.33 313.68 199.006 314.004C198.694 314.316 198.292 314.472 197.8 314.472H193.516C193.54 314.784 193.648 315.048 193.84 315.264C194.044 315.48 194.296 315.648 194.596 315.768C194.896 315.888 195.214 315.948 195.55 315.948C195.838 315.948 196.09 315.936 196.306 315.912C196.522 315.876 196.708 315.834 196.864 315.786C197.02 315.726 197.164 315.672 197.296 315.624C197.428 315.564 197.542 315.516 197.638 315.48C197.746 315.444 197.848 315.42 197.944 315.408C198.124 315.396 198.286 315.45 198.43 315.57C198.586 315.678 198.724 315.846 198.844 316.074C198.928 316.206 198.982 316.332 199.006 316.452C199.042 316.572 199.06 316.692 199.06 316.812C199.06 317.1 198.91 317.358 198.61 317.586C198.322 317.814 197.908 317.994 197.368 318.126C196.84 318.258 196.198 318.324 195.442 318.324ZM193.516 312.996H196.36C196.552 312.996 196.69 312.966 196.774 312.906C196.87 312.834 196.918 312.702 196.918 312.51C196.918 312.294 196.852 312.108 196.72 311.952C196.588 311.784 196.408 311.658 196.18 311.574C195.964 311.478 195.712 311.43 195.424 311.43C195.052 311.43 194.722 311.502 194.434 311.646C194.146 311.79 193.918 311.982 193.75 312.222C193.594 312.462 193.516 312.72 193.516 312.996ZM203.575 318.18C203.251 318.18 202.999 318.12 202.819 318C202.651 317.88 202.525 317.736 202.441 317.568C202.369 317.4 202.309 317.256 202.261 317.136L199.723 310.854C199.639 310.566 199.597 310.326 199.597 310.134C199.609 309.93 199.681 309.762 199.813 309.63C199.957 309.486 200.179 309.36 200.479 309.252C200.935 309.06 201.307 309.006 201.595 309.09C201.883 309.174 202.099 309.42 202.243 309.828L203.575 313.446L204.763 310.116C204.811 309.996 204.877 309.864 204.961 309.72C205.045 309.564 205.171 309.426 205.339 309.306C205.519 309.186 205.759 309.126 206.059 309.126C206.383 309.126 206.635 309.186 206.815 309.306C206.995 309.426 207.127 309.564 207.211 309.72C207.307 309.876 207.373 310.008 207.409 310.116L208.597 313.446L209.857 310.044C210.025 309.6 210.247 309.3 210.523 309.144C210.799 308.988 211.165 309.006 211.621 309.198C212.041 309.378 212.329 309.6 212.485 309.864C212.641 310.128 212.623 310.464 212.431 310.872L209.893 317.136C209.845 317.268 209.779 317.418 209.695 317.586C209.611 317.754 209.485 317.892 209.317 318C209.149 318.12 208.915 318.18 208.615 318.18C208.303 318.18 208.063 318.126 207.895 318.018C207.727 317.922 207.595 317.79 207.499 317.622C207.415 317.454 207.343 317.286 207.283 317.118L206.077 313.806L204.889 317.118C204.805 317.334 204.727 317.526 204.655 317.694C204.583 317.85 204.463 317.97 204.295 318.054C204.139 318.138 203.899 318.18 203.575 318.18ZM222.158 318.306C221.594 318.306 221.03 318.198 220.466 317.982C219.914 317.754 219.41 317.436 218.954 317.028C218.498 316.62 218.138 316.134 217.874 315.57C217.61 314.994 217.478 314.358 217.478 313.662C217.478 313.014 217.598 312.414 217.838 311.862C218.078 311.298 218.414 310.8 218.846 310.368C219.278 309.936 219.77 309.6 220.322 309.36C220.886 309.108 221.486 308.982 222.122 308.982C222.986 308.982 223.766 309.192 224.462 309.612C225.17 310.02 225.734 310.578 226.154 311.286C226.574 311.994 226.784 312.78 226.784 313.644C226.784 314.376 226.646 315.03 226.37 315.606C226.106 316.17 225.746 316.656 225.29 317.064C224.846 317.472 224.348 317.784 223.796 318C223.256 318.204 222.71 318.306 222.158 318.306ZM222.122 315.588C222.41 315.588 222.704 315.516 223.004 315.372C223.304 315.228 223.556 315.012 223.76 314.724C223.964 314.436 224.066 314.07 224.066 313.626C224.066 313.242 223.982 312.906 223.814 312.618C223.646 312.33 223.412 312.108 223.112 311.952C222.824 311.784 222.488 311.7 222.104 311.7C221.744 311.7 221.42 311.784 221.132 311.952C220.856 312.12 220.628 312.354 220.448 312.654C220.28 312.942 220.196 313.272 220.196 313.644C220.196 314.076 220.292 314.442 220.484 314.742C220.688 315.03 220.94 315.246 221.24 315.39C221.54 315.522 221.834 315.588 222.122 315.588ZM231.762 318.144C231.21 318.144 230.688 318.036 230.196 317.82C229.716 317.604 229.296 317.304 228.936 316.92C228.576 316.524 228.294 316.062 228.09 315.534C227.898 314.994 227.802 314.406 227.802 313.77V310.512C227.802 310.272 227.826 310.05 227.874 309.846C227.922 309.642 228.036 309.474 228.216 309.342C228.408 309.21 228.726 309.144 229.17 309.144C229.614 309.144 229.926 309.21 230.106 309.342C230.298 309.474 230.412 309.648 230.448 309.864C230.496 310.068 230.52 310.29 230.52 310.53V313.77C230.52 314.118 230.58 314.424 230.7 314.688C230.832 314.94 231.018 315.132 231.258 315.264C231.51 315.396 231.804 315.462 232.14 315.462C232.488 315.462 232.782 315.396 233.022 315.264C233.274 315.12 233.466 314.922 233.598 314.67C233.742 314.418 233.814 314.118 233.814 313.77V310.494C233.814 310.254 233.838 310.032 233.886 309.828C233.934 309.624 234.048 309.462 234.228 309.342C234.42 309.21 234.738 309.144 235.182 309.144C235.626 309.144 235.938 309.21 236.118 309.342C236.31 309.474 236.424 309.648 236.46 309.864C236.508 310.068 236.532 310.284 236.532 310.512V316.848C236.532 317.076 236.508 317.292 236.46 317.496C236.424 317.688 236.31 317.844 236.118 317.964C235.926 318.084 235.614 318.144 235.182 318.144C234.858 318.144 234.606 318.108 234.426 318.036C234.246 317.964 234.114 317.874 234.03 317.766C233.946 317.658 233.892 317.544 233.868 317.424C233.856 317.304 233.85 317.196 233.85 317.1L234.084 316.902C234.048 316.95 233.97 317.04 233.85 317.172C233.73 317.304 233.568 317.448 233.364 317.604C233.172 317.748 232.944 317.874 232.68 317.982C232.416 318.09 232.11 318.144 231.762 318.144ZM239.315 318.162C238.871 318.162 238.553 318.102 238.361 317.982C238.181 317.85 238.067 317.676 238.019 317.46C237.983 317.244 237.965 317.022 237.965 316.794V310.512C237.965 310.272 237.989 310.05 238.037 309.846C238.085 309.642 238.199 309.48 238.379 309.36C238.571 309.228 238.889 309.162 239.333 309.162C239.753 309.162 240.053 309.222 240.233 309.342C240.425 309.45 240.545 309.582 240.593 309.738C240.641 309.882 240.665 310.008 240.665 310.116L240.449 310.224C240.473 310.176 240.533 310.092 240.629 309.972C240.737 309.84 240.881 309.708 241.061 309.576C241.241 309.432 241.457 309.312 241.709 309.216C241.973 309.12 242.273 309.072 242.609 309.072C242.741 309.072 242.885 309.084 243.041 309.108C243.209 309.12 243.377 309.156 243.545 309.216C243.725 309.264 243.887 309.336 244.031 309.432C244.175 309.516 244.289 309.624 244.373 309.756C244.469 309.888 244.517 310.05 244.517 310.242C244.517 310.734 244.403 311.154 244.175 311.502C243.947 311.838 243.659 312.006 243.311 312.006C243.107 312.006 242.963 311.988 242.879 311.952C242.795 311.916 242.723 311.88 242.663 311.844C242.615 311.808 242.555 311.778 242.483 311.754C242.411 311.718 242.279 311.7 242.087 311.7C241.907 311.7 241.733 311.724 241.565 311.772C241.409 311.82 241.259 311.898 241.115 312.006C240.983 312.102 240.875 312.228 240.791 312.384C240.719 312.528 240.683 312.69 240.683 312.87V316.83C240.683 317.058 240.659 317.28 240.611 317.496C240.575 317.7 240.461 317.862 240.269 317.982C240.077 318.102 239.759 318.162 239.315 318.162ZM251.232 318.162C250.8 318.162 250.488 318.096 250.296 317.964C250.104 317.832 249.99 317.664 249.954 317.46C249.918 317.256 249.9 317.034 249.9 316.794V310.494C249.9 310.254 249.918 310.038 249.954 309.846C250.002 309.642 250.122 309.48 250.314 309.36C250.506 309.228 250.824 309.162 251.268 309.162C251.712 309.162 252.036 309.252 252.24 309.432C252.444 309.6 252.546 309.882 252.546 310.278L252.312 310.476C252.336 310.416 252.408 310.314 252.528 310.17C252.648 310.026 252.804 309.876 252.996 309.72C253.188 309.564 253.41 309.432 253.662 309.324C253.926 309.204 254.208 309.144 254.508 309.144C254.904 309.144 255.258 309.204 255.57 309.324C255.894 309.432 256.182 309.6 256.434 309.828C256.698 310.044 256.926 310.32 257.118 310.656C257.286 310.416 257.49 310.182 257.73 309.954C257.97 309.726 258.252 309.534 258.576 309.378C258.912 309.222 259.284 309.144 259.692 309.144C260.388 309.144 260.976 309.324 261.456 309.684C261.948 310.032 262.32 310.536 262.572 311.196C262.824 311.856 262.95 312.654 262.95 313.59V316.812C262.95 317.04 262.926 317.262 262.878 317.478C262.842 317.682 262.728 317.85 262.536 317.982C262.344 318.102 262.026 318.162 261.582 318.162C261.138 318.162 260.82 318.096 260.628 317.964C260.448 317.832 260.334 317.664 260.286 317.46C260.25 317.244 260.232 317.022 260.232 316.794V313.572C260.232 313.2 260.19 312.888 260.106 312.636C260.022 312.384 259.89 312.192 259.71 312.06C259.542 311.916 259.326 311.844 259.062 311.844C258.786 311.844 258.552 311.91 258.36 312.042C258.168 312.162 258.024 312.354 257.928 312.618C257.832 312.87 257.784 313.194 257.784 313.59V316.812C257.784 317.052 257.754 317.28 257.694 317.496C257.634 317.7 257.502 317.868 257.298 318C257.106 318.12 256.794 318.174 256.362 318.162C255.93 318.15 255.624 318.078 255.444 317.946C255.264 317.814 255.156 317.646 255.12 317.442C255.084 317.226 255.066 317.01 255.066 316.794V313.572C255.066 313.2 255.024 312.888 254.94 312.636C254.856 312.372 254.73 312.174 254.562 312.042C254.394 311.91 254.172 311.844 253.896 311.844C253.596 311.844 253.35 311.922 253.158 312.078C252.966 312.234 252.822 312.444 252.726 312.708C252.642 312.96 252.6 313.248 252.6 313.572V316.812C252.6 317.052 252.576 317.274 252.528 317.478C252.492 317.682 252.378 317.85 252.186 317.982C251.994 318.102 251.676 318.162 251.232 318.162ZM268.831 318.324C267.991 318.324 267.265 318.186 266.653 317.91C266.053 317.634 265.561 317.274 265.177 316.83C264.793 316.374 264.505 315.87 264.313 315.318C264.133 314.766 264.043 314.214 264.043 313.662C264.043 312.762 264.247 311.964 264.655 311.268C265.063 310.572 265.627 310.026 266.347 309.63C267.067 309.222 267.895 309.018 268.831 309.018C269.527 309.018 270.127 309.132 270.631 309.36C271.147 309.576 271.567 309.864 271.891 310.224C272.227 310.572 272.473 310.95 272.629 311.358C272.797 311.766 272.881 312.156 272.881 312.528C272.881 313.188 272.719 313.68 272.395 314.004C272.083 314.316 271.681 314.472 271.189 314.472H266.905C266.929 314.784 267.037 315.048 267.229 315.264C267.433 315.48 267.685 315.648 267.985 315.768C268.285 315.888 268.603 315.948 268.939 315.948C269.227 315.948 269.479 315.936 269.695 315.912C269.911 315.876 270.097 315.834 270.253 315.786C270.409 315.726 270.553 315.672 270.685 315.624C270.817 315.564 270.931 315.516 271.027 315.48C271.135 315.444 271.237 315.42 271.333 315.408C271.513 315.396 271.675 315.45 271.819 315.57C271.975 315.678 272.113 315.846 272.233 316.074C272.317 316.206 272.371 316.332 272.395 316.452C272.431 316.572 272.449 316.692 272.449 316.812C272.449 317.1 272.299 317.358 271.999 317.586C271.711 317.814 271.297 317.994 270.757 318.126C270.229 318.258 269.587 318.324 268.831 318.324ZM266.905 312.996H269.749C269.941 312.996 270.079 312.966 270.163 312.906C270.259 312.834 270.307 312.702 270.307 312.51C270.307 312.294 270.241 312.108 270.109 311.952C269.977 311.784 269.797 311.658 269.569 311.574C269.353 311.478 269.101 311.43 268.813 311.43C268.441 311.43 268.111 311.502 267.823 311.646C267.535 311.79 267.307 311.982 267.139 312.222C266.983 312.462 266.905 312.72 266.905 312.996ZM275.385 318.144C274.941 318.144 274.623 318.084 274.431 317.964C274.251 317.832 274.137 317.664 274.089 317.46C274.053 317.244 274.035 317.022 274.035 316.794V310.458C274.035 310.23 274.059 310.02 274.107 309.828C274.155 309.624 274.269 309.462 274.449 309.342C274.641 309.222 274.959 309.162 275.403 309.162C275.787 309.162 276.069 309.216 276.249 309.324C276.429 309.42 276.543 309.54 276.591 309.684C276.651 309.828 276.681 309.966 276.681 310.098C276.681 310.218 276.693 310.302 276.717 310.35L276.609 310.692C276.633 310.512 276.723 310.332 276.879 310.152C277.047 309.96 277.251 309.792 277.491 309.648C277.743 309.492 278.007 309.372 278.283 309.288C278.571 309.204 278.853 309.162 279.129 309.162C279.705 309.162 280.215 309.27 280.659 309.486C281.115 309.69 281.499 309.99 281.811 310.386C282.123 310.782 282.357 311.25 282.513 311.79C282.681 312.318 282.765 312.9 282.765 313.536V316.812C282.765 317.04 282.741 317.262 282.693 317.478C282.657 317.682 282.543 317.844 282.351 317.964C282.171 318.084 281.859 318.144 281.415 318.144C280.959 318.144 280.635 318.084 280.443 317.964C280.263 317.832 280.149 317.664 280.101 317.46C280.053 317.244 280.029 317.022 280.029 316.794V313.536C280.029 313.176 279.969 312.87 279.849 312.618C279.729 312.366 279.549 312.174 279.309 312.042C279.069 311.898 278.775 311.826 278.427 311.826C278.079 311.826 277.779 311.898 277.527 312.042C277.275 312.186 277.077 312.384 276.933 312.636C276.801 312.888 276.735 313.188 276.735 313.536V316.812C276.735 317.04 276.711 317.262 276.663 317.478C276.627 317.682 276.513 317.844 276.321 317.964C276.141 318.084 275.829 318.144 275.385 318.144ZM288.047 318.144C287.495 318.144 286.973 318.036 286.481 317.82C286.001 317.604 285.581 317.304 285.221 316.92C284.861 316.524 284.579 316.062 284.375 315.534C284.183 314.994 284.087 314.406 284.087 313.77V310.512C284.087 310.272 284.111 310.05 284.159 309.846C284.207 309.642 284.321 309.474 284.501 309.342C284.693 309.21 285.011 309.144 285.455 309.144C285.899 309.144 286.211 309.21 286.391 309.342C286.583 309.474 286.697 309.648 286.733 309.864C286.781 310.068 286.805 310.29 286.805 310.53V313.77C286.805 314.118 286.865 314.424 286.985 314.688C287.117 314.94 287.303 315.132 287.543 315.264C287.795 315.396 288.089 315.462 288.425 315.462C288.773 315.462 289.067 315.396 289.307 315.264C289.559 315.12 289.751 314.922 289.883 314.67C290.027 314.418 290.099 314.118 290.099 313.77V310.494C290.099 310.254 290.123 310.032 290.171 309.828C290.219 309.624 290.333 309.462 290.513 309.342C290.705 309.21 291.023 309.144 291.467 309.144C291.911 309.144 292.223 309.21 292.403 309.342C292.595 309.474 292.709 309.648 292.745 309.864C292.793 310.068 292.817 310.284 292.817 310.512V316.848C292.817 317.076 292.793 317.292 292.745 317.496C292.709 317.688 292.595 317.844 292.403 317.964C292.211 318.084 291.899 318.144 291.467 318.144C291.143 318.144 290.891 318.108 290.711 318.036C290.531 317.964 290.399 317.874 290.315 317.766C290.231 317.658 290.177 317.544 290.153 317.424C290.141 317.304 290.135 317.196 290.135 317.1L290.369 316.902C290.333 316.95 290.255 317.04 290.135 317.172C290.015 317.304 289.853 317.448 289.649 317.604C289.457 317.748 289.229 317.874 288.965 317.982C288.701 318.09 288.395 318.144 288.047 318.144Z" fill="#2B2B2B"/>
<path d="M116.964 351.108C116.404 351.108 115.912 351.036 115.488 350.892C115.072 350.74 114.72 350.52 114.432 350.232C114.144 349.936 113.928 349.572 113.784 349.14C113.64 348.708 113.568 348.212 113.568 347.652V342.96C113.568 342.792 113.608 342.668 113.688 342.588C113.776 342.5 113.9 342.456 114.06 342.456C114.22 342.456 114.34 342.5 114.42 342.588C114.508 342.668 114.552 342.792 114.552 342.96V347.604C114.552 348.484 114.756 349.144 115.164 349.584C115.572 350.016 116.172 350.232 116.964 350.232C117.756 350.232 118.352 350.016 118.752 349.584C119.152 349.144 119.352 348.484 119.352 347.604V342.96C119.352 342.792 119.396 342.668 119.484 342.588C119.572 342.5 119.696 342.456 119.856 342.456C120.008 342.456 120.124 342.5 120.204 342.588C120.292 342.668 120.336 342.792 120.336 342.96V347.652C120.336 348.396 120.208 349.028 119.952 349.548C119.704 350.068 119.328 350.46 118.824 350.724C118.32 350.98 117.7 351.108 116.964 351.108ZM124.194 351.108C123.834 351.108 123.47 351.064 123.102 350.976C122.742 350.888 122.406 350.736 122.094 350.52C122.014 350.464 121.958 350.4 121.926 350.328C121.894 350.248 121.882 350.172 121.89 350.1C121.906 350.02 121.938 349.952 121.986 349.896C122.042 349.84 122.106 349.808 122.178 349.8C122.258 349.784 122.346 349.8 122.442 349.848C122.754 350.04 123.054 350.176 123.342 350.256C123.638 350.328 123.93 350.364 124.218 350.364C124.674 350.364 125.018 350.28 125.25 350.112C125.482 349.944 125.598 349.716 125.598 349.428C125.598 349.204 125.522 349.028 125.37 348.9C125.218 348.764 124.978 348.66 124.65 348.588L123.558 348.348C123.054 348.244 122.678 348.064 122.43 347.808C122.19 347.552 122.07 347.22 122.07 346.812C122.07 346.452 122.162 346.144 122.346 345.888C122.538 345.624 122.806 345.42 123.15 345.276C123.494 345.132 123.894 345.06 124.35 345.06C124.702 345.06 125.034 345.108 125.346 345.204C125.666 345.292 125.954 345.436 126.21 345.636C126.29 345.692 126.342 345.76 126.366 345.84C126.398 345.912 126.402 345.988 126.378 346.068C126.362 346.14 126.326 346.204 126.27 346.26C126.214 346.308 126.146 346.336 126.066 346.344C125.986 346.352 125.902 346.328 125.814 346.272C125.574 346.112 125.33 345.996 125.082 345.924C124.834 345.844 124.59 345.804 124.35 345.804C123.902 345.804 123.562 345.892 123.33 346.068C123.098 346.244 122.982 346.476 122.982 346.764C122.982 346.988 123.054 347.172 123.198 347.316C123.342 347.46 123.566 347.564 123.87 347.628L124.962 347.856C125.482 347.968 125.87 348.148 126.126 348.396C126.39 348.636 126.522 348.964 126.522 349.38C126.522 349.908 126.31 350.328 125.886 350.64C125.462 350.952 124.898 351.108 124.194 351.108ZM130.632 351.108C130.016 351.108 129.484 350.988 129.036 350.748C128.596 350.5 128.252 350.152 128.004 349.704C127.764 349.256 127.644 348.72 127.644 348.096C127.644 347.488 127.764 346.96 128.004 346.512C128.244 346.056 128.572 345.7 128.988 345.444C129.412 345.188 129.9 345.06 130.452 345.06C130.844 345.06 131.196 345.128 131.508 345.264C131.82 345.392 132.084 345.58 132.3 345.828C132.524 346.076 132.692 346.376 132.804 346.728C132.924 347.08 132.984 347.476 132.984 347.916C132.984 348.044 132.948 348.14 132.876 348.204C132.804 348.26 132.7 348.288 132.564 348.288H128.388V347.652H132.336L132.144 347.808C132.144 347.376 132.08 347.012 131.952 346.716C131.824 346.412 131.636 346.18 131.388 346.02C131.148 345.86 130.844 345.78 130.476 345.78C130.068 345.78 129.72 345.876 129.432 346.068C129.152 346.252 128.94 346.512 128.796 346.848C128.652 347.176 128.58 347.56 128.58 348V348.072C128.58 348.808 128.756 349.368 129.108 349.752C129.468 350.136 129.976 350.328 130.632 350.328C130.904 350.328 131.172 350.292 131.436 350.22C131.708 350.148 131.972 350.028 132.228 349.86C132.34 349.788 132.44 349.756 132.528 349.764C132.624 349.764 132.7 349.792 132.756 349.848C132.812 349.896 132.848 349.96 132.864 350.04C132.888 350.112 132.88 350.192 132.84 350.28C132.808 350.368 132.74 350.444 132.636 350.508C132.372 350.7 132.06 350.848 131.7 350.952C131.34 351.056 130.984 351.108 130.632 351.108ZM139.824 351.108C139.368 351.108 138.984 351.028 138.672 350.868C138.368 350.7 138.14 350.46 137.988 350.148C137.836 349.828 137.76 349.44 137.76 348.984V345.924H136.956C136.82 345.924 136.716 345.892 136.644 345.828C136.572 345.756 136.536 345.66 136.536 345.54C136.536 345.42 136.572 345.328 136.644 345.264C136.716 345.2 136.82 345.168 136.956 345.168H137.76V343.788C137.76 343.628 137.804 343.508 137.892 343.428C137.98 343.34 138.1 343.296 138.252 343.296C138.404 343.296 138.52 343.34 138.6 343.428C138.688 343.508 138.732 343.628 138.732 343.788V345.168H140.244C140.38 345.168 140.484 345.2 140.556 345.264C140.628 345.328 140.664 345.42 140.664 345.54C140.664 345.66 140.628 345.756 140.556 345.828C140.484 345.892 140.38 345.924 140.244 345.924H138.732V348.888C138.732 349.344 138.828 349.692 139.02 349.932C139.212 350.164 139.524 350.28 139.956 350.28C140.108 350.28 140.236 350.264 140.34 350.232C140.452 350.2 140.544 350.184 140.616 350.184C140.688 350.176 140.748 350.2 140.796 350.256C140.844 350.312 140.868 350.408 140.868 350.544C140.868 350.64 140.848 350.728 140.808 350.808C140.776 350.888 140.716 350.944 140.628 350.976C140.532 351.008 140.404 351.036 140.244 351.06C140.092 351.092 139.952 351.108 139.824 351.108ZM142.23 351.084C142.07 351.084 141.95 351.04 141.87 350.952C141.79 350.864 141.75 350.74 141.75 350.58V342.948C141.75 342.788 141.79 342.668 141.87 342.588C141.95 342.5 142.07 342.456 142.23 342.456C142.382 342.456 142.502 342.5 142.59 342.588C142.678 342.668 142.722 342.788 142.722 342.948V346.464H142.566C142.734 346 143.006 345.652 143.382 345.42C143.766 345.18 144.206 345.06 144.702 345.06C145.166 345.06 145.55 345.144 145.854 345.312C146.166 345.48 146.398 345.736 146.55 346.08C146.702 346.416 146.778 346.844 146.778 347.364V350.58C146.778 350.74 146.734 350.864 146.646 350.952C146.566 351.04 146.45 351.084 146.298 351.084C146.138 351.084 146.014 351.04 145.926 350.952C145.846 350.864 145.806 350.74 145.806 350.58V347.424C145.806 346.88 145.698 346.484 145.482 346.236C145.274 345.98 144.938 345.852 144.474 345.852C143.938 345.852 143.51 346.02 143.19 346.356C142.878 346.684 142.722 347.124 142.722 347.676V350.58C142.722 350.916 142.558 351.084 142.23 351.084ZM151.198 351.108C150.582 351.108 150.05 350.988 149.602 350.748C149.162 350.5 148.818 350.152 148.57 349.704C148.33 349.256 148.21 348.72 148.21 348.096C148.21 347.488 148.33 346.96 148.57 346.512C148.81 346.056 149.138 345.7 149.554 345.444C149.978 345.188 150.466 345.06 151.018 345.06C151.41 345.06 151.762 345.128 152.074 345.264C152.386 345.392 152.65 345.58 152.866 345.828C153.09 346.076 153.258 346.376 153.37 346.728C153.49 347.08 153.55 347.476 153.55 347.916C153.55 348.044 153.514 348.14 153.442 348.204C153.37 348.26 153.266 348.288 153.13 348.288H148.954V347.652H152.902L152.71 347.808C152.71 347.376 152.646 347.012 152.518 346.716C152.39 346.412 152.202 346.18 151.954 346.02C151.714 345.86 151.41 345.78 151.042 345.78C150.634 345.78 150.286 345.876 149.998 346.068C149.718 346.252 149.506 346.512 149.362 346.848C149.218 347.176 149.146 347.56 149.146 348V348.072C149.146 348.808 149.322 349.368 149.674 349.752C150.034 350.136 150.542 350.328 151.198 350.328C151.47 350.328 151.738 350.292 152.002 350.22C152.274 350.148 152.538 350.028 152.794 349.86C152.906 349.788 153.006 349.756 153.094 349.764C153.19 349.764 153.266 349.792 153.322 349.848C153.378 349.896 153.414 349.96 153.43 350.04C153.454 350.112 153.446 350.192 153.406 350.28C153.374 350.368 153.306 350.444 153.202 350.508C152.938 350.7 152.626 350.848 152.266 350.952C151.906 351.056 151.55 351.108 151.198 351.108ZM160.523 351.108C159.939 351.108 159.435 350.98 159.011 350.724C158.587 350.468 158.259 350.112 158.027 349.656C157.803 349.192 157.691 348.656 157.691 348.048C157.691 347.584 157.755 347.168 157.883 346.8C158.011 346.432 158.199 346.12 158.447 345.864C158.695 345.6 158.991 345.4 159.335 345.264C159.687 345.128 160.083 345.06 160.523 345.06C160.811 345.06 161.111 345.104 161.423 345.192C161.735 345.28 162.019 345.432 162.275 345.648C162.355 345.704 162.407 345.772 162.431 345.852C162.455 345.932 162.455 346.012 162.431 346.092C162.407 346.164 162.367 346.228 162.311 346.284C162.255 346.332 162.183 346.36 162.095 346.368C162.015 346.376 161.931 346.348 161.843 346.284C161.635 346.124 161.423 346.012 161.207 345.948C160.991 345.884 160.783 345.852 160.583 345.852C160.271 345.852 159.999 345.904 159.767 346.008C159.535 346.104 159.339 346.244 159.179 346.428C159.019 346.612 158.895 346.84 158.807 347.112C158.727 347.384 158.687 347.7 158.687 348.06C158.687 348.756 158.851 349.308 159.179 349.716C159.507 350.116 159.975 350.316 160.583 350.316C160.783 350.316 160.987 350.284 161.195 350.22C161.411 350.156 161.627 350.044 161.843 349.884C161.931 349.82 162.015 349.792 162.095 349.8C162.175 349.808 162.243 349.84 162.299 349.896C162.355 349.944 162.391 350.008 162.407 350.088C162.431 350.168 162.431 350.248 162.407 350.328C162.383 350.4 162.331 350.464 162.251 350.52C161.995 350.728 161.715 350.88 161.411 350.976C161.107 351.064 160.811 351.108 160.523 351.108ZM165.394 351.108C164.994 351.108 164.634 351.032 164.314 350.88C164.002 350.72 163.754 350.504 163.57 350.232C163.386 349.96 163.294 349.656 163.294 349.32C163.294 348.888 163.402 348.548 163.618 348.3C163.842 348.052 164.206 347.876 164.71 347.772C165.222 347.668 165.918 347.616 166.798 347.616H167.338V348.252H166.81C166.162 348.252 165.65 348.284 165.274 348.348C164.906 348.404 164.646 348.504 164.494 348.648C164.35 348.792 164.278 348.996 164.278 349.26C164.278 349.588 164.39 349.856 164.614 350.064C164.846 350.272 165.158 350.376 165.55 350.376C165.87 350.376 166.15 350.3 166.39 350.148C166.638 349.996 166.83 349.788 166.966 349.524C167.11 349.26 167.182 348.956 167.182 348.612V347.244C167.182 346.748 167.082 346.392 166.882 346.176C166.682 345.952 166.354 345.84 165.898 345.84C165.618 345.84 165.338 345.876 165.058 345.948C164.778 346.02 164.482 346.136 164.17 346.296C164.058 346.352 163.962 346.372 163.882 346.356C163.802 346.332 163.738 346.288 163.69 346.224C163.642 346.16 163.614 346.088 163.606 346.008C163.598 345.92 163.614 345.836 163.654 345.756C163.702 345.676 163.774 345.612 163.87 345.564C164.222 345.388 164.57 345.26 164.914 345.18C165.258 345.1 165.586 345.06 165.898 345.06C166.402 345.06 166.818 345.144 167.146 345.312C167.474 345.472 167.718 345.72 167.878 346.056C168.038 346.384 168.118 346.808 168.118 347.328V350.58C168.118 350.74 168.078 350.864 167.998 350.952C167.926 351.04 167.818 351.084 167.674 351.084C167.522 351.084 167.406 351.04 167.326 350.952C167.246 350.864 167.206 350.74 167.206 350.58V349.644H167.314C167.25 349.948 167.126 350.208 166.942 350.424C166.766 350.64 166.546 350.808 166.282 350.928C166.018 351.048 165.722 351.108 165.394 351.108ZM170.426 351.084C170.266 351.084 170.146 351.04 170.066 350.952C169.986 350.864 169.946 350.74 169.946 350.58V345.576C169.946 345.416 169.986 345.296 170.066 345.216C170.146 345.128 170.262 345.084 170.414 345.084C170.566 345.084 170.682 345.128 170.762 345.216C170.85 345.296 170.894 345.416 170.894 345.576V346.632L170.762 346.464C170.914 346.016 171.158 345.672 171.494 345.432C171.838 345.184 172.246 345.06 172.718 345.06C173.214 345.06 173.614 345.18 173.918 345.42C174.23 345.652 174.438 346.016 174.542 346.512H174.362C174.506 346.064 174.762 345.712 175.13 345.456C175.506 345.192 175.942 345.06 176.438 345.06C176.878 345.06 177.238 345.144 177.518 345.312C177.806 345.48 178.022 345.736 178.166 346.08C178.31 346.416 178.382 346.844 178.382 347.364V350.58C178.382 350.74 178.338 350.864 178.25 350.952C178.17 351.04 178.05 351.084 177.89 351.084C177.738 351.084 177.618 351.04 177.53 350.952C177.45 350.864 177.41 350.74 177.41 350.58V347.412C177.41 346.876 177.318 346.484 177.134 346.236C176.95 345.98 176.638 345.852 176.198 345.852C175.718 345.852 175.338 346.02 175.058 346.356C174.786 346.684 174.65 347.132 174.65 347.7V350.58C174.65 350.74 174.606 350.864 174.518 350.952C174.438 351.04 174.318 351.084 174.158 351.084C174.006 351.084 173.886 351.04 173.798 350.952C173.718 350.864 173.678 350.74 173.678 350.58V347.412C173.678 346.876 173.582 346.484 173.39 346.236C173.206 345.98 172.898 345.852 172.466 345.852C171.986 345.852 171.606 346.02 171.326 346.356C171.054 346.684 170.918 347.132 170.918 347.7V350.58C170.918 350.916 170.754 351.084 170.426 351.084ZM182.827 351.108C182.211 351.108 181.679 350.988 181.231 350.748C180.791 350.5 180.447 350.152 180.199 349.704C179.959 349.256 179.839 348.72 179.839 348.096C179.839 347.488 179.959 346.96 180.199 346.512C180.439 346.056 180.767 345.7 181.183 345.444C181.607 345.188 182.095 345.06 182.647 345.06C183.039 345.06 183.391 345.128 183.703 345.264C184.015 345.392 184.279 345.58 184.495 345.828C184.719 346.076 184.887 346.376 184.999 346.728C185.119 347.08 185.179 347.476 185.179 347.916C185.179 348.044 185.143 348.14 185.071 348.204C184.999 348.26 184.895 348.288 184.759 348.288H180.583V347.652H184.531L184.339 347.808C184.339 347.376 184.275 347.012 184.147 346.716C184.019 346.412 183.831 346.18 183.583 346.02C183.343 345.86 183.039 345.78 182.671 345.78C182.263 345.78 181.915 345.876 181.627 346.068C181.347 346.252 181.135 346.512 180.991 346.848C180.847 347.176 180.775 347.56 180.775 348V348.072C180.775 348.808 180.951 349.368 181.303 349.752C181.663 350.136 182.171 350.328 182.827 350.328C183.099 350.328 183.367 350.292 183.631 350.22C183.903 350.148 184.167 350.028 184.423 349.86C184.535 349.788 184.635 349.756 184.723 349.764C184.819 349.764 184.895 349.792 184.951 349.848C185.007 349.896 185.043 349.96 185.059 350.04C185.083 350.112 185.075 350.192 185.035 350.28C185.003 350.368 184.935 350.444 184.831 350.508C184.567 350.7 184.255 350.848 183.895 350.952C183.535 351.056 183.179 351.108 182.827 351.108ZM187.078 351.084C186.918 351.084 186.794 351.04 186.706 350.952C186.626 350.864 186.586 350.74 186.586 350.58V345.576C186.586 345.416 186.626 345.296 186.706 345.216C186.786 345.128 186.902 345.084 187.054 345.084C187.206 345.084 187.322 345.128 187.402 345.216C187.49 345.296 187.534 345.416 187.534 345.576V346.548H187.414C187.542 346.076 187.786 345.712 188.146 345.456C188.506 345.2 188.95 345.064 189.478 345.048C189.598 345.04 189.694 345.068 189.766 345.132C189.838 345.188 189.878 345.288 189.886 345.432C189.894 345.568 189.862 345.676 189.79 345.756C189.718 345.836 189.606 345.884 189.454 345.9L189.262 345.924C188.718 345.972 188.298 346.148 188.002 346.452C187.714 346.748 187.57 347.156 187.57 347.676V350.58C187.57 350.74 187.526 350.864 187.438 350.952C187.358 351.04 187.238 351.084 187.078 351.084ZM192.664 351.108C192.264 351.108 191.904 351.032 191.584 350.88C191.272 350.72 191.024 350.504 190.84 350.232C190.656 349.96 190.564 349.656 190.564 349.32C190.564 348.888 190.672 348.548 190.888 348.3C191.112 348.052 191.476 347.876 191.98 347.772C192.492 347.668 193.188 347.616 194.068 347.616H194.608V348.252H194.08C193.432 348.252 192.92 348.284 192.544 348.348C192.176 348.404 191.916 348.504 191.764 348.648C191.62 348.792 191.548 348.996 191.548 349.26C191.548 349.588 191.66 349.856 191.884 350.064C192.116 350.272 192.428 350.376 192.82 350.376C193.14 350.376 193.42 350.3 193.66 350.148C193.908 349.996 194.1 349.788 194.236 349.524C194.38 349.26 194.452 348.956 194.452 348.612V347.244C194.452 346.748 194.352 346.392 194.152 346.176C193.952 345.952 193.624 345.84 193.168 345.84C192.888 345.84 192.608 345.876 192.328 345.948C192.048 346.02 191.752 346.136 191.44 346.296C191.328 346.352 191.232 346.372 191.152 346.356C191.072 346.332 191.008 346.288 190.96 346.224C190.912 346.16 190.884 346.088 190.876 346.008C190.868 345.92 190.884 345.836 190.924 345.756C190.972 345.676 191.044 345.612 191.14 345.564C191.492 345.388 191.84 345.26 192.184 345.18C192.528 345.1 192.856 345.06 193.168 345.06C193.672 345.06 194.088 345.144 194.416 345.312C194.744 345.472 194.988 345.72 195.148 346.056C195.308 346.384 195.388 346.808 195.388 347.328V350.58C195.388 350.74 195.348 350.864 195.268 350.952C195.196 351.04 195.088 351.084 194.944 351.084C194.792 351.084 194.676 351.04 194.596 350.952C194.516 350.864 194.476 350.74 194.476 350.58V349.644H194.584C194.52 349.948 194.396 350.208 194.212 350.424C194.036 350.64 193.816 350.808 193.552 350.928C193.288 351.048 192.992 351.108 192.664 351.108ZM202.709 351.108C202.141 351.108 201.649 350.984 201.233 350.736C200.817 350.488 200.493 350.14 200.261 349.692C200.037 349.236 199.925 348.7 199.925 348.084C199.925 347.62 199.989 347.204 200.117 346.836C200.245 346.46 200.433 346.14 200.681 345.876C200.929 345.612 201.221 345.412 201.557 345.276C201.901 345.132 202.285 345.06 202.709 345.06C203.277 345.06 203.769 345.184 204.185 345.432C204.601 345.68 204.921 346.032 205.145 346.488C205.377 346.936 205.493 347.468 205.493 348.084C205.493 348.548 205.429 348.964 205.301 349.332C205.173 349.7 204.985 350.02 204.737 350.292C204.489 350.556 204.193 350.76 203.849 350.904C203.513 351.04 203.133 351.108 202.709 351.108ZM202.709 350.328C203.069 350.328 203.385 350.24 203.657 350.064C203.929 349.888 204.137 349.632 204.281 349.296C204.433 348.96 204.509 348.556 204.509 348.084C204.509 347.356 204.345 346.8 204.017 346.416C203.697 346.032 203.261 345.84 202.709 345.84C202.341 345.84 202.021 345.928 201.749 346.104C201.485 346.272 201.277 346.524 201.125 346.86C200.981 347.188 200.909 347.596 200.909 348.084C200.909 348.804 201.073 349.36 201.401 349.752C201.729 350.136 202.165 350.328 202.709 350.328ZM207.433 351.084C207.273 351.084 207.153 351.04 207.073 350.952C206.993 350.864 206.953 350.74 206.953 350.58V345.576C206.953 345.416 206.993 345.296 207.073 345.216C207.153 345.128 207.269 345.084 207.421 345.084C207.573 345.084 207.689 345.128 207.769 345.216C207.857 345.296 207.901 345.416 207.901 345.576V346.608L207.769 346.464C207.937 346 208.209 345.652 208.585 345.42C208.969 345.18 209.409 345.06 209.905 345.06C210.369 345.06 210.753 345.144 211.057 345.312C211.369 345.48 211.601 345.736 211.753 346.08C211.905 346.416 211.981 346.844 211.981 347.364V350.58C211.981 350.74 211.937 350.864 211.849 350.952C211.769 351.04 211.653 351.084 211.501 351.084C211.341 351.084 211.217 351.04 211.129 350.952C211.049 350.864 211.009 350.74 211.009 350.58V347.424C211.009 346.88 210.901 346.484 210.685 346.236C210.477 345.98 210.141 345.852 209.677 345.852C209.141 345.852 208.713 346.02 208.393 346.356C208.081 346.684 207.925 347.124 207.925 347.676V350.58C207.925 350.916 207.761 351.084 207.433 351.084ZM218.163 353.244C218.043 353.244 217.947 353.212 217.875 353.148C217.803 353.084 217.759 352.996 217.743 352.884C217.735 352.78 217.755 352.672 217.803 352.56L218.631 350.7V351.12L216.327 345.768C216.279 345.648 216.263 345.536 216.279 345.432C216.295 345.328 216.343 345.244 216.423 345.18C216.503 345.116 216.615 345.084 216.759 345.084C216.887 345.084 216.987 345.112 217.059 345.168C217.131 345.224 217.195 345.324 217.251 345.468L219.219 350.292H218.895L220.887 345.468C220.951 345.324 221.019 345.224 221.091 345.168C221.163 345.112 221.267 345.084 221.403 345.084C221.531 345.084 221.627 345.116 221.691 345.18C221.763 345.244 221.803 345.328 221.811 345.432C221.827 345.528 221.811 345.636 221.763 345.756L218.691 352.86C218.627 353.004 218.555 353.104 218.475 353.16C218.403 353.216 218.299 353.244 218.163 353.244ZM225.373 351.108C224.805 351.108 224.313 350.984 223.897 350.736C223.481 350.488 223.157 350.14 222.925 349.692C222.701 349.236 222.589 348.7 222.589 348.084C222.589 347.62 222.653 347.204 222.781 346.836C222.909 346.46 223.097 346.14 223.345 345.876C223.593 345.612 223.885 345.412 224.221 345.276C224.565 345.132 224.949 345.06 225.373 345.06C225.941 345.06 226.433 345.184 226.849 345.432C227.265 345.68 227.585 346.032 227.809 346.488C228.041 346.936 228.157 347.468 228.157 348.084C228.157 348.548 228.093 348.964 227.965 349.332C227.837 349.7 227.649 350.02 227.401 350.292C227.153 350.556 226.857 350.76 226.513 350.904C226.177 351.04 225.797 351.108 225.373 351.108ZM225.373 350.328C225.733 350.328 226.049 350.24 226.321 350.064C226.593 349.888 226.801 349.632 226.945 349.296C227.097 348.96 227.173 348.556 227.173 348.084C227.173 347.356 227.009 346.8 226.681 346.416C226.361 346.032 225.925 345.84 225.373 345.84C225.005 345.84 224.685 345.928 224.413 346.104C224.149 346.272 223.941 346.524 223.789 346.86C223.645 347.188 223.573 347.596 223.573 348.084C223.573 348.804 223.737 349.36 224.065 349.752C224.393 350.136 224.829 350.328 225.373 350.328ZM231.681 351.108C231.209 351.108 230.817 351.024 230.505 350.856C230.201 350.68 229.969 350.42 229.809 350.076C229.657 349.732 229.581 349.304 229.581 348.792V345.576C229.581 345.408 229.621 345.284 229.701 345.204C229.789 345.124 229.909 345.084 230.061 345.084C230.221 345.084 230.341 345.124 230.421 345.204C230.509 345.284 230.553 345.408 230.553 345.576V348.78C230.553 349.292 230.657 349.676 230.865 349.932C231.081 350.18 231.417 350.304 231.873 350.304C232.369 350.304 232.773 350.136 233.085 349.8C233.397 349.464 233.553 349.024 233.553 348.48V345.576C233.553 345.408 233.593 345.284 233.673 345.204C233.761 345.124 233.885 345.084 234.045 345.084C234.197 345.084 234.313 345.124 234.393 345.204C234.481 345.284 234.525 345.408 234.525 345.576V350.58C234.525 350.916 234.369 351.084 234.057 351.084C233.905 351.084 233.785 351.04 233.697 350.952C233.617 350.864 233.577 350.74 233.577 350.58V349.488L233.733 349.656C233.573 350.128 233.309 350.488 232.941 350.736C232.581 350.984 232.161 351.108 231.681 351.108ZM236.836 351.084C236.676 351.084 236.552 351.04 236.464 350.952C236.384 350.864 236.344 350.74 236.344 350.58V345.576C236.344 345.416 236.384 345.296 236.464 345.216C236.544 345.128 236.66 345.084 236.812 345.084C236.964 345.084 237.08 345.128 237.16 345.216C237.248 345.296 237.292 345.416 237.292 345.576V346.548H237.172C237.3 346.076 237.544 345.712 237.904 345.456C238.264 345.2 238.708 345.064 239.236 345.048C239.356 345.04 239.452 345.068 239.524 345.132C239.596 345.188 239.636 345.288 239.644 345.432C239.652 345.568 239.62 345.676 239.548 345.756C239.476 345.836 239.364 345.884 239.212 345.9L239.02 345.924C238.476 345.972 238.056 346.148 237.76 346.452C237.472 346.748 237.328 347.156 237.328 347.676V350.58C237.328 350.74 237.284 350.864 237.196 350.952C237.116 351.04 236.996 351.084 236.836 351.084ZM244.218 353.244C244.058 353.244 243.938 353.2 243.858 353.112C243.778 353.032 243.738 352.912 243.738 352.752V345.576C243.738 345.416 243.778 345.296 243.858 345.216C243.938 345.128 244.054 345.084 244.206 345.084C244.366 345.084 244.486 345.128 244.566 345.216C244.654 345.296 244.698 345.416 244.698 345.576V346.716L244.566 346.548C244.694 346.092 244.946 345.732 245.322 345.468C245.706 345.196 246.162 345.06 246.69 345.06C247.21 345.06 247.662 345.184 248.046 345.432C248.438 345.672 248.738 346.02 248.946 346.476C249.162 346.924 249.27 347.46 249.27 348.084C249.27 348.7 249.162 349.236 248.946 349.692C248.738 350.14 248.442 350.488 248.058 350.736C247.674 350.984 247.218 351.108 246.69 351.108C246.162 351.108 245.71 350.976 245.334 350.712C244.958 350.44 244.702 350.08 244.566 349.632H244.71V352.752C244.71 352.912 244.666 353.032 244.578 353.112C244.49 353.2 244.37 353.244 244.218 353.244ZM246.486 350.328C246.854 350.328 247.17 350.24 247.434 350.064C247.706 349.888 247.914 349.632 248.058 349.296C248.21 348.96 248.286 348.556 248.286 348.084C248.286 347.356 248.122 346.8 247.794 346.416C247.474 346.032 247.038 345.84 246.486 345.84C246.126 345.84 245.81 345.928 245.538 346.104C245.266 346.272 245.054 346.524 244.902 346.86C244.758 347.188 244.686 347.596 244.686 348.084C244.686 348.804 244.85 349.36 245.178 349.752C245.506 350.136 245.942 350.328 246.486 350.328ZM251.214 351.084C251.054 351.084 250.934 351.04 250.854 350.952C250.774 350.864 250.734 350.74 250.734 350.58V342.948C250.734 342.788 250.774 342.668 250.854 342.588C250.934 342.5 251.054 342.456 251.214 342.456C251.366 342.456 251.486 342.5 251.574 342.588C251.662 342.668 251.706 342.788 251.706 342.948V346.464H251.55C251.718 346 251.99 345.652 252.366 345.42C252.75 345.18 253.19 345.06 253.686 345.06C254.15 345.06 254.534 345.144 254.838 345.312C255.15 345.48 255.382 345.736 255.534 346.08C255.686 346.416 255.762 346.844 255.762 347.364V350.58C255.762 350.74 255.718 350.864 255.63 350.952C255.55 351.04 255.434 351.084 255.282 351.084C255.122 351.084 254.998 351.04 254.91 350.952C254.83 350.864 254.79 350.74 254.79 350.58V347.424C254.79 346.88 254.682 346.484 254.466 346.236C254.258 345.98 253.922 345.852 253.458 345.852C252.922 345.852 252.494 346.02 252.174 346.356C251.862 346.684 251.706 347.124 251.706 347.676V350.58C251.706 350.916 251.542 351.084 251.214 351.084ZM259.979 351.108C259.411 351.108 258.919 350.984 258.503 350.736C258.087 350.488 257.763 350.14 257.531 349.692C257.307 349.236 257.195 348.7 257.195 348.084C257.195 347.62 257.259 347.204 257.387 346.836C257.515 346.46 257.703 346.14 257.951 345.876C258.199 345.612 258.491 345.412 258.827 345.276C259.171 345.132 259.555 345.06 259.979 345.06C260.547 345.06 261.039 345.184 261.455 345.432C261.871 345.68 262.191 346.032 262.415 346.488C262.647 346.936 262.763 347.468 262.763 348.084C262.763 348.548 262.699 348.964 262.571 349.332C262.443 349.7 262.255 350.02 262.007 350.292C261.759 350.556 261.463 350.76 261.119 350.904C260.783 351.04 260.403 351.108 259.979 351.108ZM259.979 350.328C260.339 350.328 260.655 350.24 260.927 350.064C261.199 349.888 261.407 349.632 261.551 349.296C261.703 348.96 261.779 348.556 261.779 348.084C261.779 347.356 261.615 346.8 261.287 346.416C260.967 346.032 260.531 345.84 259.979 345.84C259.611 345.84 259.291 345.928 259.019 346.104C258.755 346.272 258.547 346.524 258.395 346.86C258.251 347.188 258.179 347.596 258.179 348.084C258.179 348.804 258.343 349.36 258.671 349.752C258.999 350.136 259.435 350.328 259.979 350.328ZM264.703 351.084C264.543 351.084 264.423 351.04 264.343 350.952C264.263 350.864 264.223 350.74 264.223 350.58V345.576C264.223 345.416 264.263 345.296 264.343 345.216C264.423 345.128 264.539 345.084 264.691 345.084C264.843 345.084 264.959 345.128 265.039 345.216C265.127 345.296 265.171 345.416 265.171 345.576V346.608L265.039 346.464C265.207 346 265.479 345.652 265.855 345.42C266.239 345.18 266.679 345.06 267.175 345.06C267.639 345.06 268.023 345.144 268.327 345.312C268.639 345.48 268.871 345.736 269.023 346.08C269.175 346.416 269.251 346.844 269.251 347.364V350.58C269.251 350.74 269.207 350.864 269.119 350.952C269.039 351.04 268.923 351.084 268.771 351.084C268.611 351.084 268.487 351.04 268.399 350.952C268.319 350.864 268.279 350.74 268.279 350.58V347.424C268.279 346.88 268.171 346.484 267.955 346.236C267.747 345.98 267.411 345.852 266.947 345.852C266.411 345.852 265.983 346.02 265.663 346.356C265.351 346.684 265.195 347.124 265.195 347.676V350.58C265.195 350.916 265.031 351.084 264.703 351.084ZM273.671 351.108C273.055 351.108 272.523 350.988 272.075 350.748C271.635 350.5 271.291 350.152 271.043 349.704C270.803 349.256 270.683 348.72 270.683 348.096C270.683 347.488 270.803 346.96 271.043 346.512C271.283 346.056 271.611 345.7 272.027 345.444C272.451 345.188 272.939 345.06 273.491 345.06C273.883 345.06 274.235 345.128 274.547 345.264C274.859 345.392 275.123 345.58 275.339 345.828C275.563 346.076 275.731 346.376 275.843 346.728C275.963 347.08 276.023 347.476 276.023 347.916C276.023 348.044 275.987 348.14 275.915 348.204C275.843 348.26 275.739 348.288 275.603 348.288H271.427V347.652H275.375L275.183 347.808C275.183 347.376 275.119 347.012 274.991 346.716C274.863 346.412 274.675 346.18 274.427 346.02C274.187 345.86 273.883 345.78 273.515 345.78C273.107 345.78 272.759 345.876 272.471 346.068C272.191 346.252 271.979 346.512 271.835 346.848C271.691 347.176 271.619 347.56 271.619 348V348.072C271.619 348.808 271.795 349.368 272.147 349.752C272.507 350.136 273.015 350.328 273.671 350.328C273.943 350.328 274.211 350.292 274.475 350.22C274.747 350.148 275.011 350.028 275.267 349.86C275.379 349.788 275.479 349.756 275.567 349.764C275.663 349.764 275.739 349.792 275.795 349.848C275.851 349.896 275.887 349.96 275.903 350.04C275.927 350.112 275.919 350.192 275.879 350.28C275.847 350.368 275.779 350.444 275.675 350.508C275.411 350.7 275.099 350.848 274.739 350.952C274.379 351.056 274.023 351.108 273.671 351.108ZM282.863 351.108C282.407 351.108 282.023 351.028 281.711 350.868C281.407 350.7 281.179 350.46 281.027 350.148C280.875 349.828 280.799 349.44 280.799 348.984V345.924H279.995C279.859 345.924 279.755 345.892 279.683 345.828C279.611 345.756 279.575 345.66 279.575 345.54C279.575 345.42 279.611 345.328 279.683 345.264C279.755 345.2 279.859 345.168 279.995 345.168H280.799V343.788C280.799 343.628 280.843 343.508 280.931 343.428C281.019 343.34 281.139 343.296 281.291 343.296C281.443 343.296 281.559 343.34 281.639 343.428C281.727 343.508 281.771 343.628 281.771 343.788V345.168H283.283C283.419 345.168 283.523 345.2 283.595 345.264C283.667 345.328 283.703 345.42 283.703 345.54C283.703 345.66 283.667 345.756 283.595 345.828C283.523 345.892 283.419 345.924 283.283 345.924H281.771V348.888C281.771 349.344 281.867 349.692 282.059 349.932C282.251 350.164 282.563 350.28 282.995 350.28C283.147 350.28 283.275 350.264 283.379 350.232C283.491 350.2 283.583 350.184 283.655 350.184C283.727 350.176 283.787 350.2 283.835 350.256C283.883 350.312 283.907 350.408 283.907 350.544C283.907 350.64 283.887 350.728 283.847 350.808C283.815 350.888 283.755 350.944 283.667 350.976C283.571 351.008 283.443 351.036 283.283 351.06C283.131 351.092 282.991 351.108 282.863 351.108ZM287.084 351.108C286.516 351.108 286.024 350.984 285.608 350.736C285.192 350.488 284.868 350.14 284.636 349.692C284.412 349.236 284.3 348.7 284.3 348.084C284.3 347.62 284.364 347.204 284.492 346.836C284.62 346.46 284.808 346.14 285.056 345.876C285.304 345.612 285.596 345.412 285.932 345.276C286.276 345.132 286.66 345.06 287.084 345.06C287.652 345.06 288.144 345.184 288.56 345.432C288.976 345.68 289.296 346.032 289.52 346.488C289.752 346.936 289.868 347.468 289.868 348.084C289.868 348.548 289.804 348.964 289.676 349.332C289.548 349.7 289.36 350.02 289.112 350.292C288.864 350.556 288.568 350.76 288.224 350.904C287.888 351.04 287.508 351.108 287.084 351.108ZM287.084 350.328C287.444 350.328 287.76 350.24 288.032 350.064C288.304 349.888 288.512 349.632 288.656 349.296C288.808 348.96 288.884 348.556 288.884 348.084C288.884 347.356 288.72 346.8 288.392 346.416C288.072 346.032 287.636 345.84 287.084 345.84C286.716 345.84 286.396 345.928 286.124 346.104C285.86 346.272 285.652 346.524 285.5 346.86C285.356 347.188 285.284 347.596 285.284 348.084C285.284 348.804 285.448 349.36 285.776 349.752C286.104 350.136 286.54 350.328 287.084 350.328ZM129.837 369.244C129.677 369.244 129.557 369.2 129.477 369.112C129.397 369.032 129.357 368.912 129.357 368.752V361.576C129.357 361.416 129.397 361.296 129.477 361.216C129.557 361.128 129.673 361.084 129.825 361.084C129.985 361.084 130.105 361.128 130.185 361.216C130.273 361.296 130.317 361.416 130.317 361.576V362.716L130.185 362.548C130.313 362.092 130.565 361.732 130.941 361.468C131.325 361.196 131.781 361.06 132.309 361.06C132.829 361.06 133.281 361.184 133.665 361.432C134.057 361.672 134.357 362.02 134.565 362.476C134.781 362.924 134.889 363.46 134.889 364.084C134.889 364.7 134.781 365.236 134.565 365.692C134.357 366.14 134.061 366.488 133.677 366.736C133.293 366.984 132.837 367.108 132.309 367.108C131.781 367.108 131.329 366.976 130.953 366.712C130.577 366.44 130.321 366.08 130.185 365.632H130.329V368.752C130.329 368.912 130.285 369.032 130.197 369.112C130.109 369.2 129.989 369.244 129.837 369.244ZM132.105 366.328C132.473 366.328 132.789 366.24 133.053 366.064C133.325 365.888 133.533 365.632 133.677 365.296C133.829 364.96 133.905 364.556 133.905 364.084C133.905 363.356 133.741 362.8 133.413 362.416C133.093 362.032 132.657 361.84 132.105 361.84C131.745 361.84 131.429 361.928 131.157 362.104C130.885 362.272 130.673 362.524 130.521 362.86C130.377 363.188 130.305 363.596 130.305 364.084C130.305 364.804 130.469 365.36 130.797 365.752C131.125 366.136 131.561 366.328 132.105 366.328ZM138.777 367.108C138.209 367.108 137.717 366.984 137.301 366.736C136.885 366.488 136.561 366.14 136.329 365.692C136.105 365.236 135.993 364.7 135.993 364.084C135.993 363.62 136.057 363.204 136.185 362.836C136.313 362.46 136.501 362.14 136.749 361.876C136.997 361.612 137.289 361.412 137.625 361.276C137.969 361.132 138.353 361.06 138.777 361.06C139.345 361.06 139.837 361.184 140.253 361.432C140.669 361.68 140.989 362.032 141.213 362.488C141.445 362.936 141.561 363.468 141.561 364.084C141.561 364.548 141.497 364.964 141.369 365.332C141.241 365.7 141.053 366.02 140.805 366.292C140.557 366.556 140.261 366.76 139.917 366.904C139.581 367.04 139.201 367.108 138.777 367.108ZM138.777 366.328C139.137 366.328 139.453 366.24 139.725 366.064C139.997 365.888 140.205 365.632 140.349 365.296C140.501 364.96 140.577 364.556 140.577 364.084C140.577 363.356 140.413 362.8 140.085 362.416C139.765 362.032 139.329 361.84 138.777 361.84C138.409 361.84 138.089 361.928 137.817 362.104C137.553 362.272 137.345 362.524 137.193 362.86C137.049 363.188 136.977 363.596 136.977 364.084C136.977 364.804 137.141 365.36 137.469 365.752C137.797 366.136 138.233 366.328 138.777 366.328ZM143.501 367.06C143.341 367.06 143.221 367.016 143.141 366.928C143.061 366.832 143.021 366.7 143.021 366.532V361.624C143.021 361.456 143.061 361.328 143.141 361.24C143.221 361.152 143.341 361.108 143.501 361.108C143.653 361.108 143.773 361.152 143.861 361.24C143.949 361.328 143.993 361.456 143.993 361.624V366.532C143.993 366.7 143.949 366.832 143.861 366.928C143.781 367.016 143.661 367.06 143.501 367.06ZM143.501 359.764C143.301 359.764 143.145 359.712 143.033 359.608C142.921 359.496 142.865 359.348 142.865 359.164C142.865 358.972 142.921 358.828 143.033 358.732C143.145 358.628 143.301 358.576 143.501 358.576C143.709 358.576 143.865 358.628 143.969 358.732C144.081 358.828 144.137 358.972 144.137 359.164C144.137 359.348 144.081 359.496 143.969 359.608C143.865 359.712 143.709 359.764 143.501 359.764ZM146.29 367.084C146.13 367.084 146.01 367.04 145.93 366.952C145.85 366.864 145.81 366.74 145.81 366.58V361.576C145.81 361.416 145.85 361.296 145.93 361.216C146.01 361.128 146.126 361.084 146.278 361.084C146.43 361.084 146.546 361.128 146.626 361.216C146.714 361.296 146.758 361.416 146.758 361.576V362.608L146.626 362.464C146.794 362 147.066 361.652 147.442 361.42C147.826 361.18 148.266 361.06 148.762 361.06C149.226 361.06 149.61 361.144 149.914 361.312C150.226 361.48 150.458 361.736 150.61 362.08C150.762 362.416 150.838 362.844 150.838 363.364V366.58C150.838 366.74 150.794 366.864 150.706 366.952C150.626 367.04 150.51 367.084 150.358 367.084C150.198 367.084 150.074 367.04 149.986 366.952C149.906 366.864 149.866 366.74 149.866 366.58V363.424C149.866 362.88 149.758 362.484 149.542 362.236C149.334 361.98 148.998 361.852 148.534 361.852C147.998 361.852 147.57 362.02 147.25 362.356C146.938 362.684 146.782 363.124 146.782 363.676V366.58C146.782 366.916 146.618 367.084 146.29 367.084ZM154.971 367.108C154.515 367.108 154.131 367.028 153.819 366.868C153.515 366.7 153.287 366.46 153.135 366.148C152.983 365.828 152.907 365.44 152.907 364.984V361.924H152.103C151.967 361.924 151.863 361.892 151.791 361.828C151.719 361.756 151.683 361.66 151.683 361.54C151.683 361.42 151.719 361.328 151.791 361.264C151.863 361.2 151.967 361.168 152.103 361.168H152.907V359.788C152.907 359.628 152.951 359.508 153.039 359.428C153.127 359.34 153.247 359.296 153.399 359.296C153.551 359.296 153.667 359.34 153.747 359.428C153.835 359.508 153.879 359.628 153.879 359.788V361.168H155.391C155.527 361.168 155.631 361.2 155.703 361.264C155.775 361.328 155.811 361.42 155.811 361.54C155.811 361.66 155.775 361.756 155.703 361.828C155.631 361.892 155.527 361.924 155.391 361.924H153.879V364.888C153.879 365.344 153.975 365.692 154.167 365.932C154.359 366.164 154.671 366.28 155.103 366.28C155.255 366.28 155.383 366.264 155.487 366.232C155.599 366.2 155.691 366.184 155.763 366.184C155.835 366.176 155.895 366.2 155.943 366.256C155.991 366.312 156.015 366.408 156.015 366.544C156.015 366.64 155.995 366.728 155.955 366.808C155.923 366.888 155.863 366.944 155.775 366.976C155.679 367.008 155.551 367.036 155.391 367.06C155.239 367.092 155.099 367.108 154.971 367.108ZM161.756 367.108C161.356 367.108 160.996 367.032 160.676 366.88C160.364 366.72 160.116 366.504 159.932 366.232C159.748 365.96 159.656 365.656 159.656 365.32C159.656 364.888 159.764 364.548 159.98 364.3C160.204 364.052 160.568 363.876 161.072 363.772C161.584 363.668 162.28 363.616 163.16 363.616H163.7V364.252H163.172C162.524 364.252 162.012 364.284 161.636 364.348C161.268 364.404 161.008 364.504 160.856 364.648C160.712 364.792 160.64 364.996 160.64 365.26C160.64 365.588 160.752 365.856 160.976 366.064C161.208 366.272 161.52 366.376 161.912 366.376C162.232 366.376 162.512 366.3 162.752 366.148C163 365.996 163.192 365.788 163.328 365.524C163.472 365.26 163.544 364.956 163.544 364.612V363.244C163.544 362.748 163.444 362.392 163.244 362.176C163.044 361.952 162.716 361.84 162.26 361.84C161.98 361.84 161.7 361.876 161.42 361.948C161.14 362.02 160.844 362.136 160.532 362.296C160.42 362.352 160.324 362.372 160.244 362.356C160.164 362.332 160.1 362.288 160.052 362.224C160.004 362.16 159.976 362.088 159.968 362.008C159.96 361.92 159.976 361.836 160.016 361.756C160.064 361.676 160.136 361.612 160.232 361.564C160.584 361.388 160.932 361.26 161.276 361.18C161.62 361.1 161.948 361.06 162.26 361.06C162.764 361.06 163.18 361.144 163.508 361.312C163.836 361.472 164.08 361.72 164.24 362.056C164.4 362.384 164.48 362.808 164.48 363.328V366.58C164.48 366.74 164.44 366.864 164.36 366.952C164.288 367.04 164.18 367.084 164.036 367.084C163.884 367.084 163.768 367.04 163.688 366.952C163.608 366.864 163.568 366.74 163.568 366.58V365.644H163.676C163.612 365.948 163.488 366.208 163.304 366.424C163.128 366.64 162.908 366.808 162.644 366.928C162.38 367.048 162.084 367.108 161.756 367.108ZM168.623 367.108C168.167 367.108 167.783 367.028 167.471 366.868C167.167 366.7 166.939 366.46 166.787 366.148C166.635 365.828 166.559 365.44 166.559 364.984V361.924H165.755C165.619 361.924 165.515 361.892 165.443 361.828C165.371 361.756 165.335 361.66 165.335 361.54C165.335 361.42 165.371 361.328 165.443 361.264C165.515 361.2 165.619 361.168 165.755 361.168H166.559V359.788C166.559 359.628 166.603 359.508 166.691 359.428C166.779 359.34 166.899 359.296 167.051 359.296C167.203 359.296 167.319 359.34 167.399 359.428C167.487 359.508 167.531 359.628 167.531 359.788V361.168H169.043C169.179 361.168 169.283 361.2 169.355 361.264C169.427 361.328 169.463 361.42 169.463 361.54C169.463 361.66 169.427 361.756 169.355 361.828C169.283 361.892 169.179 361.924 169.043 361.924H167.531V364.888C167.531 365.344 167.627 365.692 167.819 365.932C168.011 366.164 168.323 366.28 168.755 366.28C168.907 366.28 169.035 366.264 169.139 366.232C169.251 366.2 169.343 366.184 169.415 366.184C169.487 366.176 169.547 366.2 169.595 366.256C169.643 366.312 169.667 366.408 169.667 366.544C169.667 366.64 169.647 366.728 169.607 366.808C169.575 366.888 169.515 366.944 169.427 366.976C169.331 367.008 169.203 367.036 169.043 367.06C168.891 367.092 168.751 367.108 168.623 367.108ZM175.912 367.108C175.456 367.108 175.072 367.028 174.76 366.868C174.456 366.7 174.228 366.46 174.076 366.148C173.924 365.828 173.848 365.44 173.848 364.984V361.924H173.044C172.908 361.924 172.804 361.892 172.732 361.828C172.66 361.756 172.624 361.66 172.624 361.54C172.624 361.42 172.66 361.328 172.732 361.264C172.804 361.2 172.908 361.168 173.044 361.168H173.848V359.788C173.848 359.628 173.892 359.508 173.98 359.428C174.068 359.34 174.188 359.296 174.34 359.296C174.492 359.296 174.608 359.34 174.688 359.428C174.776 359.508 174.82 359.628 174.82 359.788V361.168H176.332C176.468 361.168 176.572 361.2 176.644 361.264C176.716 361.328 176.752 361.42 176.752 361.54C176.752 361.66 176.716 361.756 176.644 361.828C176.572 361.892 176.468 361.924 176.332 361.924H174.82V364.888C174.82 365.344 174.916 365.692 175.108 365.932C175.3 366.164 175.612 366.28 176.044 366.28C176.196 366.28 176.324 366.264 176.428 366.232C176.54 366.2 176.632 366.184 176.704 366.184C176.776 366.176 176.836 366.2 176.884 366.256C176.932 366.312 176.956 366.408 176.956 366.544C176.956 366.64 176.936 366.728 176.896 366.808C176.864 366.888 176.804 366.944 176.716 366.976C176.62 367.008 176.492 367.036 176.332 367.06C176.18 367.092 176.04 367.108 175.912 367.108ZM178.318 367.084C178.158 367.084 178.038 367.04 177.958 366.952C177.878 366.864 177.838 366.74 177.838 366.58V358.948C177.838 358.788 177.878 358.668 177.958 358.588C178.038 358.5 178.158 358.456 178.318 358.456C178.47 358.456 178.59 358.5 178.678 358.588C178.766 358.668 178.81 358.788 178.81 358.948V362.464H178.654C178.822 362 179.094 361.652 179.47 361.42C179.854 361.18 180.294 361.06 180.79 361.06C181.254 361.06 181.638 361.144 181.942 361.312C182.254 361.48 182.486 361.736 182.638 362.08C182.79 362.416 182.866 362.844 182.866 363.364V366.58C182.866 366.74 182.822 366.864 182.734 366.952C182.654 367.04 182.538 367.084 182.386 367.084C182.226 367.084 182.102 367.04 182.014 366.952C181.934 366.864 181.894 366.74 181.894 366.58V363.424C181.894 362.88 181.786 362.484 181.57 362.236C181.362 361.98 181.026 361.852 180.562 361.852C180.026 361.852 179.598 362.02 179.278 362.356C178.966 362.684 178.81 363.124 178.81 363.676V366.58C178.81 366.916 178.646 367.084 178.318 367.084ZM187.286 367.108C186.67 367.108 186.138 366.988 185.69 366.748C185.25 366.5 184.906 366.152 184.658 365.704C184.418 365.256 184.298 364.72 184.298 364.096C184.298 363.488 184.418 362.96 184.658 362.512C184.898 362.056 185.226 361.7 185.642 361.444C186.066 361.188 186.554 361.06 187.106 361.06C187.498 361.06 187.85 361.128 188.162 361.264C188.474 361.392 188.738 361.58 188.954 361.828C189.178 362.076 189.346 362.376 189.458 362.728C189.578 363.08 189.638 363.476 189.638 363.916C189.638 364.044 189.602 364.14 189.53 364.204C189.458 364.26 189.354 364.288 189.218 364.288H185.042V363.652H188.99L188.798 363.808C188.798 363.376 188.734 363.012 188.606 362.716C188.478 362.412 188.29 362.18 188.042 362.02C187.802 361.86 187.498 361.78 187.13 361.78C186.722 361.78 186.374 361.876 186.086 362.068C185.806 362.252 185.594 362.512 185.45 362.848C185.306 363.176 185.234 363.56 185.234 364V364.072C185.234 364.808 185.41 365.368 185.762 365.752C186.122 366.136 186.63 366.328 187.286 366.328C187.558 366.328 187.826 366.292 188.09 366.22C188.362 366.148 188.626 366.028 188.882 365.86C188.994 365.788 189.094 365.756 189.182 365.764C189.278 365.764 189.354 365.792 189.41 365.848C189.466 365.896 189.502 365.96 189.518 366.04C189.542 366.112 189.534 366.192 189.494 366.28C189.462 366.368 189.394 366.444 189.29 366.508C189.026 366.7 188.714 366.848 188.354 366.952C187.994 367.056 187.638 367.108 187.286 367.108ZM200.751 368.596C200.831 368.716 200.863 368.824 200.847 368.92C200.839 369.024 200.799 369.108 200.727 369.172C200.663 369.244 200.583 369.288 200.487 369.304C200.391 369.328 200.291 369.316 200.187 369.268C200.091 369.228 200.007 369.148 199.935 369.028L199.155 367.792C199.027 367.568 198.851 367.396 198.627 367.276C198.403 367.164 198.135 367.108 197.823 367.108L198.639 366.76C199.015 366.76 199.311 366.828 199.527 366.964C199.751 367.092 199.971 367.332 200.187 367.684L200.751 368.596ZM197.823 367.108C197.039 367.108 196.355 366.932 195.771 366.58C195.195 366.22 194.747 365.716 194.427 365.068C194.115 364.42 193.959 363.652 193.959 362.764C193.959 362.092 194.047 361.492 194.223 360.964C194.407 360.428 194.667 359.976 195.003 359.608C195.339 359.232 195.743 358.944 196.215 358.744C196.695 358.536 197.231 358.432 197.823 358.432C198.623 358.432 199.311 358.608 199.887 358.96C200.471 359.312 200.919 359.812 201.231 360.46C201.551 361.1 201.711 361.864 201.711 362.752C201.711 363.424 201.619 364.028 201.435 364.564C201.251 365.1 200.991 365.556 200.655 365.932C200.319 366.308 199.911 366.6 199.431 366.808C198.959 367.008 198.423 367.108 197.823 367.108ZM197.823 366.232C198.431 366.232 198.943 366.096 199.359 365.824C199.783 365.552 200.107 365.156 200.331 364.636C200.555 364.116 200.667 363.492 200.667 362.764C200.667 361.668 200.419 360.82 199.923 360.22C199.435 359.612 198.735 359.308 197.823 359.308C197.231 359.308 196.723 359.444 196.299 359.716C195.883 359.988 195.563 360.384 195.339 360.904C195.115 361.416 195.003 362.036 195.003 362.764C195.003 363.852 195.251 364.704 195.747 365.32C196.243 365.928 196.935 366.232 197.823 366.232ZM203.962 367.084C203.802 367.084 203.678 367.04 203.59 366.952C203.51 366.856 203.47 366.728 203.47 366.568V359.044C203.47 358.876 203.514 358.752 203.602 358.672C203.69 358.584 203.814 358.54 203.974 358.54H206.818C207.722 358.54 208.418 358.752 208.906 359.176C209.394 359.6 209.638 360.204 209.638 360.988C209.638 361.484 209.526 361.916 209.302 362.284C209.086 362.644 208.766 362.92 208.342 363.112C207.918 363.296 207.41 363.388 206.818 363.388L206.938 363.232H207.178C207.49 363.232 207.762 363.312 207.994 363.472C208.226 363.632 208.438 363.888 208.63 364.24L209.782 366.388C209.846 366.5 209.874 366.612 209.866 366.724C209.866 366.828 209.83 366.916 209.758 366.988C209.686 367.052 209.582 367.084 209.446 367.084C209.31 367.084 209.198 367.052 209.11 366.988C209.022 366.924 208.946 366.832 208.882 366.712L207.574 364.288C207.39 363.944 207.178 363.716 206.938 363.604C206.698 363.484 206.382 363.424 205.99 363.424H204.454V366.568C204.454 366.728 204.414 366.856 204.334 366.952C204.254 367.04 204.13 367.084 203.962 367.084ZM204.454 362.644H206.674C207.33 362.644 207.826 362.508 208.162 362.236C208.498 361.956 208.666 361.54 208.666 360.988C208.666 360.452 208.498 360.048 208.162 359.776C207.826 359.496 207.33 359.356 206.674 359.356H204.454V362.644ZM216.931 367.108C216.347 367.108 215.843 366.98 215.419 366.724C214.995 366.468 214.667 366.112 214.435 365.656C214.211 365.192 214.099 364.656 214.099 364.048C214.099 363.584 214.163 363.168 214.291 362.8C214.419 362.432 214.607 362.12 214.855 361.864C215.103 361.6 215.399 361.4 215.743 361.264C216.095 361.128 216.491 361.06 216.931 361.06C217.219 361.06 217.519 361.104 217.831 361.192C218.143 361.28 218.427 361.432 218.683 361.648C218.763 361.704 218.815 361.772 218.839 361.852C218.863 361.932 218.863 362.012 218.839 362.092C218.815 362.164 218.775 362.228 218.719 362.284C218.663 362.332 218.591 362.36 218.503 362.368C218.423 362.376 218.339 362.348 218.251 362.284C218.043 362.124 217.831 362.012 217.615 361.948C217.399 361.884 217.191 361.852 216.991 361.852C216.679 361.852 216.407 361.904 216.175 362.008C215.943 362.104 215.747 362.244 215.587 362.428C215.427 362.612 215.303 362.84 215.215 363.112C215.135 363.384 215.095 363.7 215.095 364.06C215.095 364.756 215.259 365.308 215.587 365.716C215.915 366.116 216.383 366.316 216.991 366.316C217.191 366.316 217.395 366.284 217.603 366.22C217.819 366.156 218.035 366.044 218.251 365.884C218.339 365.82 218.423 365.792 218.503 365.8C218.583 365.808 218.651 365.84 218.707 365.896C218.763 365.944 218.799 366.008 218.815 366.088C218.839 366.168 218.839 366.248 218.815 366.328C218.791 366.4 218.739 366.464 218.659 366.52C218.403 366.728 218.123 366.88 217.819 366.976C217.515 367.064 217.219 367.108 216.931 367.108ZM222.32 367.108C221.752 367.108 221.26 366.984 220.844 366.736C220.428 366.488 220.104 366.14 219.872 365.692C219.648 365.236 219.536 364.7 219.536 364.084C219.536 363.62 219.6 363.204 219.728 362.836C219.856 362.46 220.044 362.14 220.292 361.876C220.54 361.612 220.832 361.412 221.168 361.276C221.512 361.132 221.896 361.06 222.32 361.06C222.888 361.06 223.38 361.184 223.796 361.432C224.212 361.68 224.532 362.032 224.756 362.488C224.988 362.936 225.104 363.468 225.104 364.084C225.104 364.548 225.04 364.964 224.912 365.332C224.784 365.7 224.596 366.02 224.348 366.292C224.1 366.556 223.804 366.76 223.46 366.904C223.124 367.04 222.744 367.108 222.32 367.108ZM222.32 366.328C222.68 366.328 222.996 366.24 223.268 366.064C223.54 365.888 223.748 365.632 223.892 365.296C224.044 364.96 224.12 364.556 224.12 364.084C224.12 363.356 223.956 362.8 223.628 362.416C223.308 362.032 222.872 361.84 222.32 361.84C221.952 361.84 221.632 361.928 221.36 362.104C221.096 362.272 220.888 362.524 220.736 362.86C220.592 363.188 220.52 363.596 220.52 364.084C220.52 364.804 220.684 365.36 221.012 365.752C221.34 366.136 221.776 366.328 222.32 366.328ZM228.784 367.108C228.264 367.108 227.808 366.984 227.416 366.736C227.032 366.488 226.732 366.14 226.516 365.692C226.308 365.236 226.204 364.7 226.204 364.084C226.204 363.46 226.308 362.924 226.516 362.476C226.732 362.02 227.032 361.672 227.416 361.432C227.808 361.184 228.264 361.06 228.784 361.06C229.312 361.06 229.764 361.192 230.14 361.456C230.516 361.72 230.768 362.076 230.896 362.524H230.764V358.948C230.764 358.788 230.804 358.668 230.884 358.588C230.972 358.5 231.096 358.456 231.256 358.456C231.408 358.456 231.524 358.5 231.604 358.588C231.692 358.668 231.736 358.788 231.736 358.948V366.58C231.736 366.74 231.696 366.864 231.616 366.952C231.536 367.04 231.416 367.084 231.256 367.084C231.104 367.084 230.984 367.04 230.896 366.952C230.816 366.864 230.776 366.74 230.776 366.58V365.44L230.908 365.608C230.78 366.064 230.524 366.428 230.14 366.7C229.764 366.972 229.312 367.108 228.784 367.108ZM228.988 366.328C229.348 366.328 229.664 366.24 229.936 366.064C230.208 365.888 230.416 365.632 230.56 365.296C230.712 364.96 230.788 364.556 230.788 364.084C230.788 363.356 230.624 362.8 230.296 362.416C229.976 362.032 229.54 361.84 228.988 361.84C228.62 361.84 228.3 361.928 228.028 362.104C227.764 362.272 227.556 362.524 227.404 362.86C227.26 363.188 227.188 363.596 227.188 364.084C227.188 364.804 227.352 365.36 227.68 365.752C228.008 366.136 228.444 366.328 228.988 366.328ZM236.188 367.108C235.572 367.108 235.04 366.988 234.592 366.748C234.152 366.5 233.808 366.152 233.56 365.704C233.32 365.256 233.2 364.72 233.2 364.096C233.2 363.488 233.32 362.96 233.56 362.512C233.8 362.056 234.128 361.7 234.544 361.444C234.968 361.188 235.456 361.06 236.008 361.06C236.4 361.06 236.752 361.128 237.064 361.264C237.376 361.392 237.64 361.58 237.856 361.828C238.08 362.076 238.248 362.376 238.36 362.728C238.48 363.08 238.54 363.476 238.54 363.916C238.54 364.044 238.504 364.14 238.432 364.204C238.36 364.26 238.256 364.288 238.12 364.288H233.944V363.652H237.892L237.7 363.808C237.7 363.376 237.636 363.012 237.508 362.716C237.38 362.412 237.192 362.18 236.944 362.02C236.704 361.86 236.4 361.78 236.032 361.78C235.624 361.78 235.276 361.876 234.988 362.068C234.708 362.252 234.496 362.512 234.352 362.848C234.208 363.176 234.136 363.56 234.136 364V364.072C234.136 364.808 234.312 365.368 234.664 365.752C235.024 366.136 235.532 366.328 236.188 366.328C236.46 366.328 236.728 366.292 236.992 366.22C237.264 366.148 237.528 366.028 237.784 365.86C237.896 365.788 237.996 365.756 238.084 365.764C238.18 365.764 238.256 365.792 238.312 365.848C238.368 365.896 238.404 365.96 238.42 366.04C238.444 366.112 238.436 366.192 238.396 366.28C238.364 366.368 238.296 366.444 238.192 366.508C237.928 366.7 237.616 366.848 237.256 366.952C236.896 367.056 236.54 367.108 236.188 367.108ZM244.877 367.108C244.477 367.108 244.117 367.032 243.797 366.88C243.485 366.72 243.237 366.504 243.053 366.232C242.869 365.96 242.777 365.656 242.777 365.32C242.777 364.888 242.885 364.548 243.101 364.3C243.325 364.052 243.689 363.876 244.193 363.772C244.705 363.668 245.401 363.616 246.281 363.616H246.821V364.252H246.293C245.645 364.252 245.133 364.284 244.757 364.348C244.389 364.404 244.129 364.504 243.977 364.648C243.833 364.792 243.761 364.996 243.761 365.26C243.761 365.588 243.873 365.856 244.097 366.064C244.329 366.272 244.641 366.376 245.033 366.376C245.353 366.376 245.633 366.3 245.873 366.148C246.121 365.996 246.313 365.788 246.449 365.524C246.593 365.26 246.665 364.956 246.665 364.612V363.244C246.665 362.748 246.565 362.392 246.365 362.176C246.165 361.952 245.837 361.84 245.381 361.84C245.101 361.84 244.821 361.876 244.541 361.948C244.261 362.02 243.965 362.136 243.653 362.296C243.541 362.352 243.445 362.372 243.365 362.356C243.285 362.332 243.221 362.288 243.173 362.224C243.125 362.16 243.097 362.088 243.089 362.008C243.081 361.92 243.097 361.836 243.137 361.756C243.185 361.676 243.257 361.612 243.353 361.564C243.705 361.388 244.053 361.26 244.397 361.18C244.741 361.1 245.069 361.06 245.381 361.06C245.885 361.06 246.301 361.144 246.629 361.312C246.957 361.472 247.201 361.72 247.361 362.056C247.521 362.384 247.601 362.808 247.601 363.328V366.58C247.601 366.74 247.561 366.864 247.481 366.952C247.409 367.04 247.301 367.084 247.157 367.084C247.005 367.084 246.889 367.04 246.809 366.952C246.729 366.864 246.689 366.74 246.689 366.58V365.644H246.797C246.733 365.948 246.609 366.208 246.425 366.424C246.249 366.64 246.029 366.808 245.765 366.928C245.501 367.048 245.205 367.108 244.877 367.108ZM252.356 367.108C251.828 367.108 251.372 366.972 250.988 366.7C250.612 366.428 250.36 366.064 250.232 365.608L250.364 365.476V366.58C250.364 366.74 250.32 366.864 250.232 366.952C250.152 367.04 250.036 367.084 249.884 367.084C249.724 367.084 249.604 367.04 249.524 366.952C249.444 366.864 249.404 366.74 249.404 366.58V358.948C249.404 358.788 249.444 358.668 249.524 358.588C249.604 358.5 249.724 358.456 249.884 358.456C250.036 358.456 250.156 358.5 250.244 358.588C250.332 358.668 250.376 358.788 250.376 358.948V362.524H250.232C250.368 362.076 250.624 361.72 251 361.456C251.376 361.192 251.828 361.06 252.356 361.06C252.884 361.06 253.34 361.184 253.724 361.432C254.108 361.672 254.404 362.02 254.612 362.476C254.828 362.924 254.936 363.46 254.936 364.084C254.936 364.7 254.828 365.236 254.612 365.692C254.404 366.14 254.104 366.488 253.712 366.736C253.328 366.984 252.876 367.108 252.356 367.108ZM252.152 366.328C252.52 366.328 252.836 366.24 253.1 366.064C253.372 365.888 253.58 365.632 253.724 365.296C253.876 364.96 253.952 364.556 253.952 364.084C253.952 363.356 253.788 362.8 253.46 362.416C253.14 362.032 252.704 361.84 252.152 361.84C251.792 361.84 251.476 361.928 251.204 362.104C250.932 362.272 250.72 362.524 250.568 362.86C250.424 363.188 250.352 363.596 250.352 364.084C250.352 364.804 250.516 365.36 250.844 365.752C251.172 366.136 251.608 366.328 252.152 366.328ZM258.824 367.108C258.256 367.108 257.764 366.984 257.348 366.736C256.932 366.488 256.608 366.14 256.376 365.692C256.152 365.236 256.04 364.7 256.04 364.084C256.04 363.62 256.104 363.204 256.232 362.836C256.36 362.46 256.548 362.14 256.796 361.876C257.044 361.612 257.336 361.412 257.672 361.276C258.016 361.132 258.4 361.06 258.824 361.06C259.392 361.06 259.884 361.184 260.3 361.432C260.716 361.68 261.036 362.032 261.26 362.488C261.492 362.936 261.608 363.468 261.608 364.084C261.608 364.548 261.544 364.964 261.416 365.332C261.288 365.7 261.1 366.02 260.852 366.292C260.604 366.556 260.308 366.76 259.964 366.904C259.628 367.04 259.248 367.108 258.824 367.108ZM258.824 366.328C259.184 366.328 259.5 366.24 259.772 366.064C260.044 365.888 260.252 365.632 260.396 365.296C260.548 364.96 260.624 364.556 260.624 364.084C260.624 363.356 260.46 362.8 260.132 362.416C259.812 362.032 259.376 361.84 258.824 361.84C258.456 361.84 258.136 361.928 257.864 362.104C257.6 362.272 257.392 362.524 257.24 362.86C257.096 363.188 257.024 363.596 257.024 364.084C257.024 364.804 257.188 365.36 257.516 365.752C257.844 366.136 258.28 366.328 258.824 366.328ZM265.158 367.084C265.022 367.084 264.902 367.048 264.798 366.976C264.694 366.896 264.606 366.776 264.534 366.616L262.458 361.768C262.402 361.648 262.382 361.536 262.398 361.432C262.414 361.328 262.462 361.244 262.542 361.18C262.622 361.116 262.734 361.084 262.878 361.084C263.006 361.084 263.106 361.112 263.178 361.168C263.25 361.224 263.314 361.324 263.37 361.468L265.338 366.28H265.014L267.018 361.468C267.074 361.324 267.138 361.224 267.21 361.168C267.282 361.112 267.386 361.084 267.522 361.084C267.65 361.084 267.746 361.116 267.81 361.18C267.882 361.244 267.922 361.328 267.93 361.432C267.946 361.528 267.93 361.636 267.882 361.756L265.782 366.616C265.726 366.776 265.642 366.896 265.53 366.976C265.426 367.048 265.302 367.084 265.158 367.084ZM271.708 367.108C271.092 367.108 270.56 366.988 270.112 366.748C269.672 366.5 269.328 366.152 269.08 365.704C268.84 365.256 268.72 364.72 268.72 364.096C268.72 363.488 268.84 362.96 269.08 362.512C269.32 362.056 269.648 361.7 270.064 361.444C270.488 361.188 270.976 361.06 271.528 361.06C271.92 361.06 272.272 361.128 272.584 361.264C272.896 361.392 273.16 361.58 273.376 361.828C273.6 362.076 273.768 362.376 273.88 362.728C274 363.08 274.06 363.476 274.06 363.916C274.06 364.044 274.024 364.14 273.952 364.204C273.88 364.26 273.776 364.288 273.64 364.288H269.464V363.652H273.412L273.22 363.808C273.22 363.376 273.156 363.012 273.028 362.716C272.9 362.412 272.712 362.18 272.464 362.02C272.224 361.86 271.92 361.78 271.552 361.78C271.144 361.78 270.796 361.876 270.508 362.068C270.228 362.252 270.016 362.512 269.872 362.848C269.728 363.176 269.656 363.56 269.656 364V364.072C269.656 364.808 269.832 365.368 270.184 365.752C270.544 366.136 271.052 366.328 271.708 366.328C271.98 366.328 272.248 366.292 272.512 366.22C272.784 366.148 273.048 366.028 273.304 365.86C273.416 365.788 273.516 365.756 273.604 365.764C273.7 365.764 273.776 365.792 273.832 365.848C273.888 365.896 273.924 365.96 273.94 366.04C273.964 366.112 273.956 366.192 273.916 366.28C273.884 366.368 273.816 366.444 273.712 366.508C273.448 366.7 273.136 366.848 272.776 366.952C272.416 367.056 272.06 367.108 271.708 367.108Z" fill="#999999"/>
<path d="M187.74 58.9813L200.057 71.2958L194.87 76.4823L187.74 69.3506C186.366 67.9754 185.593 66.1105 185.593 64.166C185.593 62.2214 186.366 60.3565 187.74 58.9813ZM206.158 74.2695L204.594 75.8333L217.556 88.7968L214.965 91.3891L202 78.4275L189.035 91.3891L186.442 88.7968L203.564 71.6753C202.486 69.0041 203.6 65.1578 206.536 62.2226C210.116 58.6421 215.05 57.7713 217.554 60.2775C220.062 62.7836 219.191 67.7171 215.611 71.2958C212.674 74.2328 208.829 75.3475 206.158 74.2695Z" fill="#2B2B2B"/>
<path d="M145.75 141.75H164.5V160.5H145.75V141.75Z" fill="black"/>
<path d="M183.25 123V179.25H127V123H183.25ZM173.875 132.375H136.375V169.875H173.875V132.375ZM164.5 235.5H145.75V254.25H164.5V235.5Z" fill="black"/>
<path d="M183.25 216.75V273H127V216.75H183.25ZM136.375 226.125V263.625H173.875V226.125H136.375ZM239.5 141.75H258.25V160.5H239.5V141.75Z" fill="black"/>
<path d="M220.75 123V179.25H277V123H220.75ZM267.625 132.375V169.875H230.125V132.375H267.625ZM202 132.375V123H211.375V141.75H202V160.5H192.625V132.375H202ZM202 179.25V160.5H211.375V179.25H202ZM183.25 198V188.625H192.625V179.25H202V198H211.375V188.625H258.25V198H220.75V207.375H192.625V198H183.25ZM183.25 198V207.375H145.75V198H136.375V207.375H127V188.625H155.125V198H183.25ZM277 207.375H267.625V188.625H277V207.375ZM267.625 207.375H258.25V226.125H277V216.75H267.625V207.375ZM230.125 207.375H248.875V216.75H239.5V226.125H230.125V207.375ZM248.875 235.5V226.125H239.5V235.5H230.125V244.875H211.375V254.25H239.5V235.5H248.875ZM248.875 235.5H277V244.875H258.25V254.25H248.875V235.5ZM211.375 226.125V235.5H220.75V216.75H192.625V226.125H211.375Z" fill="black"/>
<path d="M192.625 235.5H202V263.625H239.5V273H192.625V235.5ZM277 254.25V273H248.875V263.625H267.625V254.25H277Z" fill="black"/>
<path d="M267.5 114C267.224 114 267 114.224 267 114.5C267 114.776 267.224 115 267.5 115H286.5V132C286.5 132.276 286.724 132.5 287 132.5C287.276 132.5 287.5 132.276 287.5 132V114H267.5Z" fill="black"/>
<path d="M136.5 114C136.776 114 137 114.224 137 114.5C137 114.776 136.776 115 136.5 115H117.5V132C117.5 132.276 117.276 132.5 117 132.5C116.724 132.5 116.5 132.276 116.5 132V114H136.5Z" fill="black"/>
<path d="M136 282.5C136.276 282.5 136.5 282.276 136.5 282C136.5 281.724 136.276 281.5 136 281.5H117V264.5C117 264.224 116.776 264 116.5 264C116.224 264 116 264.224 116 264.5V282.5H136Z" fill="black"/>
<path d="M267.5 282.5C267.224 282.5 267 282.276 267 282C267 281.724 267.224 281.5 267.5 281.5H286.5V264.5C286.5 264.224 286.724 264 287 264C287.276 264 287.5 264.224 287.5 264.5V282.5H267.5Z" fill="black"/>
</g>
<defs>
<filter id="filter0_d_118_6482" x="0.99183" y="0.539513" width="409.381" height="482.381" filterUnits="userSpaceOnUse" color-interpolation-filters="sRGB">
<feFlood flood-opacity="0" result="BackgroundImageFix"/>
<feColorMatrix in="SourceAlpha" type="matrix" values="0 0 0 0 0 0 0 0 0 0 0 0 0 0 0 0 0 0 127 0" result="hardAlpha"/>
<feOffset dx="4.18256" dy="16.7302"/>
<feGaussianBlur stdDeviation="25.0954"/>
<feComposite in2="hardAlpha" operator="out"/>
<feColorMatrix type="matrix" values="0 0 0 0 0.7 0 0 0 0 0.7 0 0 0 0 0.7 0 0 0 0.15 0"/>
<feBlend mode="normal" in2="BackgroundImageFix" result="effect1_dropShadow_118_6482"/>
<feBlend mode="normal" in="SourceGraphic" in2="effect1_dropShadow_118_6482" result="shape"/>
</filter>
</defs>
</svg>
