<svg width="18" height="19" viewBox="0 0 18 19" fill="none" xmlns="http://www.w3.org/2000/svg">
    <path fill-rule="evenodd" clip-rule="evenodd" d="M3.35922 1.7H3.29922C3.02442 1.7 2.78802 1.7 2.57922 1.7492C2.25598 1.82643 1.96044 1.99165 1.72534 2.22654C1.49023 2.46144 1.32475 2.75683 1.24722 3.08C1.19922 3.2888 1.19922 3.524 1.19922 3.8V6.8C1.19922 7.0748 1.19922 7.3112 1.24842 7.52C1.32566 7.84323 1.49087 8.13878 1.72577 8.37388C1.96066 8.60898 2.25605 8.77447 2.57922 8.852C2.78802 8.9 3.02322 8.9 3.29922 8.9H6.29922C6.57402 8.9 6.81042 8.9 7.01922 8.8508C7.34245 8.77356 7.638 8.60834 7.8731 8.37345C8.1082 8.13856 8.27369 7.84316 8.35122 7.52C8.39922 7.3112 8.39922 7.076 8.39922 6.8V3.8C8.39922 3.5252 8.39922 3.2888 8.35002 3.08C8.27278 2.75676 8.10756 2.46122 7.87267 2.22611C7.63778 1.99101 7.34239 1.82553 7.01922 1.748C6.81042 1.7 6.57522 1.7 6.29922 1.7H3.35922ZM2.85882 2.9168C2.91042 2.9048 2.99082 2.9 3.35922 2.9H6.23922C6.60882 2.9 6.68802 2.9036 6.73962 2.9168C6.84741 2.94257 6.94596 2.99771 7.02434 3.07608C7.10271 3.15445 7.15784 3.253 7.18362 3.3608C7.19562 3.4112 7.19922 3.4904 7.19922 3.86V6.74C7.19922 7.1096 7.19562 7.1888 7.18242 7.2404C7.15664 7.34819 7.10151 7.44674 7.02314 7.52511C6.94476 7.60349 6.84621 7.65862 6.73842 7.6844C6.68922 7.6952 6.61002 7.7 6.23922 7.7H3.35922C2.98962 7.7 2.91042 7.6964 2.85882 7.6832C2.75102 7.65742 2.65247 7.60229 2.5741 7.52391C2.49573 7.44554 2.4406 7.34699 2.41482 7.2392C2.40402 7.19 2.39922 7.1108 2.39922 6.74V3.86C2.39922 3.4904 2.40282 3.4112 2.41602 3.3596C2.4418 3.2518 2.49693 3.15325 2.5753 3.07488C2.65367 2.99651 2.75222 2.94137 2.86002 2.9156L2.85882 2.9168ZM11.7592 1.7H11.6992C11.4244 1.7 11.188 1.7 10.9792 1.7492C10.656 1.82643 10.3604 1.99165 10.1253 2.22654C9.89023 2.46144 9.72475 2.75683 9.64722 3.08C9.59922 3.2888 9.59922 3.524 9.59922 3.8V6.8C9.59922 7.0748 9.59922 7.3112 9.64842 7.52C9.72566 7.84323 9.89087 8.13878 10.1258 8.37388C10.3607 8.60898 10.6561 8.77447 10.9792 8.852C11.188 8.9 11.4232 8.9 11.6992 8.9H14.6992C14.974 8.9 15.2104 8.9 15.4192 8.8508C15.7425 8.77356 16.038 8.60834 16.2731 8.37345C16.5082 8.13856 16.6737 7.84316 16.7512 7.52C16.7992 7.3112 16.7992 7.076 16.7992 6.8V3.8C16.7992 3.5252 16.7992 3.2888 16.75 3.08C16.6728 2.75676 16.5076 2.46122 16.2727 2.22611C16.0378 1.99101 15.7424 1.82553 15.4192 1.748C15.2104 1.7 14.9752 1.7 14.6992 1.7H11.7592ZM11.2588 2.9168C11.3104 2.9048 11.3908 2.9 11.7592 2.9H14.6392C15.0088 2.9 15.088 2.9036 15.1396 2.9168C15.2474 2.94257 15.346 2.99771 15.4243 3.07608C15.5027 3.15445 15.5578 3.253 15.5836 3.3608C15.5956 3.4112 15.5992 3.4904 15.5992 3.86V6.74C15.5992 7.1096 15.5944 7.1888 15.5824 7.2404C15.5566 7.34819 15.5015 7.44674 15.4231 7.52511C15.3448 7.60349 15.2462 7.65862 15.1384 7.6844C15.088 7.6964 15.0088 7.7 14.6392 7.7H11.7592C11.3896 7.7 11.3104 7.6964 11.2588 7.6832C11.151 7.65742 11.0525 7.60229 10.9741 7.52391C10.8957 7.44554 10.8406 7.34699 10.8148 7.2392C10.804 7.19 10.7992 7.1108 10.7992 6.74V3.86C10.7992 3.4904 10.8028 3.4112 10.816 3.3596C10.8418 3.2518 10.8969 3.15325 10.9753 3.07488C11.0537 2.99651 11.1522 2.94137 11.26 2.9156L11.2588 2.9168ZM3.29922 10.1H6.29922C6.57402 10.1 6.81042 10.1 7.01922 10.1492C7.34245 10.2264 7.638 10.3917 7.8731 10.6265C8.1082 10.8614 8.27369 11.1568 8.35122 11.48C8.39922 11.6888 8.39922 11.924 8.39922 12.2V15.2C8.39922 15.4748 8.39922 15.7112 8.35002 15.92C8.27278 16.2432 8.10756 16.5388 7.87267 16.7739C7.63778 17.009 7.34239 17.1745 7.01922 17.252C6.81042 17.3 6.57522 17.3 6.29922 17.3H3.29922C3.02442 17.3 2.78802 17.3 2.57922 17.2508C2.25598 17.1736 1.96044 17.0083 1.72534 16.7734C1.49023 16.5386 1.32475 16.2432 1.24722 15.92C1.19922 15.7112 1.19922 15.476 1.19922 15.2V12.2C1.19922 11.9252 1.19922 11.6888 1.24842 11.48C1.32566 11.1568 1.49087 10.8612 1.72577 10.6261C1.96066 10.391 2.25605 10.2255 2.57922 10.148C2.78802 10.1 3.02322 10.1 3.29922 10.1ZM3.35922 11.3C2.98962 11.3 2.91042 11.3036 2.85882 11.3168C2.75102 11.3426 2.65247 11.3977 2.5741 11.4761C2.49573 11.5545 2.4406 11.653 2.41482 11.7608C2.40402 11.81 2.39922 11.8892 2.39922 12.26V15.14C2.39922 15.5096 2.40282 15.5888 2.41602 15.6404C2.4418 15.7482 2.49693 15.8467 2.5753 15.9251C2.65367 16.0035 2.75222 16.0586 2.86002 16.0844C2.91042 16.0964 2.98962 16.1 3.35922 16.1H6.23922C6.60882 16.1 6.68802 16.0952 6.73962 16.0832C6.84741 16.0574 6.94596 16.0023 7.02434 15.9239C7.10271 15.8455 7.15784 15.747 7.18362 15.6392C7.19562 15.5888 7.19922 15.5096 7.19922 15.14V12.26C7.19922 11.8904 7.19562 11.8112 7.18242 11.7596C7.15664 11.6518 7.10151 11.5533 7.02314 11.4749C6.94476 11.3965 6.84621 11.3414 6.73842 11.3156C6.68922 11.3048 6.61002 11.3 6.23922 11.3H3.35922ZM11.7592 10.1H11.6992C11.4244 10.1 11.188 10.1 10.9792 10.1492C10.656 10.2264 10.3604 10.3917 10.1253 10.6265C9.89023 10.8614 9.72475 11.1568 9.64722 11.48C9.59922 11.6888 9.59922 11.924 9.59922 12.2V15.2C9.59922 15.4748 9.59922 15.7112 9.64842 15.92C9.72566 16.2432 9.89087 16.5388 10.1258 16.7739C10.3607 17.009 10.6561 17.1745 10.9792 17.252C11.188 17.3012 11.4244 17.3012 11.6992 17.3012H14.6992C14.974 17.3012 15.2104 17.3012 15.4192 17.252C15.7422 17.1746 16.0375 17.0093 16.2724 16.7744C16.5073 16.5395 16.6726 16.2442 16.75 15.9212C16.7992 15.7124 16.7992 15.476 16.7992 15.2012V12.2C16.7992 11.9252 16.7992 11.6888 16.75 11.48C16.6728 11.1568 16.5076 10.8612 16.2727 10.6261C16.0378 10.391 15.7424 10.2255 15.4192 10.148C15.2104 10.1 14.9752 10.1 14.6992 10.1H11.7592ZM11.2588 11.3168C11.3104 11.3048 11.3908 11.3 11.7592 11.3H14.6392C15.0088 11.3 15.088 11.3036 15.1396 11.3168C15.2474 11.3426 15.346 11.3977 15.4243 11.4761C15.5027 11.5545 15.5578 11.653 15.5836 11.7608C15.5956 11.8112 15.5992 11.8904 15.5992 12.26V15.14C15.5992 15.5096 15.5944 15.5888 15.5824 15.6404C15.5566 15.7482 15.5015 15.8467 15.4231 15.9251C15.3448 16.0035 15.2462 16.0586 15.1384 16.0844C15.088 16.0964 15.0088 16.1 14.6392 16.1H11.7592C11.3896 16.1 11.3104 16.0952 11.2588 16.0832C11.151 16.0574 11.0525 16.0023 10.9741 15.9239C10.8957 15.8455 10.8406 15.747 10.8148 15.6392C10.804 15.59 10.7992 15.5108 10.7992 15.14V12.26C10.7992 11.8904 10.8028 11.8112 10.816 11.7596C10.8418 11.6518 10.8969 11.5533 10.9753 11.4749C11.0537 11.3965 11.1522 11.3414 11.26 11.3156L11.2588 11.3168Z" fill="#2B6C57"/>
</svg>
