<svg width="18" height="19" viewBox="0 0 18 19" fill="none" xmlns="http://www.w3.org/2000/svg">
    <path d="M9.00989 2.1875C9.56039 2.1935 10.1086 2.25725 10.6464 2.37725C10.7608 2.40279 10.8644 2.46343 10.9426 2.5507C11.0209 2.63796 11.0699 2.7475 11.0829 2.864L11.2104 4.00925C11.2284 4.17071 11.284 4.3257 11.3729 4.46173C11.4617 4.59776 11.5812 4.71105 11.7218 4.79247C11.8624 4.87389 12.0201 4.92117 12.1823 4.93051C12.3445 4.93985 12.5066 4.91099 12.6556 4.84625L13.7056 4.385C13.8123 4.33801 13.931 4.32533 14.0452 4.34871C14.1594 4.37209 14.2635 4.43037 14.3431 4.5155C15.1023 5.32626 15.6678 6.29865 15.9969 7.3595C16.0313 7.47105 16.0301 7.59055 15.9936 7.70142C15.957 7.81228 15.8869 7.90903 15.7929 7.97825L14.8621 8.66525C14.731 8.76138 14.6244 8.88704 14.5509 9.03207C14.4773 9.1771 14.439 9.33741 14.439 9.5C14.439 9.66259 14.4773 9.8229 14.5509 9.96793C14.6244 10.113 14.731 10.2386 14.8621 10.3347L15.7944 11.021C15.8885 11.0903 15.9588 11.1871 15.9953 11.2982C16.0319 11.4092 16.033 11.5288 15.9984 11.6405C15.6694 12.7012 15.1042 13.6736 14.3454 14.4845C14.2659 14.5696 14.162 14.6279 14.0479 14.6514C13.9338 14.6749 13.8153 14.6625 13.7086 14.6157L12.6541 14.153C12.5053 14.0878 12.3433 14.0585 12.181 14.0675C12.0188 14.0765 11.861 14.1236 11.7203 14.205C11.5797 14.2863 11.4601 14.3996 11.3714 14.5358C11.2827 14.6719 11.2273 14.827 11.2096 14.9885L11.0821 16.133C11.0694 16.2481 11.0214 16.3565 10.9448 16.4434C10.8681 16.5302 10.7666 16.5913 10.6539 16.6182C9.56756 16.8767 8.43573 16.8767 7.34939 16.6182C7.2366 16.5914 7.13484 16.5304 7.05804 16.4436C6.98125 16.3567 6.93317 16.2482 6.92039 16.133L6.79364 14.99C6.77523 14.829 6.71932 14.6745 6.6304 14.539C6.54147 14.4035 6.42201 14.2908 6.28161 14.2098C6.14122 14.1289 5.98379 14.082 5.82198 14.0729C5.66016 14.0638 5.49848 14.0928 5.34989 14.1575L4.29539 14.6195C4.18864 14.6664 4.06994 14.679 3.95573 14.6554C3.84152 14.6319 3.73744 14.5735 3.65789 14.4882C2.89895 13.6764 2.33402 12.703 2.00564 11.6412C1.97107 11.5296 1.97213 11.4099 2.00869 11.2989C2.04525 11.1879 2.11549 11.091 2.20964 11.0217L3.14189 10.3347C3.27303 10.2386 3.37967 10.113 3.45318 9.96793C3.52669 9.8229 3.565 9.66259 3.565 9.5C3.565 9.33741 3.52669 9.1771 3.45318 9.03207C3.37967 8.88704 3.27303 8.76138 3.14189 8.66525L2.20964 7.97975C2.11549 7.91048 2.04525 7.81361 2.00869 7.70258C1.97213 7.59156 1.97107 7.47191 2.00564 7.36025C2.33476 6.2994 2.90019 5.32701 3.65939 4.51625C3.73903 4.43112 3.84315 4.37284 3.95736 4.34946C4.07156 4.32608 4.19021 4.33876 4.29689 4.38575L5.34689 4.847C5.49616 4.9117 5.65852 4.9405 5.82093 4.93106C5.98334 4.92163 6.14128 4.87424 6.28205 4.7927C6.42282 4.71115 6.5425 4.59772 6.63148 4.46153C6.72047 4.32534 6.77626 4.17017 6.79439 4.0085L6.92189 2.864C6.93476 2.74727 6.98385 2.63749 7.06226 2.55006C7.14068 2.46263 7.24449 2.40194 7.35914 2.3765C7.90139 2.25666 8.45459 2.19332 9.00989 2.1875ZM9.00989 3.3125C8.66968 3.3165 8.33025 3.34583 7.99439 3.40025L7.91189 4.133C7.87437 4.46998 7.75821 4.79343 7.57278 5.07728C7.38734 5.36114 7.13781 5.59746 6.8443 5.76721C6.55079 5.93695 6.2215 6.03537 5.88299 6.05452C5.54447 6.07368 5.20618 6.01304 4.89539 5.8775L4.22114 5.582C3.79247 6.10242 3.45127 6.68907 3.21089 7.319L3.80864 7.75925C4.08185 7.95994 4.304 8.2221 4.45714 8.52453C4.61028 8.82697 4.69012 9.16119 4.69019 9.50018C4.69026 9.83918 4.61057 10.1734 4.45756 10.4759C4.30455 10.7784 4.08251 11.0407 3.80939 11.2415L3.21014 11.6825C3.45014 12.314 3.79214 12.902 4.22114 13.424L4.89989 13.1262C5.21001 12.9908 5.54759 12.9302 5.88545 12.949C6.22331 12.9679 6.55201 13.0659 6.84511 13.235C7.1382 13.4041 7.38749 13.6397 7.5729 13.9228C7.75832 14.2059 7.87469 14.5285 7.91264 14.8647L7.99439 15.6027C8.66189 15.7152 9.34364 15.7152 10.0104 15.6027L10.0929 14.8647C10.1302 14.5281 10.2462 14.2049 10.4315 13.9213C10.6167 13.6377 10.866 13.4016 11.1593 13.2321C11.4526 13.0626 11.7817 12.9644 12.1199 12.9455C12.4581 12.9266 12.796 12.9875 13.1064 13.1232L13.7844 13.4202C14.2134 12.8994 14.5549 12.3122 14.7954 11.6817L14.1969 11.2407C13.9235 11.0402 13.7013 10.778 13.548 10.4756C13.3948 10.1731 13.3149 9.83886 13.3148 9.49981C13.3148 9.16076 13.3945 8.82646 13.5476 8.52395C13.7007 8.22143 13.9229 7.95921 14.1961 7.7585L14.7939 7.31825C14.5534 6.68801 14.2119 6.10109 13.7829 5.5805L13.1101 5.87525C12.7995 6.01126 12.4611 6.07231 12.1225 6.05346C11.7839 6.03461 11.4544 5.9364 11.1608 5.76675C10.8671 5.5971 10.6174 5.36077 10.4319 5.07684C10.2464 4.79291 10.1303 4.46934 10.0929 4.13225L10.0111 3.40025C9.68029 3.34617 9.34511 3.31684 9.00989 3.3125ZM9.00089 6.6875C9.74682 6.6875 10.4622 6.98382 10.9896 7.51126C11.5171 8.03871 11.8134 8.75408 11.8134 9.5C11.8134 10.2459 11.5171 10.9613 10.9896 11.4887C10.4622 12.0162 9.74682 12.3125 9.00089 12.3125C8.25497 12.3125 7.5396 12.0162 7.01216 11.4887C6.48471 10.9613 6.18839 10.2459 6.18839 9.5C6.18839 8.75408 6.48471 8.03871 7.01216 7.51126C7.5396 6.98382 8.25497 6.6875 9.00089 6.6875ZM9.00089 7.8125C8.55334 7.8125 8.12412 7.99029 7.80765 8.30676C7.49118 8.62322 7.31339 9.05245 7.31339 9.5C7.31339 9.94755 7.49118 10.3768 7.80765 10.6932C8.12412 11.0097 8.55334 11.1875 9.00089 11.1875C9.44845 11.1875 9.87767 11.0097 10.1941 10.6932C10.5106 10.3768 10.6884 9.94755 10.6884 9.5C10.6884 9.05245 10.5106 8.62322 10.1941 8.30676C9.87767 7.99029 9.44845 7.8125 9.00089 7.8125Z" fill="#555555"/>
</svg>
