<svg width="24" height="24" viewBox="0 0 24 24" fill="none" xmlns="http://www.w3.org/2000/svg">
<path d="M19.4972 7.989L12.0002 15.297L4.50324 7.989C4.36929 7.85816 4.18948 7.78492 4.00224 7.78492C3.815 7.78492 3.63518 7.85816 3.50124 7.989C3.43638 8.05254 3.38485 8.12839 3.34968 8.2121C3.3145 8.29581 3.29639 8.3857 3.29639 8.4765C3.29639 8.5673 3.3145 8.65718 3.34968 8.74089C3.38485 8.8246 3.43638 8.90045 3.50124 8.964L11.4767 16.74C11.6168 16.8765 11.8046 16.9529 12.0002 16.9529C12.1958 16.9529 12.3837 16.8765 12.5237 16.74L20.4992 8.9655C20.5646 8.9019 20.6165 8.82587 20.6519 8.74188C20.6874 8.65789 20.7056 8.56766 20.7056 8.4765C20.7056 8.38534 20.6874 8.2951 20.6519 8.21111C20.6165 8.12712 20.5646 8.05109 20.4992 7.9875C20.3653 7.85666 20.1855 7.78342 19.9982 7.78342C19.811 7.78342 19.6312 7.85666 19.4972 7.9875V7.989Z" fill="#777777"/>
</svg>
