<svg xmlns="http://www.w3.org/2000/svg" width="24" height="24" viewBox="0 0 24 24" fill="none">
  <path d="M4.50276 16.011L11.9998 8.70297L19.4968 16.011C19.6307 16.1418 19.8105 16.2151 19.9978 16.2151C20.185 16.2151 20.3648 16.1418 20.4988 16.011C20.5636 15.9474 20.6151 15.8716 20.6503 15.7879C20.6855 15.7042 20.7036 15.6143 20.7036 15.5235C20.7036 15.4327 20.6855 15.3428 20.6503 15.2591C20.6151 15.1754 20.5636 15.0995 20.4988 15.036L12.5233 7.25997C12.3832 7.12345 12.1954 7.04705 11.9998 7.04705C11.8042 7.04705 11.6163 7.12345 11.4763 7.25997L3.50076 15.0345C3.43545 15.0981 3.38353 15.1741 3.34809 15.2581C3.31264 15.3421 3.29438 15.4323 3.29438 15.5235C3.29438 15.6146 3.31264 15.7049 3.34809 15.7889C3.38353 15.8728 3.43545 15.9489 3.50076 16.0125C3.63471 16.1433 3.81452 16.2166 4.00176 16.2166C4.189 16.2166 4.36882 16.1433 4.50276 16.0125V16.011Z" fill="#777777"/>
</svg>