<svg xmlns="http://www.w3.org/2000/svg" width="22" height="22" viewBox="0 0 22 22" fill="none">
  <path d="M19.8695 0.54425L11 9.41375L2.13052 0.54425C1.9172 0.349039 1.63678 0.24366 1.34769 0.250065C1.0586 0.25647 0.783127 0.374167 0.578658 0.578636C0.374189 0.783104 0.256493 1.05858 0.250087 1.34767C0.243682 1.63676 0.349061 1.91718 0.544273 2.1305L9.40927 11L0.542023 19.8673C0.433691 19.9705 0.347091 20.0943 0.287313 20.2315C0.227536 20.3687 0.195787 20.5165 0.193934 20.6661C0.192081 20.8158 0.22016 20.9643 0.276522 21.1029C0.332883 21.2415 0.416389 21.3675 0.522131 21.4734C0.627873 21.5793 0.753717 21.6629 0.892266 21.7195C1.03081 21.7761 1.17927 21.8043 1.32891 21.8027C1.47855 21.8011 1.62635 21.7695 1.76363 21.7099C1.9009 21.6504 2.02488 21.5639 2.12827 21.4558L11 12.5885L19.8695 21.458C20.0828 21.6532 20.3633 21.7586 20.6524 21.7522C20.9414 21.7458 21.2169 21.6281 21.4214 21.4236C21.6259 21.2191 21.7436 20.9437 21.75 20.6546C21.7564 20.3655 21.651 20.0851 21.4558 19.8717L12.5863 11.0023L21.4558 2.1305C21.5641 2.02726 21.6507 1.9034 21.7105 1.76621C21.7703 1.62902 21.802 1.48127 21.8039 1.33163C21.8057 1.18199 21.7776 1.0335 21.7213 0.894869C21.6649 0.75624 21.5814 0.630277 21.4757 0.524385C21.3699 0.418493 21.2441 0.334809 21.1055 0.278251C20.967 0.221693 20.8185 0.193403 20.6689 0.195044C20.5192 0.196685 20.3714 0.228225 20.2342 0.287807C20.0969 0.34739 19.9729 0.433815 19.8695 0.542V0.54425Z" fill="black"/>
</svg>