<svg width="65" height="65" viewBox="0 0 65 65" fill="none" xmlns="http://www.w3.org/2000/svg">
<circle cx="32.5" cy="32.5" r="32.5" fill="#ECF6FE"/>
<path fill-rule="evenodd" clip-rule="evenodd" d="M43.6883 24.3692L41.75 18.0925L39.8116 24.3692L36.0616 26.155L39.8283 27.9484L41.75 33.44L43.6716 27.9484L47.4383 26.155L43.6883 24.3692ZM41.1883 25.5592L41.75 23.7409L42.3116 25.56L43.5616 26.155L42.3283 26.7425L41.75 28.3942L41.1716 26.7425L39.9383 26.155L41.1883 25.5592Z" fill="#0C7CD5"/>
<path d="M28.8333 26.3333L29.6666 23L30.5 26.3333L33 27.1667L30.5 28L29.6666 31.3333L28.8333 28L26.3333 27.1667L28.8333 26.3333Z" fill="#0C7CD5"/>
<path fill-rule="evenodd" clip-rule="evenodd" d="M23.8333 46.1251V46.3301C23.8333 46.7721 23.6577 47.196 23.3452 47.5086C23.0326 47.8211 22.6087 47.9967 22.1667 47.9967H19.6667C19.2246 47.9967 18.8007 47.8211 18.4882 47.5086C18.1756 47.196 18 46.7721 18 46.3301V37.1676C18 36.7255 18.1756 36.3016 18.4882 35.989C18.8007 35.6765 19.2246 35.5009 19.6667 35.5009H22.1667C22.542 35.5007 22.9064 35.6273 23.2009 35.86C23.4954 36.0928 23.7026 36.4181 23.7892 36.7834C24.8925 36.3859 26.1817 35.9126 26.5758 35.7326C26.9108 35.5801 27.2975 35.5284 27.6192 35.5092C27.9511 35.4931 28.2838 35.499 28.615 35.5267C28.9859 35.5563 29.3551 35.603 29.7217 35.6667L29.7408 35.6701L29.7467 35.6709H29.7492L29.7642 35.6742L35.3392 36.9242L35.3733 36.9359L35.3825 36.9392L35.4208 36.9509C35.6613 37.0214 35.9043 37.0834 36.1492 37.1367C36.6283 37.2409 37.2325 37.3384 37.795 37.3384C38.315 37.3384 38.8533 37.5326 39.14 38.0592C39.3867 38.5109 39.3292 39.0076 39.2375 39.3509C39.1217 39.7792 38.8833 40.2292 38.5808 40.6117C38.9892 40.4576 39.4367 40.2751 39.9167 40.0784L40.0192 40.0367C41.3717 39.4809 42.975 38.8226 44.39 38.5892C46.0067 38.3217 47.1825 38.9084 47.7158 39.9492C48.1908 40.8759 48.0808 42.0917 47.3658 42.8242C47.1867 43.0084 46.9133 43.2017 46.6392 43.3792C46.3458 43.5701 45.985 43.7842 45.5842 44.0126C44.6633 44.5282 43.7312 45.0233 42.7883 45.4976C40.8117 46.5001 38.74 47.4751 38.0817 47.7159C37.3183 47.9951 36.4983 48.0217 35.7108 47.9809C35.2353 47.9514 34.7604 47.9111 34.2867 47.8601C33.9398 47.8241 33.5926 47.7922 33.245 47.7642C31.6383 47.6426 30.405 47.2501 29.27 46.8892L29.1317 46.8451C27.9583 46.4734 26.8667 46.1426 25.4208 46.0842C25.0908 46.0709 24.4308 46.0967 23.8333 46.1251ZM27.2667 37.2492C27.3208 37.2242 27.4625 37.1884 27.715 37.1734C27.9517 37.1592 28.2217 37.1684 28.4858 37.1884C28.8019 37.2138 29.1167 37.2536 29.4292 37.3076H29.4317L34.9042 38.5351L34.9417 38.5467C35.2232 38.6296 35.5075 38.7024 35.7942 38.7651C36.2817 38.8717 36.9358 38.9834 37.6017 39.0026C37.5422 39.1629 37.4624 39.315 37.3642 39.4551C37.2308 39.6484 37.085 39.7976 36.965 39.8834C36.6183 40.1317 36.3383 40.2351 36.1683 40.2792C36.1104 40.2951 36.0514 40.3062 35.9917 40.3126H35.9733L31.505 40.2592L31.3467 41.9126L31.3908 41.9209L31.5183 41.9434L31.9817 42.0251C32.3708 42.0934 32.905 42.1851 33.4867 42.2801C34.6317 42.4667 36.0117 42.6734 36.795 42.7209C37.3367 42.7542 37.9667 42.5876 38.5525 42.3917C39.1633 42.1876 39.8542 41.9051 40.5492 41.6201C41.98 41.0334 43.4375 40.4359 44.6617 40.2334C45.72 40.0584 46.0975 40.4451 46.2325 40.7092C46.4267 41.0884 46.3217 41.5092 46.1725 41.6609C46.1367 41.6984 46.0058 41.8042 45.7325 41.9817C45.4775 42.1459 45.1483 42.3434 44.7617 42.5626C43.8636 43.0654 42.9544 43.5483 42.035 44.0109C40.0417 45.0217 38.0583 45.9492 37.5083 46.1509C37.0633 46.3142 36.5125 46.3534 35.7967 46.3167C35.375 46.2919 34.954 46.256 34.5342 46.2092C34.1469 46.1685 33.7591 46.1329 33.3708 46.1026C31.9608 45.9959 30.8892 45.6551 29.74 45.2901L29.6358 45.2567C28.4458 44.8792 27.1725 44.4867 25.4883 44.4192C25.1092 44.4042 24.4342 44.4276 23.8333 44.4559V38.5384C25.0042 38.1192 26.7392 37.4901 27.2667 37.2492ZM22.1667 37.1667H19.6667V46.3292H22.1667V37.1667Z" fill="#0C7CD5"/>
</svg>
