<svg width="65" height="65" viewBox="0 0 65 65" fill="none" xmlns="http://www.w3.org/2000/svg">
<circle cx="32.5" cy="32.5" r="32.5" fill="#F1F9F1"/>
<path d="M44.6433 36.3125C45.7505 34.5763 46.3369 32.5592 46.3333 30.5C46.3333 24.5167 41.4833 19.6667 35.5 19.6667C33.3608 19.6667 31.3667 20.2867 29.6875 21.3558C28.57 21.4185 27.4639 21.6138 26.3925 21.9375C27.2069 21.0717 28.1401 20.3259 29.1642 19.7225C31.0716 18.5985 33.2444 18.0039 35.4583 18H35.5C42.4033 18 48 23.5967 48 30.5C48 30.6125 47.9983 30.7242 47.9958 30.8358L47.9942 30.8758C47.9346 32.9756 47.344 35.0261 46.2775 36.8358C45.6741 37.8599 44.9283 38.7931 44.0625 39.6075C44.38 38.555 44.5792 37.4517 44.6433 36.3125Z" fill="#449C48"/>
<path fill-rule="evenodd" clip-rule="evenodd" d="M34.4767 31.8891C34.2468 31.2392 33.8211 30.6764 33.2582 30.2784C32.6952 29.8804 32.0228 29.6667 31.3333 29.6666V28.8333H29.6667V29.6666C28.7826 29.6666 27.9348 30.0178 27.3096 30.643C26.6845 31.2681 26.3333 32.1159 26.3333 33C26.3333 33.884 26.6845 34.7319 27.3096 35.357C27.9348 35.9821 28.7826 36.3333 29.6667 36.3333V39.6666C28.9417 39.6666 28.3242 39.2041 28.0942 38.5558C28.06 38.4497 28.005 38.3516 27.9323 38.2672C27.8596 38.1827 27.7706 38.1138 27.6708 38.0643C27.571 38.0148 27.4622 37.9859 27.351 37.9792C27.2398 37.9725 27.1283 37.9882 27.0233 38.0253C26.9182 38.0624 26.8217 38.1202 26.7393 38.1953C26.657 38.2704 26.5906 38.3612 26.544 38.4624C26.4973 38.5636 26.4715 38.6732 26.468 38.7845C26.4644 38.8959 26.4833 39.0068 26.5233 39.1108C26.7532 39.7608 27.1789 40.3235 27.7418 40.7216C28.3048 41.1196 28.9772 41.3333 29.6667 41.3333V42.1666H31.3333V41.3333C32.2174 41.3333 33.0652 40.9821 33.6904 40.357C34.3155 39.7319 34.6667 38.884 34.6667 38C34.6667 37.1159 34.3155 36.2681 33.6904 35.643C33.0652 35.0178 32.2174 34.6666 31.3333 34.6666V31.3333C32.0583 31.3333 32.6758 31.7958 32.9058 32.4441C32.94 32.5502 32.995 32.6484 33.0677 32.7328C33.1404 32.8172 33.2294 32.8862 33.3292 32.9357C33.429 32.9851 33.5378 33.0141 33.649 33.0208C33.7602 33.0275 33.8717 33.0118 33.9767 32.9747C34.0818 32.9375 34.1783 32.8797 34.2607 32.8047C34.343 32.7296 34.4094 32.6387 34.456 32.5375C34.5027 32.4363 34.5285 32.3268 34.532 32.2154C34.5356 32.1041 34.5168 31.9931 34.4767 31.8891ZM29.6667 31.3333C29.2246 31.3333 28.8007 31.5089 28.4882 31.8215C28.1756 32.134 28 32.558 28 33C28 33.442 28.1756 33.8659 28.4882 34.1785C28.8007 34.4911 29.2246 34.6666 29.6667 34.6666V31.3333ZM31.3333 39.6666C31.7754 39.6666 32.1993 39.4911 32.5118 39.1785C32.8244 38.8659 33 38.442 33 38C33 37.558 32.8244 37.134 32.5118 36.8215C32.1993 36.5089 31.7754 36.3333 31.3333 36.3333V39.6666Z" fill="#449C48"/>
<path fill-rule="evenodd" clip-rule="evenodd" d="M43 35.5C43 42.4033 37.4033 48 30.5 48C23.5967 48 18 42.4033 18 35.5C18 28.5967 23.5967 23 30.5 23C37.4033 23 43 28.5967 43 35.5ZM41.3333 35.5C41.3333 41.4833 36.4833 46.3333 30.5 46.3333C24.5167 46.3333 19.6667 41.4833 19.6667 35.5C19.6667 29.5167 24.5167 24.6667 30.5 24.6667C36.4833 24.6667 41.3333 29.5167 41.3333 35.5Z" fill="#449C48"/>
</svg>
