<svg xmlns="http://www.w3.org/2000/svg" width="24" height="24" viewBox="0 0 24 24" fill="none">
  <path d="M9.85603 5.14286H14.1417C14.1417 4.57454 13.916 4.02949 13.5141 3.62763C13.1122 3.22576 12.5672 3 11.9989 3C11.4306 3 10.8855 3.22576 10.4837 3.62763C10.0818 4.02949 9.85603 4.57454 9.85603 5.14286ZM8.57031 5.14286C8.57031 4.23354 8.93154 3.36147 9.57452 2.71849C10.2175 2.07551 11.0896 1.71428 11.9989 1.71428C12.9082 1.71428 13.7803 2.07551 14.4232 2.71849C15.0662 3.36147 15.4275 4.23354 15.4275 5.14286H20.7846C20.9551 5.14286 21.1186 5.21059 21.2392 5.33114C21.3597 5.4517 21.4275 5.61522 21.4275 5.78571C21.4275 5.95621 21.3597 6.11972 21.2392 6.24028C21.1186 6.36084 20.9551 6.42857 20.7846 6.42857H19.6617L18.6186 18.9454C18.5427 19.856 18.1274 20.7048 17.455 21.3235C16.7827 21.9422 15.9023 22.2856 14.9886 22.2857H9.00917C8.09545 22.2856 7.21512 21.9422 6.54274 21.3235C5.87037 20.7048 5.45506 19.856 5.37917 18.9454L4.33603 6.42857H3.21317C3.04267 6.42857 2.87916 6.36084 2.7586 6.24028C2.63804 6.11972 2.57031 5.95621 2.57031 5.78571C2.57031 5.61522 2.63804 5.4517 2.7586 5.33114C2.87916 5.21059 3.04267 5.14286 3.21317 5.14286H8.57031ZM6.6606 18.8383C6.70962 19.4275 6.97828 19.9768 7.4133 20.3772C7.84832 20.7776 8.41793 20.9999 9.00917 21H14.9886C15.5798 20.9999 16.1495 20.7776 16.5845 20.3772C17.0195 19.9768 17.2882 19.4275 17.3372 18.8383L18.3726 6.42857H5.62603L6.6606 18.8383ZM10.0703 9.42857C10.2408 9.42857 10.4043 9.4963 10.5249 9.61686C10.6454 9.73742 10.7132 9.90093 10.7132 10.0714V17.3571C10.7132 17.5276 10.6454 17.6912 10.5249 17.8117C10.4043 17.9323 10.2408 18 10.0703 18C9.89982 18 9.7363 17.9323 9.61574 17.8117C9.49519 17.6912 9.42746 17.5276 9.42746 17.3571V10.0714C9.42746 9.90093 9.49519 9.73742 9.61574 9.61686C9.7363 9.4963 9.89982 9.42857 10.0703 9.42857ZM14.5703 10.0714C14.5703 9.90093 14.5026 9.73742 14.382 9.61686C14.2615 9.4963 14.098 9.42857 13.9275 9.42857C13.757 9.42857 13.5934 9.4963 13.4729 9.61686C13.3523 9.73742 13.2846 9.90093 13.2846 10.0714V17.3571C13.2846 17.5276 13.3523 17.6912 13.4729 17.8117C13.5934 17.9323 13.757 18 13.9275 18C14.098 18 14.2615 17.9323 14.382 17.8117C14.5026 17.6912 14.5703 17.5276 14.5703 17.3571V10.0714Z" fill="#999999"/>
</svg>